<svg width="30" height="30" viewBox="0 0 30 30" fill="none" xmlns="http://www.w3.org/2000/svg">
<g clip-path="url(#clip0)">
<path d="M26.5634 5.01172H9.37594C9.11594 5.01172 8.86719 5.12047 8.68969 5.31048L0.252187 14.3934C-0.0840625 14.7547 -0.0840625 15.3135 0.252187 15.6747L8.68969 24.7577C8.86719 24.9489 9.11594 25.0564 9.37594 25.0564H26.5634C28.4597 25.0564 30.0009 23.5114 30.0009 21.6113V8.45689C30.0009 6.55679 28.4597 5.01172 26.5634 5.01172Z" fill="#F8F8FF"/>
<path d="M26.5628 25.0517H9.37531C9.11531 25.0517 8.86656 24.943 8.68781 24.7517L0.250313 15.6705C-0.0834375 15.3105 -0.0834375 14.7542 0.250313 14.3942L8.68781 5.31172C8.86656 5.12047 9.11406 5.01172 9.37531 5.01172H26.5628C28.4591 5.01172 30.0003 6.55672 30.0003 8.45422V21.608C30.0003 23.5067 28.4591 25.0517 26.5628 25.0517V25.0517ZM9.78406 23.1767H26.5628C27.4241 23.1767 28.1253 22.4742 28.1253 21.6092V8.45547C28.1253 7.59047 27.4241 6.88797 26.5628 6.88797H9.78406L2.21656 15.033L9.78406 23.1767Z" fill="#526D7B"/>
</g>
<path d="M15.3481 21.446C15.6437 21.446 15.9394 21.3267 16.157 21.0927L25.7171 10.7649C26.1319 10.3173 26.1054 9.61946 25.6583 9.20429C25.2112 8.79059 24.514 8.81562 24.0993 9.26465L14.5392 19.5924C14.1244 20.04 14.1509 20.7378 14.598 21.153C14.8113 21.3488 15.0789 21.446 15.3481 21.446Z" fill="#FFA06D"/>
<path d="M24.1364 20.498C24.3623 20.498 24.5869 20.4164 24.7659 20.2508C25.1411 19.9023 25.1634 19.3164 24.8153 18.9406L16.7925 10.2698C16.4444 9.8928 15.8594 9.87303 15.4842 10.2191C15.1089 10.5677 15.0867 11.1536 15.4348 11.5293L23.4576 20.2001C23.6403 20.3979 23.8883 20.498 24.1364 20.498Z" fill="#FFA06D"/>
<path d="M14.7544 21.0905C15.05 21.0905 15.3456 20.9713 15.5633 20.7372L25.1234 10.4094C25.5381 9.96184 25.5117 9.264 25.0646 8.84882C24.6174 8.43512 23.9203 8.46015 23.5055 8.90919L13.9454 19.237C13.5307 19.6845 13.5571 20.3824 14.0042 20.7975C14.2175 20.9934 14.4852 21.0905 14.7544 21.0905Z" fill="#FF6E40"/>
<path d="M23.5466 20.1445C23.7725 20.1445 23.9971 20.0629 24.1761 19.8973C24.5513 19.5487 24.5735 18.9629 24.2254 18.5871L16.2026 9.91628C15.8546 9.53929 15.2695 9.51951 14.8943 9.8656C14.5191 10.2142 14.4969 10.8 14.8449 11.1758L22.8677 19.8466C23.0504 20.0444 23.2985 20.1445 23.5466 20.1445Z" fill="#FF6E40"/>
<defs>
<clipPath id="clip0">
<rect width="30" height="30" fill="white"/>
</clipPath>
</defs>
</svg>
