<svg width="61" height="60" viewBox="0 0 61 60" fill="none" xmlns="http://www.w3.org/2000/svg">
<path d="M58.9558 0.19158C58.0207 -0.198409 56.9458 0.0190851 56.2309 0.734025L30.4991 26.4658L4.76738 0.734025C4.05244 0.0190851 2.97739 -0.198409 2.04249 0.19158C1.10748 0.57653 0.5 1.4915 0.5 2.50151V30.0008C0.5 30.6658 0.762492 31.3007 1.23252 31.7682L28.7318 59.2675C29.2192 59.755 29.8592 60 30.4992 60C31.1392 60 31.7792 59.755 32.2667 59.2675L59.766 31.7682C60.236 31.3008 60.4985 30.6658 60.4985 30.0008V2.50151C60.4983 1.4915 59.8908 0.57653 58.9558 0.19158Z" fill="#FF6E40"/>
</svg>
