<svg width="38" height="54" viewBox="0 0 38 54" fill="none" xmlns="http://www.w3.org/2000/svg">
<path d="M18.949 10.9785C14.5551 10.9785 10.9805 14.5532 10.9805 18.9471C10.9805 23.3409 14.5552 26.9156 18.949 26.9156C23.343 26.9156 26.9176 23.3409 26.9176 18.9471C26.9176 14.5532 23.343 10.9785 18.949 10.9785Z" fill="#FF6E40"/>
<path d="M18.9444 0.421875C8.49844 0.421875 0 8.92032 0 19.3663C0 23.6553 3.01014 30.4603 8.94698 39.5925C13.2845 46.2646 17.6838 51.8309 17.7278 51.8863L18.9445 53.4219L20.1613 51.8863C20.2053 51.8308 24.6046 46.2646 28.9421 39.5925C34.8788 30.4604 37.8891 23.6553 37.8891 19.3663C37.889 8.92032 29.3904 0.421875 18.9444 0.421875ZM18.9444 30.0194C12.8387 30.0194 7.87124 25.052 7.87124 18.9462C7.87124 12.8405 12.8387 7.87305 18.9444 7.87305C25.0502 7.87305 30.0176 12.8405 30.0176 18.9462C30.0177 25.052 25.0503 30.0194 18.9444 30.0194Z" fill="white"/>
</svg>
