<svg width="50" height="50" viewBox="0 0 50 50" fill="none" xmlns="http://www.w3.org/2000/svg">
<path d="M36.4519 27.6726L49.7969 41.0176L45.3152 45.4993L31.9702 32.1543L36.4519 27.6726Z" fill="#FF6E40"/>
<path d="M8.97925 0.203856L22.3242 13.5488L17.7986 18.0745L4.45361 4.7295L8.97925 0.203856Z" fill="#FF6E40"/>
<path d="M2.28287 6.90068L2.38668 6.79688L16.1704 20.5804C17.8671 23.0502 19.8733 25.4476 22.1518 27.7261C24.519 30.0932 27.0107 32.1634 29.5762 33.8979L43.2461 47.5679L42.9427 47.8713L42.9011 47.9114C40.0965 50.5028 35.3613 50.6887 29.5678 48.4349C24.1325 46.3204 18.2454 42.2622 12.9911 37.0078C7.67388 31.6906 3.59215 25.7422 1.49781 20.2582C0.496937 17.6374 -0.00120544 15.2409 -0.00120544 13.1462C-0.00120544 10.5518 0.76305 8.42051 2.28287 6.90068Z" fill="white"/>
<path d="M36.1244 13.6761C38.0191 15.5707 38.7846 18.2631 38.1717 20.8786L35.3241 20.2114C35.7046 18.5882 35.2306 16.9184 34.0564 15.7441C32.8823 14.5701 31.2124 14.0963 29.5893 14.4765L28.9222 11.6291C31.5374 11.0163 34.2299 11.7815 36.1244 13.6761Z" fill="#FF6E40"/>
<path d="M40.2089 9.59165C43.5693 12.952 44.9265 17.7282 43.8394 22.3679L40.9919 21.7007C41.8464 18.0533 40.7808 14.2995 38.1408 11.6597C35.501 9.01997 31.7476 7.95435 28.1001 8.80894L27.4329 5.96138C32.0725 4.87428 36.8486 6.2314 40.2089 9.59165Z" fill="#FF6E40"/>
<path d="M35.926 0.672472C39.0689 1.5337 41.9546 3.21319 44.2708 5.52959C46.5872 7.846 48.2668 10.7316 49.1281 13.8745C49.9622 16.9178 50.0217 20.1534 49.3005 23.2312L46.453 22.564C47.7271 17.1278 46.1379 11.5328 42.2028 7.59766C38.2678 3.6627 32.673 2.07403 27.2366 3.34786L26.5694 0.500304C29.6473 -0.220886 32.8828 -0.161414 35.926 0.672472Z" fill="white"/>
</svg>
