<svg width="50" height="50" viewBox="0 0 50 50" fill="none" xmlns="http://www.w3.org/2000/svg">
<path d="M0 14.3145V48.8513H11.7839V14.3145H0ZM7.3568 20.8643H4.45906V17.9664H7.3568V20.8643Z" fill="#FF6E40"/>
<path d="M48.8479 29.5974C48.8479 28.3725 48.4252 27.245 47.7196 26.3508C49.0962 25.4029 50.0009 23.8166 50.0009 22.0224C50.0009 19.1262 47.6448 16.77 44.7488 16.77H27.9184C27.6642 16.77 27.4377 16.618 27.3412 16.3829C27.2436 16.1447 27.3042 15.8665 27.4923 15.6907L34.3348 9.29104C35.3966 8.29792 35.9946 6.95625 36.0187 5.51301C36.0428 4.07777 35.4963 2.72389 34.4793 1.69795C32.4351 -0.468474 29.0101 -0.577268 26.8312 1.46064L14.7148 12.8209V46.4888L20.1669 48.5334C22.7617 49.5065 25.4826 50 28.2539 50H41.2897C44.1858 50 46.5418 47.6437 46.5418 44.7476C46.5418 43.5229 46.1206 42.3949 45.4154 41.5007C46.7911 40.5527 47.6948 38.9661 47.6948 37.1726C47.6948 35.9477 47.2722 34.8203 46.5666 33.9259C47.9432 32.9778 48.8479 31.3915 48.8479 29.5974Z" fill="white"/>
</svg>
