<svg width="30" height="30" viewBox="0 0 720 342" fill="none" xmlns="http://www.w3.org/2000/svg">
<path d="M680.002 0H39.9975C17.959 0 0 9.57812 0 21.332V64C0 75.7539 17.959 85.332 39.9975 85.332H680.002C702.041 85.332 720 75.7539 720 64V21.332C720 9.57812 702.041 0 680.002 0Z" fill="#FAFAFA"/>
<path d="M680.002 128H39.9975C17.959 128 0 137.578 0 149.332V192C0 203.754 17.959 213.332 39.9975 213.332H680.002C702.041 213.332 720 203.754 720 192V149.332C720 137.578 702.041 128 680.002 128Z" fill="#FF6E40"/>
<path d="M680.002 256H39.9975C17.959 256 0 265.578 0 277.332V320C0 331.754 17.959 341.332 39.9975 341.332H680.002C702.041 341.332 720 331.754 720 320V277.332C720 265.578 702.041 256 680.002 256Z" fill="#FF6E40"/>
</svg>
