<svg width="152" height="153" viewBox="0 0 152 153" fill="none" xmlns="http://www.w3.org/2000/svg">
<path d="M42.1117 94.7832C40.2037 94.7832 38.3386 95.349 36.7522 96.409C35.1657 97.469 33.9293 98.9757 33.1991 100.738C32.469 102.501 32.278 104.441 32.6502 106.312C33.0225 108.184 33.9413 109.902 35.2905 111.252C36.6396 112.601 38.3586 113.519 40.2299 113.892C42.1012 114.264 44.0409 114.073 45.8036 113.343C47.5663 112.612 49.073 111.376 50.1329 109.789C51.1929 108.203 51.7586 106.338 51.7586 104.43C51.7556 101.872 50.7383 99.4202 48.9298 97.6118C47.1213 95.8033 44.6693 94.7861 42.1117 94.7832V94.7832ZM42.1117 110.561C40.8991 110.561 39.7137 110.202 38.7054 109.528C37.6971 108.854 36.9113 107.897 36.4472 106.776C35.9831 105.656 35.8617 104.423 36.0983 103.234C36.3348 102.045 36.9187 100.952 37.7762 100.095C38.6336 99.2373 39.7261 98.6533 40.9154 98.4167C42.1047 98.1801 43.3375 98.3014 44.4578 98.7655C45.5782 99.2295 46.5358 100.015 47.2095 101.024C47.8833 102.032 48.2429 103.217 48.243 104.43C48.2412 106.055 47.5946 107.614 46.4452 108.763C45.2958 109.913 43.7373 110.559 42.1117 110.561V110.561Z" fill="#C4C4C4"/>
<path d="M42.1146 85.9883C38.467 85.9882 34.9013 87.0698 31.8684 89.0963C28.8355 91.1227 26.4717 94.003 25.0758 97.3729C23.6799 100.743 23.3146 104.451 24.0262 108.029C24.7378 111.606 26.4943 114.892 29.0735 117.471C31.6528 120.051 34.9389 121.807 38.5164 122.519C42.0939 123.23 45.8021 122.865 49.172 121.469C52.5419 120.073 55.4222 117.709 57.4487 114.677C59.4751 111.644 60.5567 108.078 60.5566 104.43C60.5511 99.5409 58.6063 94.8534 55.1489 91.396C51.6916 87.9387 47.004 85.9939 42.1146 85.9883V85.9883ZM56.9344 102.675C56.4767 102.687 56.0418 102.877 55.7223 103.205C55.4028 103.533 55.224 103.973 55.224 104.43C55.224 104.888 55.4028 105.328 55.7223 105.656C56.0418 105.984 56.4767 106.174 56.9344 106.186C56.7678 107.61 56.3949 109.003 55.8273 110.321C55.4255 110.106 54.9558 110.055 54.5174 110.18C54.0791 110.305 53.7064 110.595 53.4782 110.989C53.2499 111.384 53.184 111.852 53.2944 112.294C53.4047 112.736 53.6826 113.118 54.0694 113.359C53.2099 114.507 52.1909 115.526 51.0434 116.385C50.8023 115.998 50.4203 115.721 49.9781 115.61C49.5359 115.5 49.0681 115.566 48.6736 115.794C48.2791 116.022 47.9888 116.395 47.864 116.833C47.7393 117.272 47.7898 117.741 48.005 118.143C46.6876 118.711 45.2947 119.083 43.87 119.25C43.8582 118.793 43.6681 118.358 43.3402 118.038C43.0124 117.719 42.5727 117.54 42.1149 117.54C41.657 117.54 41.2174 117.719 40.8895 118.038C40.5616 118.358 40.3715 118.793 40.3597 119.25C38.9349 119.084 37.5419 118.711 36.2244 118.143C36.4396 117.741 36.4901 117.272 36.3654 116.833C36.2406 116.395 35.9503 116.022 35.5558 115.794C35.1613 115.566 34.6935 115.5 34.2513 115.61C33.8091 115.721 33.4271 115.998 33.186 116.385C32.0384 115.526 31.0195 114.507 30.16 113.359C30.5468 113.118 30.8247 112.736 30.935 112.294C31.0454 111.852 30.9795 111.384 30.7512 110.989C30.523 110.595 30.1503 110.305 29.712 110.18C29.2736 110.055 28.8039 110.106 28.4022 110.321C27.8345 109.003 27.4616 107.61 27.295 106.186C27.7527 106.174 28.1876 105.984 28.5071 105.656C28.8266 105.328 29.0054 104.888 29.0054 104.43C29.0054 103.973 28.8266 103.533 28.5071 103.205C28.1876 102.877 27.7527 102.687 27.295 102.675C27.4617 101.25 27.8348 99.857 28.4025 98.5394C28.8043 98.7566 29.2749 98.8086 29.7145 98.6845C30.154 98.5603 30.5279 98.2697 30.7567 97.8744C30.9855 97.479 31.0511 97.0101 30.9398 96.5671C30.8284 96.1241 30.5488 95.742 30.1603 95.5019C31.02 94.354 32.0393 93.3348 33.1872 92.4752C33.4274 92.8637 33.8095 93.1434 34.2525 93.2547C34.6955 93.3661 35.1644 93.3004 35.5597 93.0716C35.9551 92.8428 36.2457 92.469 36.3698 92.0294C36.494 91.5898 36.4419 91.1192 36.2247 90.7174C37.5422 90.15 38.9352 89.7771 40.36 89.6106C40.3718 90.0682 40.5619 90.5031 40.8898 90.8226C41.2176 91.1421 41.6573 91.321 42.1151 91.321C42.5729 91.321 43.0126 91.1421 43.3405 90.8226C43.6684 90.5031 43.8585 90.0682 43.8703 89.6106C45.2951 89.7772 46.6881 90.1501 48.0056 90.7174C47.7884 91.1192 47.7363 91.5898 47.8605 92.0294C47.9846 92.469 48.2752 92.8428 48.6706 93.0716C49.0659 93.3004 49.5348 93.3661 49.9778 93.2547C50.4208 93.1434 50.8029 92.8637 51.0431 92.4752C52.1909 93.3349 53.2101 94.354 54.0697 95.5019C53.6812 95.742 53.4016 96.1241 53.2902 96.5671C53.1789 97.0101 53.2445 97.479 53.4733 97.8744C53.7021 98.2697 54.076 98.5603 54.5155 98.6845C54.9551 98.8086 55.4257 98.7566 55.8275 98.5394C56.395 99.857 56.7679 101.25 56.9344 102.675V102.675Z" fill="#C4C4C4"/>
<path d="M123.737 94.7832C121.829 94.7832 119.964 95.349 118.377 96.409C116.791 97.469 115.554 98.9757 114.824 100.738C114.094 102.501 113.903 104.441 114.275 106.312C114.647 108.184 115.566 109.902 116.915 111.252C118.265 112.601 119.984 113.519 121.855 113.892C123.726 114.264 125.666 114.073 127.429 113.343C129.191 112.612 130.698 111.376 131.758 109.789C132.818 108.203 133.384 106.338 133.384 104.43C133.381 101.872 132.363 99.4202 130.555 97.6118C128.746 95.8033 126.294 94.7861 123.737 94.7832V94.7832ZM123.737 110.561C122.524 110.561 121.339 110.202 120.33 109.528C119.322 108.854 118.536 107.897 118.072 106.776C117.608 105.656 117.487 104.423 117.723 103.234C117.96 102.045 118.544 100.952 119.401 100.095C120.259 99.2373 121.351 98.6533 122.54 98.4167C123.73 98.1801 124.963 98.3014 126.083 98.7655C127.203 99.2295 128.161 100.015 128.835 101.024C129.508 102.032 129.868 103.217 129.868 104.43C129.866 106.055 129.22 107.614 128.07 108.763C126.921 109.913 125.362 110.559 123.737 110.561V110.561Z" fill="#C4C4C4"/>
<path d="M141.662 46.5356L141.638 46.5119L137.608 42.5767C137.435 42.4073 137.229 42.2756 137.002 42.1899C136.775 42.1042 136.534 42.0663 136.292 42.0786L74.7289 45.1824L63.5404 33.6608C63.3587 33.4736 63.1376 33.3292 62.8932 33.238C62.6487 33.1468 62.3871 33.1111 62.1271 33.1334L24.2123 36.4264C23.7741 36.4645 23.3661 36.6654 23.0688 36.9896C22.7715 37.3138 22.6066 37.7376 22.6065 38.1775V45.2966C22.6065 45.5291 22.6526 45.7593 22.7422 45.9739C22.8318 46.1884 22.963 46.3831 23.1283 46.5466C23.2936 46.7101 23.4897 46.8391 23.7053 46.9263C23.9208 47.0135 24.1515 47.057 24.384 47.0544L56.9899 46.69L61.3259 58.2453C61.4649 58.6158 61.7249 58.9286 62.0638 59.1331C62.4027 59.3375 62.8006 59.4216 63.1933 59.3717L63.6116 59.3184L67.7355 70.8259H66.1429L65.5057 68.9679C65.3867 68.6214 65.1625 68.3208 64.8644 68.1079C64.5663 67.8951 64.2091 67.7807 63.8428 67.7808H57.8779V55.1538C57.8748 53.3987 57.1776 51.716 55.9384 50.4729C54.6992 49.2299 53.0187 48.5274 51.2636 48.5187L26.6313 48.4419H26.6261C26.336 48.4419 26.0504 48.5137 25.7947 48.6509C25.5391 48.788 25.3214 48.9863 25.1611 49.2281C25.0007 49.4699 24.9027 49.7475 24.8757 50.0364C24.8487 50.3252 24.8937 50.6163 25.0065 50.8835L31.3933 66.0089L29.1058 70.8247H12.5284C11.0812 70.8264 9.69374 71.402 8.67041 72.4253C7.64708 73.4487 7.07145 74.8361 7.06982 76.2833V90.393H6.18359C5.71739 90.393 5.27029 90.5782 4.94063 90.9079C4.61098 91.2375 4.42578 91.6846 4.42578 92.1508V99.0356C4.42578 99.5018 4.61098 99.9489 4.94063 100.279C5.27029 100.608 5.71739 100.793 6.18359 100.793H20.757C21.1397 100.793 21.512 100.669 21.8172 100.438C22.1225 100.207 22.3441 99.8828 22.4483 99.5146L24.3843 92.6782L27.8747 82.6692H54.9799L67.3637 110.409C67.5021 110.719 67.7273 110.982 68.0121 111.167C68.2969 111.352 68.6291 111.45 68.9686 111.45H83.5036C83.9698 111.45 84.4169 111.265 84.7466 110.936C85.0762 110.606 85.2614 110.159 85.2614 109.693V106.885H99.9661C100.961 106.883 101.917 106.496 102.634 105.805C103.35 105.114 103.771 104.173 103.808 103.178H105.343C105.313 103.593 105.295 104.01 105.295 104.431C105.292 107.475 106.043 110.473 107.481 113.157C108.918 115.841 110.998 118.127 113.534 119.811C116.07 121.496 118.983 122.526 122.014 122.811C125.045 123.095 128.1 122.625 130.905 121.441C133.71 120.258 136.179 118.399 138.091 116.03C140.002 113.66 141.298 110.854 141.861 107.863C142.425 104.871 142.239 101.786 141.32 98.8834C140.401 95.9809 138.778 93.3509 136.596 91.2283L137.47 90.3857L140.785 94.436C141.082 94.7892 141.507 95.0112 141.967 95.0538C142.427 95.0964 142.885 94.9563 143.242 94.6637C143.6 94.3711 143.828 93.9497 143.877 93.4904C143.926 93.0311 143.792 92.5709 143.505 92.2094L128.721 74.1543L146.058 67.5672V67.8394C146.058 68.3056 146.243 68.7527 146.573 69.0824C146.903 69.412 147.35 69.5972 147.816 69.5972C148.282 69.5972 148.729 69.412 149.059 69.0824C149.388 68.7527 149.574 68.3056 149.574 67.8394V55.0024C149.574 54.768 149.527 54.536 149.436 54.32C149.345 54.104 149.212 53.9084 149.044 53.7447L141.662 46.5356ZM46.3303 52.02V64.3044L35.881 64.2962L40.6159 52.0024L46.3303 52.02ZM29.2795 51.9666L36.8524 51.9904L33.2451 61.3563L29.2795 51.9666ZM19.4278 97.2778H7.94141V93.9086H20.382L19.4278 97.2778ZM54.3623 79.1547H26.6261C26.2612 79.1547 25.9054 79.2682 25.608 79.4795C25.3105 79.6908 25.0862 79.9894 24.9661 80.3339L21.4584 90.393H10.5854V76.2845C10.586 75.7694 10.7909 75.2755 11.1551 74.9112C11.5194 74.547 12.0133 74.3421 12.5284 74.3415H54.3623V79.1547ZM54.3623 70.8271H32.9993L34.4313 67.811L48.0866 67.8215C48.5528 67.8215 48.9999 67.6363 49.3296 67.3067C49.6592 66.977 49.8444 66.5299 49.8444 66.0637V52.0305L51.2507 52.0346C52.0759 52.0387 52.8659 52.369 53.4485 52.9534C54.031 53.5378 54.3588 54.329 54.3603 55.1541L54.3623 70.8271ZM59.8476 44.3017C59.7218 43.9668 59.4969 43.6783 59.2029 43.4746C58.9088 43.2709 58.5597 43.1618 58.202 43.1618H58.1823L26.1222 43.518V39.7894L61.6007 36.7088L72.3928 47.8226C72.6831 48.1217 73.0339 48.3553 73.4218 48.5078C73.8097 48.6604 74.2256 48.7283 74.6419 48.7071L135.702 45.6288L136.59 46.496L64.129 55.7087L59.8476 44.3017ZM99.6034 54.7434L112.196 53.1423L121.217 73.2438L109.621 77.6489L99.6034 54.7434ZM106.329 78.9004L94.7275 83.309L83.3753 56.8068L95.9694 55.2057L106.329 78.9004ZM67.1835 58.8643L79.7483 57.2667L91.4378 84.5576L85.6268 86.7655L75.7578 82.7937L67.1835 58.8643ZM57.8779 80.5369V71.2964H62.5874L66.5073 82.7222H58.8532L57.8779 80.5369ZM81.7458 107.935H70.1091L67.9856 103.178H77.8224C77.8598 104.173 78.2809 105.114 78.9972 105.805C79.7135 106.496 80.6694 106.883 81.6646 106.885H81.7449L81.7458 107.935ZM100.3 103.035C100.299 103.123 100.263 103.208 100.201 103.27C100.139 103.332 100.054 103.368 99.9661 103.369H81.6646C81.5765 103.368 81.4922 103.332 81.4298 103.27C81.3675 103.208 81.3319 103.123 81.3307 103.035V95.1201C81.3318 95.0318 81.3674 94.9475 81.4297 94.8852C81.4921 94.8228 81.5764 94.7872 81.6646 94.7861H99.9652C100.053 94.7872 100.138 94.8228 100.2 94.8852C100.263 94.9475 100.298 95.0318 100.299 95.1201L100.3 103.035ZM135.095 97.8743C135.322 98.271 135.696 98.5628 136.137 98.6872C136.577 98.8116 137.049 98.7587 137.45 98.5399C138.018 99.8576 138.391 101.251 138.558 102.676C138.1 102.688 137.665 102.878 137.346 103.206C137.026 103.533 136.847 103.973 136.847 104.431C136.847 104.889 137.026 105.328 137.346 105.656C137.665 105.984 138.1 106.174 138.558 106.186C138.391 107.611 138.018 109.004 137.451 110.321C137.049 110.106 136.579 110.056 136.141 110.18C135.702 110.305 135.33 110.595 135.102 110.99C134.873 111.384 134.807 111.852 134.918 112.294C135.028 112.737 135.306 113.119 135.693 113.36C134.833 114.507 133.815 115.526 132.667 116.386C132.426 115.999 132.044 115.721 131.602 115.611C131.16 115.5 130.692 115.566 130.297 115.795C129.903 116.023 129.612 116.395 129.488 116.834C129.363 117.272 129.413 117.742 129.629 118.144C128.311 118.711 126.917 119.084 125.492 119.25C125.48 118.793 125.29 118.358 124.962 118.038C124.634 117.719 124.195 117.54 123.737 117.54C123.279 117.54 122.839 117.719 122.511 118.038C122.183 118.358 121.993 118.793 121.982 119.25C120.557 119.084 119.164 118.711 117.846 118.143C118.063 117.741 118.115 117.271 117.991 116.832C117.866 116.392 117.576 116.019 117.18 115.79C116.785 115.561 116.316 115.496 115.874 115.607C115.431 115.718 115.049 115.997 114.808 116.385C113.661 115.526 112.642 114.507 111.782 113.359C112.17 113.119 112.45 112.737 112.561 112.294C112.672 111.851 112.606 111.382 112.378 110.987C112.149 110.592 111.775 110.301 111.336 110.177C110.897 110.053 110.426 110.105 110.024 110.321C109.457 109.004 109.084 107.611 108.917 106.186C109.375 106.174 109.81 105.984 110.129 105.656C110.449 105.328 110.628 104.888 110.628 104.431C110.628 103.973 110.449 103.533 110.129 103.205C109.81 102.877 109.375 102.687 108.917 102.675C109.084 101.25 109.457 99.8573 110.025 98.5396C110.426 98.7568 110.897 98.8089 111.337 98.6847C111.776 98.5605 112.15 98.2699 112.379 97.8746C112.608 97.4793 112.673 97.0103 112.562 96.5674C112.451 96.1244 112.171 95.7422 111.782 95.5021C112.642 94.3541 113.661 93.3349 114.809 92.4754C115.05 92.864 115.432 93.1436 115.875 93.2549C116.318 93.3663 116.787 93.3006 117.182 93.0718C117.577 92.8431 117.868 92.4692 117.992 92.0296C118.116 91.5901 118.064 91.1194 117.847 90.7176C119.164 90.1502 120.557 89.7774 121.982 89.6108C121.994 90.0684 122.184 90.5034 122.512 90.8229C122.84 91.1424 123.28 91.3212 123.737 91.3212C124.195 91.3212 124.635 91.1424 124.963 90.8229C125.291 90.5034 125.481 90.0684 125.492 89.6108C126.917 89.7774 128.31 90.1502 129.628 90.7176C129.411 91.1194 129.358 91.5901 129.483 92.0296C129.607 92.4692 129.897 92.8431 130.293 93.0718C130.688 93.3006 131.157 93.3663 131.6 93.2549C132.043 93.1436 132.425 92.864 132.665 92.4754C133.813 93.335 134.832 94.3542 135.692 95.5021C135.304 95.7423 135.024 96.1242 134.913 96.567C134.801 97.0097 134.867 97.4786 135.095 97.8743ZM135.235 87.6567L133.833 89.0087C133.594 88.8515 133.351 88.6997 133.104 88.5535C133.058 88.5201 133.009 88.4887 132.958 88.4594L132.945 88.4626C130.497 87.0469 127.755 86.214 124.932 86.0285C122.11 85.843 119.282 86.3098 116.669 87.3928C114.056 88.4759 111.728 90.146 109.864 92.2738C108 94.4016 106.652 96.9299 105.922 99.6628H103.815V95.1201C103.813 94.0994 103.407 93.1209 102.686 92.3993C101.964 91.6776 100.986 91.2716 99.9649 91.2705H81.6646C80.644 91.2716 79.6655 91.6776 78.9438 92.3993C78.2222 93.1209 77.8162 94.0994 77.815 95.1201V99.6628H66.4162L65.3835 97.3484H71.1339C71.6001 97.3484 72.0472 97.1632 72.3768 96.8335C72.7065 96.5039 72.8917 96.0568 72.8917 95.5906C72.8917 95.1244 72.7065 94.6773 72.3768 94.3476C72.0472 94.018 71.6001 93.8327 71.1339 93.8327H63.8141L62.837 91.6446H68.5868C69.053 91.6446 69.5001 91.4594 69.8298 91.1297C70.1594 90.8001 70.3446 90.353 70.3446 89.8868C70.3446 89.4206 70.1594 88.9734 69.8298 88.6438C69.5001 88.3141 69.053 88.1289 68.5868 88.1289H61.2673L60.4224 86.2361H68.968C69.2478 86.2361 69.5236 86.1693 69.7724 86.0413C70.0213 85.9132 70.236 85.7276 70.3986 85.4999C70.5612 85.2722 70.6672 85.0089 70.7076 84.732C70.748 84.4551 70.7217 84.1725 70.6309 83.9078L67.3496 74.3404H68.9958L72.7165 84.7214C72.8002 84.9551 72.9325 85.1683 73.1046 85.3472C73.2767 85.5261 73.4847 85.6664 73.7149 85.7591L84.9541 90.2823C85.3642 90.4473 85.8214 90.4518 86.2347 90.2949L125.258 75.4683L135.235 87.6567ZM124.511 71.9916L115.844 52.6777L128.43 51.0766L136.099 67.5874L124.511 71.9916ZM146.059 63.8046L139.395 66.3365L132.092 50.612L139.802 49.6317L146.059 55.7421V63.8046Z" fill="#C4C4C4"/>
<path d="M40.1117 91.7832C38.2037 91.7832 36.3386 92.349 34.7522 93.409C33.1657 94.469 31.9293 95.9757 31.1991 97.7384C30.469 99.5012 30.278 101.441 30.6502 103.312C31.0225 105.184 31.9413 106.902 33.2905 108.252C34.6396 109.601 36.3586 110.519 38.2299 110.892C40.1012 111.264 42.0409 111.073 43.8036 110.343C45.5663 109.612 47.073 108.376 48.1329 106.789C49.1929 105.203 49.7586 103.338 49.7586 101.43C49.7556 98.8722 48.7383 96.4202 46.9298 94.6118C45.1213 92.8033 42.6693 91.7861 40.1117 91.7832V91.7832ZM40.1117 107.561C38.8991 107.561 37.7137 107.202 36.7054 106.528C35.6971 105.854 34.9113 104.897 34.4472 103.776C33.9831 102.656 33.8617 101.423 34.0983 100.234C34.3348 99.0447 34.9187 97.9522 35.7762 97.0947C36.6336 96.2373 37.7261 95.6533 38.9154 95.4167C40.1047 95.1801 41.3375 95.3014 42.4578 95.7655C43.5782 96.2295 44.5358 97.0153 45.2095 98.0235C45.8833 99.0318 46.2429 100.217 46.243 101.43C46.2412 103.055 45.5946 104.614 44.4452 105.763C43.2958 106.913 41.7373 107.559 40.1117 107.561V107.561Z" fill="#FF6E40"/>
<path d="M40.1146 82.9883C36.467 82.9882 32.9013 84.0698 29.8684 86.0963C26.8355 88.1227 24.4717 91.003 23.0758 94.3729C21.6799 97.7429 21.3146 101.451 22.0262 105.029C22.7378 108.606 24.4943 111.892 27.0735 114.471C29.6528 117.051 32.9389 118.807 36.5164 119.519C40.0939 120.23 43.8021 119.865 47.172 118.469C50.5419 117.073 53.4222 114.709 55.4487 111.677C57.4751 108.644 58.5567 105.078 58.5566 101.43C58.5511 96.5409 56.6063 91.8534 53.1489 88.396C49.6916 84.9387 45.004 82.9939 40.1146 82.9883V82.9883ZM54.9344 99.6752C54.4767 99.687 54.0418 99.8771 53.7223 100.205C53.4028 100.533 53.224 100.973 53.224 101.43C53.224 101.888 53.4028 102.328 53.7223 102.656C54.0418 102.984 54.4767 103.174 54.9344 103.186C54.7678 104.61 54.3949 106.003 53.8273 107.321C53.4255 107.106 52.9558 107.055 52.5174 107.18C52.0791 107.305 51.7064 107.595 51.4782 107.989C51.2499 108.384 51.184 108.852 51.2944 109.294C51.4047 109.736 51.6826 110.118 52.0694 110.359C51.2099 111.507 50.1909 112.526 49.0434 113.385C48.8023 112.998 48.4203 112.721 47.9781 112.61C47.5359 112.5 47.0681 112.566 46.6736 112.794C46.2791 113.022 45.9888 113.395 45.864 113.833C45.7393 114.272 45.7898 114.741 46.005 115.143C44.6876 115.711 43.2947 116.083 41.87 116.25C41.8582 115.793 41.6681 115.358 41.3402 115.038C41.0124 114.719 40.5727 114.54 40.1149 114.54C39.657 114.54 39.2174 114.719 38.8895 115.038C38.5616 115.358 38.3715 115.793 38.3597 116.25C36.9349 116.084 35.5419 115.711 34.2244 115.143C34.4396 114.741 34.4901 114.272 34.3654 113.833C34.2406 113.395 33.9503 113.022 33.5558 112.794C33.1613 112.566 32.6935 112.5 32.2513 112.61C31.8091 112.721 31.4271 112.998 31.186 113.385C30.0384 112.526 29.0195 111.507 28.16 110.359C28.5468 110.118 28.8247 109.736 28.935 109.294C29.0454 108.852 28.9795 108.384 28.7512 107.989C28.523 107.595 28.1503 107.305 27.712 107.18C27.2736 107.055 26.8039 107.106 26.4022 107.321C25.8345 106.003 25.4616 104.61 25.295 103.186C25.7527 103.174 26.1876 102.984 26.5071 102.656C26.8266 102.328 27.0054 101.888 27.0054 101.43C27.0054 100.973 26.8266 100.533 26.5071 100.205C26.1876 99.8771 25.7527 99.687 25.295 99.6752C25.4617 98.2502 25.8348 96.857 26.4025 95.5394C26.8043 95.7566 27.2749 95.8086 27.7145 95.6845C28.154 95.5603 28.5279 95.2697 28.7567 94.8744C28.9855 94.479 29.0511 94.0101 28.9398 93.5671C28.8284 93.1241 28.5488 92.742 28.1603 92.5019C29.02 91.354 30.0393 90.3348 31.1872 89.4752C31.4274 89.8637 31.8095 90.1434 32.2525 90.2547C32.6955 90.3661 33.1644 90.3004 33.5597 90.0716C33.9551 89.8428 34.2457 89.469 34.3698 89.0294C34.494 88.5898 34.4419 88.1192 34.2247 87.7174C35.5422 87.15 36.9352 86.7771 38.36 86.6106C38.3718 87.0682 38.5619 87.5031 38.8898 87.8226C39.2176 88.1421 39.6573 88.321 40.1151 88.321C40.5729 88.321 41.0126 88.1421 41.3405 87.8226C41.6684 87.5031 41.8585 87.0682 41.8703 86.6106C43.2951 86.7772 44.6881 87.1501 46.0056 87.7174C45.7884 88.1192 45.7363 88.5898 45.8605 89.0294C45.9846 89.469 46.2752 89.8428 46.6706 90.0716C47.0659 90.3004 47.5348 90.3661 47.9778 90.2547C48.4208 90.1434 48.8029 89.8637 49.0431 89.4752C50.1909 90.3349 51.2101 91.354 52.0697 92.5019C51.6812 92.742 51.4016 93.1241 51.2902 93.5671C51.1789 94.0101 51.2445 94.479 51.4733 94.8744C51.7021 95.2697 52.076 95.5603 52.5155 95.6845C52.9551 95.8086 53.4257 95.7566 53.8275 95.5394C54.395 96.857 54.7679 98.2502 54.9344 99.6752V99.6752Z" fill="#FF6E40"/>
<path d="M121.737 91.7832C119.829 91.7832 117.964 92.349 116.377 93.409C114.791 94.469 113.554 95.9757 112.824 97.7384C112.094 99.5012 111.903 101.441 112.275 103.312C112.647 105.184 113.566 106.902 114.915 108.252C116.265 109.601 117.984 110.519 119.855 110.892C121.726 111.264 123.666 111.073 125.429 110.343C127.191 109.612 128.698 108.376 129.758 106.789C130.818 105.203 131.384 103.338 131.384 101.43C131.381 98.8722 130.363 96.4202 128.555 94.6118C126.746 92.8033 124.294 91.7861 121.737 91.7832V91.7832ZM121.737 107.561C120.524 107.561 119.339 107.202 118.33 106.528C117.322 105.854 116.536 104.897 116.072 103.776C115.608 102.656 115.487 101.423 115.723 100.234C115.96 99.0447 116.544 97.9522 117.401 97.0947C118.259 96.2373 119.351 95.6533 120.54 95.4167C121.73 95.1801 122.963 95.3014 124.083 95.7655C125.203 96.2295 126.161 97.0153 126.835 98.0235C127.508 99.0318 127.868 100.217 127.868 101.43C127.866 103.055 127.22 104.614 126.07 105.763C124.921 106.913 123.362 107.559 121.737 107.561V107.561Z" fill="#FF6E40"/>
<path d="M139.662 43.5356L139.638 43.5119L135.608 39.5767C135.435 39.4073 135.229 39.2756 135.002 39.1899C134.775 39.1042 134.534 39.0663 134.292 39.0786L72.7289 42.1824L61.5404 30.6608C61.3587 30.4736 61.1376 30.3292 60.8932 30.238C60.6487 30.1468 60.3871 30.1111 60.1271 30.1334L22.2123 33.4264C21.7741 33.4645 21.3661 33.6654 21.0688 33.9896C20.7715 34.3138 20.6066 34.7376 20.6065 35.1775V42.2966C20.6065 42.5291 20.6526 42.7593 20.7422 42.9739C20.8318 43.1884 20.963 43.3831 21.1283 43.5466C21.2936 43.7101 21.4897 43.8391 21.7053 43.9263C21.9208 44.0135 22.1515 44.057 22.384 44.0544L54.9899 43.69L59.3259 55.2453C59.4649 55.6158 59.7249 55.9286 60.0638 56.1331C60.4027 56.3375 60.8006 56.4216 61.1933 56.3717L61.6116 56.3184L65.7355 67.8259H64.1429L63.5057 65.9679C63.3867 65.6214 63.1625 65.3208 62.8644 65.1079C62.5663 64.8951 62.2091 64.7807 61.8428 64.7808H55.8779V52.1538C55.8748 50.3987 55.1776 48.716 53.9384 47.4729C52.6992 46.2299 51.0187 45.5274 49.2636 45.5187L24.6313 45.4419H24.6261C24.336 45.4419 24.0504 45.5137 23.7947 45.6509C23.5391 45.788 23.3214 45.9863 23.1611 46.2281C23.0007 46.4699 22.9027 46.7475 22.8757 47.0364C22.8487 47.3252 22.8937 47.6163 23.0065 47.8835L29.3933 63.0089L27.1058 67.8247H10.5284C9.08121 67.8264 7.69374 68.402 6.67041 69.4253C5.64708 70.4487 5.07145 71.8361 5.06982 73.2833V87.393H4.18359C3.71739 87.393 3.27029 87.5782 2.94063 87.9079C2.61098 88.2375 2.42578 88.6846 2.42578 89.1508V96.0356C2.42578 96.5018 2.61098 96.9489 2.94063 97.2785C3.27029 97.6082 3.71739 97.7934 4.18359 97.7934H18.757C19.1397 97.7934 19.512 97.6685 19.8172 97.4377C20.1225 97.2069 20.3441 96.8828 20.4483 96.5146L22.3843 89.6782L25.8747 79.6692H52.9799L65.3637 107.409C65.5021 107.719 65.7273 107.982 66.0121 108.167C66.2969 108.352 66.6291 108.45 66.9686 108.45H81.5036C81.9698 108.45 82.4169 108.265 82.7466 107.936C83.0762 107.606 83.2614 107.159 83.2614 106.693V103.885H97.9661C98.9613 103.883 99.9173 103.496 100.634 102.805C101.35 102.114 101.771 101.173 101.808 100.178H103.343C103.313 100.593 103.295 101.01 103.295 101.431C103.292 104.475 104.043 107.473 105.481 110.157C106.918 112.841 108.998 115.127 111.534 116.811C114.07 118.496 116.983 119.526 120.014 119.811C123.045 120.095 126.1 119.625 128.905 118.441C131.71 117.258 134.179 115.399 136.091 113.03C138.002 110.66 139.298 107.854 139.861 104.863C140.425 101.871 140.239 98.7859 139.32 95.8834C138.401 92.9809 136.778 90.3509 134.596 88.2283L135.47 87.3857L138.785 91.436C139.082 91.7892 139.507 92.0112 139.967 92.0538C140.427 92.0964 140.885 91.9563 141.242 91.6637C141.6 91.3711 141.828 90.9497 141.877 90.4904C141.926 90.0311 141.792 89.5709 141.505 89.2094L126.721 71.1543L144.058 64.5672V64.8394C144.058 65.3056 144.243 65.7527 144.573 66.0824C144.903 66.412 145.35 66.5972 145.816 66.5972C146.282 66.5972 146.729 66.412 147.059 66.0824C147.388 65.7527 147.574 65.3056 147.574 64.8394V52.0024C147.574 51.768 147.527 51.536 147.436 51.32C147.345 51.104 147.212 50.9084 147.044 50.7447L139.662 43.5356ZM44.3303 49.02V61.3044L33.881 61.2962L38.6159 49.0024L44.3303 49.02ZM27.2795 48.9666L34.8524 48.9904L31.2451 58.3563L27.2795 48.9666ZM17.4278 94.2778H5.94141V90.9086H18.382L17.4278 94.2778ZM52.3623 76.1547H24.6261C24.2612 76.1547 23.9054 76.2682 23.608 76.4795C23.3105 76.6908 23.0862 76.9894 22.9661 77.3339L19.4584 87.393H8.58545V73.2845C8.58599 72.7694 8.79087 72.2755 9.15513 71.9112C9.51939 71.547 10.0133 71.3421 10.5284 71.3415H52.3623V76.1547ZM52.3623 67.8271H30.9993L32.4313 64.811L46.0866 64.8215C46.5528 64.8215 46.9999 64.6363 47.3296 64.3067C47.6592 63.977 47.8444 63.5299 47.8444 63.0637V49.0305L49.2507 49.0346C50.0759 49.0387 50.8659 49.369 51.4485 49.9534C52.031 50.5378 52.3588 51.329 52.3603 52.1541L52.3623 67.8271ZM57.8476 41.3017C57.7218 40.9668 57.4969 40.6783 57.2029 40.4746C56.9088 40.2709 56.5597 40.1618 56.202 40.1618H56.1823L24.1222 40.518V36.7894L59.6007 33.7088L70.3928 44.8226C70.6831 45.1217 71.0339 45.3553 71.4218 45.5078C71.8097 45.6604 72.2256 45.7283 72.6419 45.7071L133.702 42.6288L134.59 43.496L62.129 52.7087L57.8476 41.3017ZM97.6034 51.7434L110.196 50.1423L119.217 70.2438L107.621 74.6489L97.6034 51.7434ZM104.329 75.9004L92.7275 80.309L81.3753 53.8068L93.9694 52.2057L104.329 75.9004ZM65.1835 55.8643L77.7483 54.2667L89.4378 81.5576L83.6268 83.7655L73.7578 79.7937L65.1835 55.8643ZM55.8779 77.5369V68.2964H60.5874L64.5073 79.7222H56.8532L55.8779 77.5369ZM79.7458 104.935H68.1091L65.9856 100.178H75.8224C75.8598 101.173 76.2809 102.114 76.9972 102.805C77.7135 103.496 78.6694 103.883 79.6646 103.885H79.7449L79.7458 104.935ZM98.3001 100.035C98.2989 100.123 98.2633 100.208 98.2009 100.27C98.1385 100.332 98.0543 100.368 97.9661 100.369H79.6646C79.5765 100.368 79.4922 100.332 79.4298 100.27C79.3675 100.208 79.3319 100.123 79.3307 100.035V92.1201C79.3318 92.0318 79.3674 91.9475 79.4297 91.8852C79.4921 91.8228 79.5764 91.7872 79.6646 91.7861H97.9652C98.0535 91.7872 98.1377 91.8228 98.2001 91.8852C98.2625 91.9475 98.2981 92.0318 98.2992 92.1201L98.3001 100.035ZM133.095 94.8743C133.322 95.271 133.696 95.5628 134.137 95.6872C134.577 95.8116 135.049 95.7587 135.45 95.5399C136.018 96.8576 136.391 98.2507 136.558 99.6757C136.1 99.6875 135.665 99.8777 135.346 100.206C135.026 100.533 134.847 100.973 134.847 101.431C134.847 101.889 135.026 102.328 135.346 102.656C135.665 102.984 136.1 103.174 136.558 103.186C136.391 104.611 136.018 106.004 135.451 107.321C135.049 107.106 134.579 107.056 134.141 107.18C133.702 107.305 133.33 107.595 133.102 107.99C132.873 108.384 132.807 108.852 132.918 109.294C133.028 109.737 133.306 110.119 133.693 110.36C132.833 111.507 131.815 112.526 130.667 113.386C130.426 112.999 130.044 112.721 129.602 112.611C129.16 112.5 128.692 112.566 128.297 112.795C127.903 113.023 127.612 113.395 127.488 113.834C127.363 114.272 127.413 114.742 127.629 115.144C126.311 115.711 124.917 116.084 123.492 116.25C123.48 115.793 123.29 115.358 122.962 115.038C122.634 114.719 122.195 114.54 121.737 114.54C121.279 114.54 120.839 114.719 120.511 115.038C120.183 115.358 119.993 115.793 119.982 116.25C118.557 116.084 117.164 115.711 115.846 115.143C116.063 114.741 116.115 114.271 115.991 113.832C115.866 113.392 115.576 113.019 115.18 112.79C114.785 112.561 114.316 112.496 113.874 112.607C113.431 112.718 113.049 112.997 112.808 113.385C111.661 112.526 110.642 111.507 109.782 110.359C110.17 110.119 110.45 109.737 110.561 109.294C110.672 108.851 110.606 108.382 110.378 107.987C110.149 107.592 109.775 107.301 109.336 107.177C108.897 107.053 108.426 107.105 108.024 107.321C107.457 106.004 107.084 104.611 106.917 103.186C107.375 103.174 107.81 102.984 108.129 102.656C108.449 102.328 108.628 101.888 108.628 101.431C108.628 100.973 108.449 100.533 108.129 100.205C107.81 99.8774 107.375 99.6872 106.917 99.6754C107.084 98.2504 107.457 96.8573 108.025 95.5396C108.426 95.7568 108.897 95.8089 109.337 95.6847C109.776 95.5605 110.15 95.2699 110.379 94.8746C110.608 94.4793 110.673 94.0103 110.562 93.5674C110.451 93.1244 110.171 92.7422 109.782 92.5021C110.642 91.3541 111.661 90.3349 112.809 89.4754C113.05 89.864 113.432 90.1436 113.875 90.2549C114.318 90.3663 114.787 90.3006 115.182 90.0718C115.577 89.8431 115.868 89.4692 115.992 89.0296C116.116 88.5901 116.064 88.1194 115.847 87.7176C117.164 87.1502 118.557 86.7774 119.982 86.6108C119.994 87.0684 120.184 87.5034 120.512 87.8229C120.84 88.1424 121.28 88.3212 121.737 88.3212C122.195 88.3212 122.635 88.1424 122.963 87.8229C123.291 87.5034 123.481 87.0684 123.492 86.6108C124.917 86.7774 126.31 87.1502 127.628 87.7176C127.411 88.1194 127.358 88.5901 127.483 89.0296C127.607 89.4692 127.897 89.8431 128.293 90.0718C128.688 90.3006 129.157 90.3663 129.6 90.2549C130.043 90.1436 130.425 89.864 130.665 89.4754C131.813 90.335 132.832 91.3542 133.692 92.5021C133.304 92.7423 133.024 93.1242 132.913 93.567C132.801 94.0097 132.867 94.4786 133.095 94.8743ZM133.235 84.6567L131.833 86.0087C131.594 85.8515 131.351 85.6997 131.104 85.5535C131.058 85.5201 131.009 85.4887 130.958 85.4594L130.945 85.4626C128.497 84.0469 125.755 83.214 122.932 83.0285C120.11 82.843 117.282 83.3098 114.669 84.3928C112.056 85.4759 109.728 87.146 107.864 89.2738C106 91.4016 104.652 93.9299 103.922 96.6628H101.815V92.1201C101.813 91.0994 101.407 90.1209 100.686 89.3993C99.964 88.6776 98.9856 88.2716 97.9649 88.2705H79.6646C78.644 88.2716 77.6655 88.6776 76.9438 89.3993C76.2222 90.1209 75.8162 91.0994 75.815 92.1201V96.6628H64.4162L63.3835 94.3484H69.1339C69.6001 94.3484 70.0472 94.1632 70.3768 93.8335C70.7065 93.5039 70.8917 93.0568 70.8917 92.5906C70.8917 92.1244 70.7065 91.6773 70.3768 91.3476C70.0472 91.018 69.6001 90.8327 69.1339 90.8327H61.8141L60.837 88.6446H66.5868C67.053 88.6446 67.5001 88.4594 67.8298 88.1297C68.1594 87.8001 68.3446 87.353 68.3446 86.8868C68.3446 86.4206 68.1594 85.9734 67.8298 85.6438C67.5001 85.3141 67.053 85.1289 66.5868 85.1289H59.2673L58.4224 83.2361H66.968C67.2478 83.2361 67.5236 83.1693 67.7724 83.0413C68.0213 82.9132 68.236 82.7276 68.3986 82.4999C68.5612 82.2722 68.6672 82.0089 68.7076 81.732C68.748 81.4551 68.7217 81.1725 68.6309 80.9078L65.3496 71.3404H66.9958L70.7165 81.7214C70.8002 81.9551 70.9325 82.1683 71.1046 82.3472C71.2767 82.5261 71.4847 82.6664 71.7149 82.7591L82.9541 87.2823C83.3642 87.4473 83.8214 87.4518 84.2347 87.2949L123.258 72.4683L133.235 84.6567ZM122.511 68.9916L113.844 49.6777L126.43 48.0766L134.099 64.5874L122.511 68.9916ZM144.059 60.8046L137.395 63.3365L130.092 47.612L137.802 46.6317L144.059 52.7421V60.8046Z" fill="#FF6E40"/>
</svg>
