<svg width="154" height="153" viewBox="0 0 154 153" fill="none" xmlns="http://www.w3.org/2000/svg">
<g clip-path="url(#clip0)">
<path d="M20.7188 134.268C14.257 134.268 9 129.011 9 122.549C9 116.087 14.257 110.83 20.7188 110.83C22.0148 110.83 23.0625 111.878 23.0625 113.174C23.0625 114.47 22.0148 115.518 20.7188 115.518C16.8422 115.518 13.6875 118.672 13.6875 122.549C13.6875 126.425 16.8422 129.58 20.7188 129.58C22.0148 129.58 23.0625 130.628 23.0625 131.924C23.0625 133.22 22.0148 134.268 20.7188 134.268Z" fill="#C4C4C4"/>
<path d="M11.3438 17.0625C10.0477 17.0625 9 16.0125 9 14.7187C9 8.25703 14.257 3 20.7188 3C22.0148 3 23.0625 4.05 23.0625 5.34375C23.0625 6.6375 22.0148 7.6875 20.7188 7.6875C16.8422 7.6875 13.6875 10.8422 13.6875 14.7187C13.6875 16.0125 12.6398 17.0625 11.3438 17.0625Z" fill="#C4C4C4"/>
<path d="M20.7188 115.518C19.4227 115.518 18.375 114.471 18.375 113.175V5.3457C18.375 4.05195 19.4227 3.00195 20.7188 3.00195C22.0148 3.00195 23.0625 4.05195 23.0625 5.3457V113.175C23.0625 114.471 22.0148 115.518 20.7188 115.518Z" fill="#C4C4C4"/>
<path d="M11.3438 124.893C10.0477 124.893 9 123.846 9 122.55V14.7207C9 13.427 10.0477 12.377 11.3438 12.377C12.6398 12.377 13.6875 13.427 13.6875 14.7207V122.55C13.6875 123.846 12.6398 124.893 11.3438 124.893Z" fill="#C4C4C4"/>
<path d="M142.751 134H21.2492C20.0054 134 19 133.106 19 132C19 130.894 20.0054 130 21.2492 130H142.751C143.995 130 145 130.894 145 132C145 133.106 143.992 134 142.751 134Z" fill="#C4C4C4"/>
<path d="M151.656 35.7734C150.36 35.7734 149.312 34.7234 149.312 33.4297C149.312 29.5531 146.158 26.3984 142.281 26.3984C140.985 26.3984 139.938 25.3484 139.938 24.0547C139.938 22.7609 140.985 21.7109 142.281 21.7109C148.743 21.7109 154 26.968 154 33.4297C154 34.7234 152.952 35.7734 151.656 35.7734Z" fill="#C4C4C4"/>
<path d="M142.281 152.982C140.985 152.982 139.938 151.935 139.938 150.639C139.938 149.343 140.985 148.295 142.281 148.295C146.158 148.295 149.312 145.14 149.312 141.264C149.312 139.968 150.36 138.92 151.656 138.92C152.952 138.92 154 139.968 154 141.264C154 147.725 148.743 152.982 142.281 152.982Z" fill="#C4C4C4"/>
<path d="M142.281 152.98C140.985 152.98 139.938 151.932 139.938 150.636V131.877C139.938 130.581 140.985 129.533 142.281 129.533C143.577 129.533 144.625 130.581 144.625 131.877V150.636C144.625 151.932 143.577 152.98 142.281 152.98Z" fill="#C4C4C4"/>
<path d="M151.656 143.607C150.36 143.607 149.312 142.559 149.312 141.263V33.4297C149.312 32.1359 150.36 31.0859 151.656 31.0859C152.952 31.0859 154 32.1359 154 33.4297V141.263C154 142.559 152.952 143.607 151.656 143.607Z" fill="#C4C4C4"/>
<path d="M151.654 143.605C150.358 143.605 149.31 142.557 149.31 141.261C149.31 137.38 146.151 134.221 142.27 134.221C140.973 134.221 139.926 133.173 139.926 131.877C139.926 130.581 140.973 129.533 142.27 129.533C148.736 129.533 153.998 134.795 153.998 141.261C153.998 142.557 152.95 143.605 151.654 143.605Z" fill="#C4C4C4"/>
<path d="M23.2076 26.4031C21.9868 26.4031 21 25.3531 21 24.0594C21 22.7656 21.9868 21.7156 23.2076 21.7156L142.417 21.7109C143.638 21.7109 144.625 22.7609 144.625 24.0547C144.625 25.3484 143.638 26.3984 142.417 26.3984L23.2076 26.4031Z" fill="#C4C4C4"/>
<path d="M139.983 122.508H97.7461C96.45 122.508 95.4023 121.46 95.4023 120.164V106.102C95.4023 104.805 96.45 103.758 97.7461 103.758H139.983C141.279 103.758 142.327 104.805 142.327 106.102V120.164C142.327 121.46 141.277 122.508 139.983 122.508ZM100.09 117.82H137.639V108.445H100.09V117.82Z" fill="#C4C4C4"/>
<path d="M111.812 122.508C110.516 122.508 109.469 121.461 109.469 120.164V106.252C109.469 104.956 110.516 103.908 111.812 103.908C113.109 103.908 114.156 104.956 114.156 106.252V120.164C114.156 121.461 113.109 122.508 111.812 122.508Z" fill="#C4C4C4"/>
<path d="M139.938 115.477H111.812C110.516 115.477 109.469 114.429 109.469 113.133C109.469 111.837 110.516 110.789 111.812 110.789H139.938C141.234 110.789 142.281 111.837 142.281 113.133C142.281 114.429 141.234 115.477 139.938 115.477Z" fill="#C4C4C4"/>
<path d="M69.6391 115.477H27.4375C26.1414 115.477 25.0938 114.429 25.0938 113.133C25.0938 111.837 26.1414 110.789 27.4375 110.789H69.6391C70.9352 110.789 71.9828 111.837 71.9828 113.133C71.9828 114.429 70.9352 115.477 69.6391 115.477Z" fill="#C4C4C4"/>
<path d="M48.5242 122.514H27.4375C26.1414 122.514 25.0938 121.466 25.0938 120.17C25.0938 118.874 26.1414 117.826 27.4375 117.826H48.5242C49.8203 117.826 50.868 118.874 50.868 120.17C50.868 121.466 49.8203 122.514 48.5242 122.514Z" fill="#C4C4C4"/>
<path d="M69.6391 108.451H27.4375C26.1414 108.451 25.0938 107.403 25.0938 106.107C25.0938 104.811 26.1414 103.764 27.4375 103.764H69.6391C70.9352 103.764 71.9828 104.811 71.9828 106.107C71.9828 107.403 70.9352 108.451 69.6391 108.451Z" fill="#C4C4C4"/>
<path d="M42.6819 95.1354C41.2658 95.1354 40.1211 93.9907 40.1211 92.5746V56.26C40.1211 54.8465 41.2658 53.6992 42.6819 53.6992C44.098 53.6992 45.2427 54.8465 45.2427 56.26V92.5746C45.2427 93.9907 44.098 95.1354 42.6819 95.1354Z" fill="#C4C4C4"/>
<path d="M104.151 95.1351C102.735 95.1351 101.59 93.9904 101.59 92.5743V56.3596C101.59 54.9461 102.735 53.7988 104.151 53.7988C105.567 53.7988 106.711 54.9461 106.711 56.3596V92.5743C106.711 93.9904 105.567 95.1351 104.151 95.1351Z" fill="#C4C4C4"/>
<path d="M37.5629 51.6092C36.6718 51.6092 35.8088 51.1457 35.3376 50.3186C34.636 49.0919 35.0636 47.5273 36.2902 46.8256L72.1439 26.3393C73.3705 25.6351 74.9351 26.0627 75.6368 27.2919C76.3384 28.5185 75.9108 30.0832 74.6842 30.7848L38.8305 51.2712C38.431 51.4991 37.9931 51.6092 37.5629 51.6092Z" fill="#C4C4C4"/>
<path d="M109.267 51.6092C108.837 51.6092 108.399 51.5016 107.999 51.2712L72.1457 30.7848C70.9191 30.0832 70.4914 28.5185 71.1931 27.2919C71.8922 26.0627 73.4543 25.6351 74.686 26.3393L110.54 46.8256C111.766 47.5273 112.194 49.0919 111.492 50.3186C111.021 51.1457 110.158 51.6092 109.267 51.6092Z" fill="#C4C4C4"/>
<path d="M37.5608 61.846C36.1447 61.846 35 60.6987 35 59.2852V49.0471C35 47.6336 36.1447 46.4863 37.5608 46.4863C38.9769 46.4863 40.1216 47.6336 40.1216 49.0471V59.2852C40.1216 60.6987 38.9769 61.846 37.5608 61.846Z" fill="#C4C4C4"/>
<path d="M109.268 61.846C107.852 61.846 106.707 60.6987 106.707 59.2852V49.0471C106.707 47.6336 107.852 46.4863 109.268 46.4863C110.684 46.4863 111.829 47.6336 111.829 49.0471V59.2852C111.829 60.6987 110.684 61.846 109.268 61.846Z" fill="#C4C4C4"/>
<path d="M78.5383 95.135H68.2952C66.879 95.135 65.7344 93.9903 65.7344 92.5742V74.6487C65.7344 73.2351 66.879 72.0879 68.2952 72.0879H78.5383C79.9544 72.0879 81.0991 73.2351 81.0991 74.6487V92.5742C81.0991 93.9903 79.9544 95.135 78.5383 95.135ZM70.856 90.0134H75.9775V77.2095H70.856V90.0134Z" fill="#C4C4C4"/>
<path d="M139.922 96.7129C138.626 96.7129 137.578 95.6652 137.578 94.3691V88.5098C137.578 87.8652 137.051 87.3379 136.406 87.3379C135.762 87.3379 135.234 87.8652 135.234 88.5098C135.234 89.8059 134.187 90.8535 132.891 90.8535C131.595 90.8535 130.547 89.8059 130.547 88.5098V86.166C130.547 85.5215 130.02 84.9941 129.375 84.9941C128.73 84.9941 128.203 85.5215 128.203 86.166V88.5098C128.203 89.8059 127.155 90.8535 125.859 90.8535C124.563 90.8535 123.516 89.8059 123.516 88.5098C123.516 87.8652 122.988 87.3379 122.344 87.3379C121.699 87.3379 121.172 87.8652 121.172 88.5098V94.3691C121.172 95.6652 120.124 96.7129 118.828 96.7129C117.532 96.7129 116.484 95.6652 116.484 94.3691V88.5098C116.484 85.2777 119.112 82.6504 122.344 82.6504C123.077 82.6504 123.778 82.7863 124.427 83.0324C125.466 81.3965 127.298 80.3066 129.375 80.3066C131.452 80.3066 133.284 81.3965 134.323 83.0324C134.97 82.7863 135.673 82.6504 136.406 82.6504C139.638 82.6504 142.266 85.2777 142.266 88.5098V94.3691C142.266 95.6652 141.218 96.7129 139.922 96.7129Z" fill="#C4C4C4"/>
<path d="M139.923 96.7129H27.418C26.1219 96.7129 25.0742 95.6652 25.0742 94.3691C25.0742 93.073 26.1219 92.0254 27.418 92.0254H139.923C141.219 92.0254 142.266 93.073 142.266 94.3691C142.266 95.6652 141.219 96.7129 139.923 96.7129Z" fill="#C4C4C4"/>
<path d="M60.6307 79.7989H50.385C48.9689 79.7989 47.8242 78.6517 47.8242 77.2382V66.9924C47.8242 65.5789 48.9689 64.4316 50.385 64.4316H60.6307C62.0469 64.4316 63.1915 65.5789 63.1915 66.9924V77.2382C63.1915 78.6517 62.0469 79.7989 60.6307 79.7989ZM52.9458 74.6774H58.0699V69.5532H52.9458V74.6774Z" fill="#C4C4C4"/>
<path d="M96.4823 79.7989H86.2366C84.8205 79.7989 83.6758 78.6517 83.6758 77.2382V66.9924C83.6758 65.5789 84.8205 64.4316 86.2366 64.4316H96.4823C97.8984 64.4316 99.0431 65.5789 99.0431 66.9924V77.2382C99.0431 78.6517 97.8984 79.7989 96.4823 79.7989ZM88.7974 74.6774H93.9215V69.5532H88.7974V74.6774Z" fill="#C4C4C4"/>
<path d="M73.8074 56.1831C69.5718 56.1831 66.125 52.7363 66.125 48.5007C66.125 44.2652 69.5718 40.8184 73.8074 40.8184C78.0429 40.8184 81.4897 44.2652 81.4897 48.5007C81.4897 52.7363 78.0429 56.1831 73.8074 56.1831ZM73.8074 45.9399C72.3938 45.9399 71.2466 47.0897 71.2466 48.5007C71.2466 49.9117 72.3938 51.0615 73.8074 51.0615C75.2209 51.0615 76.3682 49.9117 76.3682 48.5007C76.3682 47.0897 75.2209 45.9399 73.8074 45.9399Z" fill="#C4C4C4"/>
<path d="M132.903 143.643H27.418C26.1219 143.643 25.0742 142.595 25.0742 141.299C25.0742 140.003 26.1219 138.955 27.418 138.955H132.903C134.199 138.955 135.247 140.003 135.247 141.299C135.247 142.595 134.199 143.643 132.903 143.643Z" fill="#C4C4C4"/>
<path d="M132.902 153.018C131.606 153.018 130.559 151.97 130.559 150.674V141.299C130.559 140.003 131.606 138.955 132.902 138.955C134.198 138.955 135.246 140.003 135.246 141.299V150.674C135.246 151.97 134.198 153.018 132.902 153.018Z" fill="#C4C4C4"/>
<path d="M132.903 153.018H27.418C26.1219 153.018 25.0742 151.97 25.0742 150.674C25.0742 149.378 26.1219 148.33 27.418 148.33H132.903C134.199 148.33 135.247 149.378 135.247 150.674C135.247 151.97 134.199 153.018 132.903 153.018Z" fill="#C4C4C4"/>
<path d="M27.4153 153.018C27.0637 153.018 26.7051 152.938 26.3699 152.772L16.9949 148.084C15.8371 147.506 15.3684 146.097 15.9473 144.939C16.5285 143.781 17.9348 143.32 19.0926 143.891L28.4676 148.579C29.6254 149.158 30.0942 150.566 29.5153 151.724C29.1028 152.545 28.2754 153.018 27.4153 153.018V153.018Z" fill="#C4C4C4"/>
<path d="M18.0458 148.331C17.1856 148.331 16.3583 147.858 15.9458 147.035C15.3692 145.877 15.838 144.469 16.9958 143.89L26.3708 139.202C27.5286 138.626 28.9348 139.092 29.5161 140.25C30.095 141.408 29.6262 142.816 28.4684 143.395L19.0934 148.083C18.7559 148.251 18.3997 148.331 18.0458 148.331V148.331Z" fill="#C4C4C4"/>
<path d="M123.527 153.018C122.231 153.018 121.184 151.97 121.184 150.674V141.299C121.184 140.003 122.231 138.955 123.527 138.955C124.823 138.955 125.871 140.003 125.871 141.299V150.674C125.871 151.97 124.823 153.018 123.527 153.018Z" fill="#C4C4C4"/>
<path d="M114.152 153.018C112.856 153.018 111.809 151.97 111.809 150.674V141.299C111.809 140.003 112.856 138.955 114.152 138.955C115.448 138.955 116.496 140.003 116.496 141.299V150.674C116.496 151.97 115.448 153.018 114.152 153.018Z" fill="#C4C4C4"/>
</g>
<g clip-path="url(#clip1)">
<path d="M16.7188 131.268C10.257 131.268 5 126.011 5 119.549C5 113.087 10.257 107.83 16.7188 107.83C18.0148 107.83 19.0625 108.878 19.0625 110.174C19.0625 111.47 18.0148 112.518 16.7188 112.518C12.8422 112.518 9.6875 115.672 9.6875 119.549C9.6875 123.425 12.8422 126.58 16.7188 126.58C18.0148 126.58 19.0625 127.628 19.0625 128.924C19.0625 130.22 18.0148 131.268 16.7188 131.268Z" fill="#FF6E40"/>
<path d="M7.34375 14.0625C6.04766 14.0625 5 13.0125 5 11.7187C5 5.25703 10.257 0 16.7188 0C18.0148 0 19.0625 1.05 19.0625 2.34375C19.0625 3.6375 18.0148 4.6875 16.7188 4.6875C12.8422 4.6875 9.6875 7.84219 9.6875 11.7187C9.6875 13.0125 8.63984 14.0625 7.34375 14.0625Z" fill="#FF6E40"/>
<path d="M16.7188 112.518C15.4227 112.518 14.375 111.471 14.375 110.175V2.3457C14.375 1.05195 15.4227 0.00195312 16.7188 0.00195312C18.0148 0.00195312 19.0625 1.05195 19.0625 2.3457V110.175C19.0625 111.471 18.0148 112.518 16.7188 112.518Z" fill="#FF6E40"/>
<path d="M7.34375 121.893C6.04766 121.893 5 120.846 5 119.55V11.7207C5 10.427 6.04766 9.37695 7.34375 9.37695C8.63984 9.37695 9.6875 10.427 9.6875 11.7207V119.55C9.6875 120.846 8.63984 121.893 7.34375 121.893Z" fill="#FF6E40"/>
<path d="M138.751 131H17.2492C16.0054 131 15 130.106 15 129C15 127.894 16.0054 127 17.2492 127H138.751C139.995 127 141 127.894 141 129C141 130.106 139.992 131 138.751 131Z" fill="#FF6E40"/>
<path d="M147.656 32.7734C146.36 32.7734 145.312 31.7234 145.312 30.4297C145.312 26.5531 142.158 23.3984 138.281 23.3984C136.985 23.3984 135.938 22.3484 135.938 21.0547C135.938 19.7609 136.985 18.7109 138.281 18.7109C144.743 18.7109 150 23.968 150 30.4297C150 31.7234 148.952 32.7734 147.656 32.7734Z" fill="#FF6E40"/>
<path d="M138.281 149.982C136.985 149.982 135.938 148.935 135.938 147.639C135.938 146.343 136.985 145.295 138.281 145.295C142.158 145.295 145.312 142.14 145.312 138.264C145.312 136.968 146.36 135.92 147.656 135.92C148.952 135.92 150 136.968 150 138.264C150 144.725 144.743 149.982 138.281 149.982Z" fill="#FF6E40"/>
<path d="M138.281 149.98C136.985 149.98 135.938 148.932 135.938 147.636V128.877C135.938 127.581 136.985 126.533 138.281 126.533C139.577 126.533 140.625 127.581 140.625 128.877V147.636C140.625 148.932 139.577 149.98 138.281 149.98Z" fill="#FF6E40"/>
<path d="M147.656 140.607C146.36 140.607 145.312 139.559 145.312 138.263V30.4297C145.312 29.1359 146.36 28.0859 147.656 28.0859C148.952 28.0859 150 29.1359 150 30.4297V138.263C150 139.559 148.952 140.607 147.656 140.607Z" fill="#FF6E40"/>
<path d="M147.654 140.605C146.358 140.605 145.31 139.557 145.31 138.261C145.31 134.38 142.151 131.221 138.27 131.221C136.973 131.221 135.926 130.173 135.926 128.877C135.926 127.581 136.973 126.533 138.27 126.533C144.736 126.533 149.998 131.795 149.998 138.261C149.998 139.557 148.95 140.605 147.654 140.605Z" fill="#FF6E40"/>
<path d="M19.2076 23.4031C17.9868 23.4031 17 22.3531 17 21.0594C17 19.7656 17.9868 18.7156 19.2076 18.7156L138.417 18.7109C139.638 18.7109 140.625 19.7609 140.625 21.0547C140.625 22.3484 139.638 23.3984 138.417 23.3984L19.2076 23.4031Z" fill="#FF6E40"/>
<path d="M135.983 119.508H93.7461C92.45 119.508 91.4023 118.46 91.4023 117.164V103.102C91.4023 101.805 92.45 100.758 93.7461 100.758H135.983C137.279 100.758 138.327 101.805 138.327 103.102V117.164C138.327 118.46 137.277 119.508 135.983 119.508ZM96.0898 114.82H133.639V105.445H96.0898V114.82Z" fill="#FF6E40"/>
<path d="M107.812 119.508C106.516 119.508 105.469 118.461 105.469 117.164V103.252C105.469 101.956 106.516 100.908 107.812 100.908C109.109 100.908 110.156 101.956 110.156 103.252V117.164C110.156 118.461 109.109 119.508 107.812 119.508Z" fill="#FF6E40"/>
<path d="M135.938 112.477H107.812C106.516 112.477 105.469 111.429 105.469 110.133C105.469 108.837 106.516 107.789 107.812 107.789H135.938C137.234 107.789 138.281 108.837 138.281 110.133C138.281 111.429 137.234 112.477 135.938 112.477Z" fill="#FF6E40"/>
<path d="M65.6391 112.477H23.4375C22.1414 112.477 21.0938 111.429 21.0938 110.133C21.0938 108.837 22.1414 107.789 23.4375 107.789H65.6391C66.9352 107.789 67.9828 108.837 67.9828 110.133C67.9828 111.429 66.9352 112.477 65.6391 112.477Z" fill="#FF6E40"/>
<path d="M44.5242 119.514H23.4375C22.1414 119.514 21.0938 118.466 21.0938 117.17C21.0938 115.874 22.1414 114.826 23.4375 114.826H44.5242C45.8203 114.826 46.868 115.874 46.868 117.17C46.868 118.466 45.8203 119.514 44.5242 119.514Z" fill="#FF6E40"/>
<path d="M65.6391 105.451H23.4375C22.1414 105.451 21.0938 104.403 21.0938 103.107C21.0938 101.811 22.1414 100.764 23.4375 100.764H65.6391C66.9352 100.764 67.9828 101.811 67.9828 103.107C67.9828 104.403 66.9352 105.451 65.6391 105.451Z" fill="#FF6E40"/>
<path d="M38.6819 92.1354C37.2658 92.1354 36.1211 90.9907 36.1211 89.5746V53.26C36.1211 51.8465 37.2658 50.6992 38.6819 50.6992C40.098 50.6992 41.2427 51.8465 41.2427 53.26V89.5746C41.2427 90.9907 40.098 92.1354 38.6819 92.1354Z" fill="#FF6E40"/>
<path d="M100.151 92.1351C98.7345 92.1351 97.5898 90.9904 97.5898 89.5743V53.3596C97.5898 51.9461 98.7345 50.7988 100.151 50.7988C101.567 50.7988 102.711 51.9461 102.711 53.3596V89.5743C102.711 90.9904 101.567 92.1351 100.151 92.1351Z" fill="#FF6E40"/>
<path d="M33.5629 48.6092C32.6718 48.6092 31.8088 48.1457 31.3376 47.3186C30.636 46.0919 31.0636 44.5273 32.2902 43.8256L68.1439 23.3393C69.3705 22.6351 70.9351 23.0627 71.6368 24.2919C72.3384 25.5185 71.9108 27.0832 70.6842 27.7848L34.8305 48.2712C34.431 48.4991 33.9931 48.6092 33.5629 48.6092Z" fill="#FF6E40"/>
<path d="M105.267 48.6092C104.837 48.6092 104.399 48.5016 103.999 48.2712L68.1457 27.7848C66.9191 27.0832 66.4914 25.5185 67.1931 24.2919C67.8922 23.0627 69.4543 22.6351 70.686 23.3393L106.54 43.8256C107.766 44.5273 108.194 46.0919 107.492 47.3186C107.021 48.1457 106.158 48.6092 105.267 48.6092Z" fill="#FF6E40"/>
<path d="M33.5608 58.846C32.1447 58.846 31 57.6987 31 56.2852V46.0471C31 44.6336 32.1447 43.4863 33.5608 43.4863C34.9769 43.4863 36.1216 44.6336 36.1216 46.0471V56.2852C36.1216 57.6987 34.9769 58.846 33.5608 58.846Z" fill="#FF6E40"/>
<path d="M105.268 58.846C103.852 58.846 102.707 57.6987 102.707 56.2852V46.0471C102.707 44.6336 103.852 43.4863 105.268 43.4863C106.684 43.4863 107.829 44.6336 107.829 46.0471V56.2852C107.829 57.6987 106.684 58.846 105.268 58.846Z" fill="#FF6E40"/>
<path d="M74.5383 92.135H64.2952C62.879 92.135 61.7344 90.9903 61.7344 89.5742V71.6487C61.7344 70.2351 62.879 69.0879 64.2952 69.0879H74.5383C75.9544 69.0879 77.0991 70.2351 77.0991 71.6487V89.5742C77.0991 90.9903 75.9544 92.135 74.5383 92.135ZM66.856 87.0134H71.9775V74.2095H66.856V87.0134Z" fill="#FF6E40"/>
<path d="M135.922 93.7129C134.626 93.7129 133.578 92.6652 133.578 91.3691V85.5098C133.578 84.8652 133.051 84.3379 132.406 84.3379C131.762 84.3379 131.234 84.8652 131.234 85.5098C131.234 86.8059 130.187 87.8535 128.891 87.8535C127.595 87.8535 126.547 86.8059 126.547 85.5098V83.166C126.547 82.5215 126.02 81.9941 125.375 81.9941C124.73 81.9941 124.203 82.5215 124.203 83.166V85.5098C124.203 86.8059 123.155 87.8535 121.859 87.8535C120.563 87.8535 119.516 86.8059 119.516 85.5098C119.516 84.8652 118.988 84.3379 118.344 84.3379C117.699 84.3379 117.172 84.8652 117.172 85.5098V91.3691C117.172 92.6652 116.124 93.7129 114.828 93.7129C113.532 93.7129 112.484 92.6652 112.484 91.3691V85.5098C112.484 82.2777 115.112 79.6504 118.344 79.6504C119.077 79.6504 119.778 79.7863 120.427 80.0324C121.466 78.3965 123.298 77.3066 125.375 77.3066C127.452 77.3066 129.284 78.3965 130.323 80.0324C130.97 79.7863 131.673 79.6504 132.406 79.6504C135.638 79.6504 138.266 82.2777 138.266 85.5098V91.3691C138.266 92.6652 137.218 93.7129 135.922 93.7129Z" fill="#FF6E40"/>
<path d="M135.923 93.7129H23.418C22.1219 93.7129 21.0742 92.6652 21.0742 91.3691C21.0742 90.073 22.1219 89.0254 23.418 89.0254H135.923C137.219 89.0254 138.266 90.073 138.266 91.3691C138.266 92.6652 137.219 93.7129 135.923 93.7129Z" fill="#FF6E40"/>
<path d="M56.6307 76.7989H46.385C44.9689 76.7989 43.8242 75.6517 43.8242 74.2382V63.9924C43.8242 62.5789 44.9689 61.4316 46.385 61.4316H56.6307C58.0469 61.4316 59.1915 62.5789 59.1915 63.9924V74.2382C59.1915 75.6517 58.0469 76.7989 56.6307 76.7989ZM48.9458 71.6774H54.0699V66.5532H48.9458V71.6774Z" fill="#FF6E40"/>
<path d="M92.4823 76.7989H82.2366C80.8205 76.7989 79.6758 75.6517 79.6758 74.2382V63.9924C79.6758 62.5789 80.8205 61.4316 82.2366 61.4316H92.4823C93.8984 61.4316 95.0431 62.5789 95.0431 63.9924V74.2382C95.0431 75.6517 93.8984 76.7989 92.4823 76.7989ZM84.7974 71.6774H89.9215V66.5532H84.7974V71.6774Z" fill="#FF6E40"/>
<path d="M69.8074 53.1831C65.5718 53.1831 62.125 49.7363 62.125 45.5007C62.125 41.2652 65.5718 37.8184 69.8074 37.8184C74.0429 37.8184 77.4897 41.2652 77.4897 45.5007C77.4897 49.7363 74.0429 53.1831 69.8074 53.1831ZM69.8074 42.9399C68.3938 42.9399 67.2466 44.0897 67.2466 45.5007C67.2466 46.9117 68.3938 48.0615 69.8074 48.0615C71.2209 48.0615 72.3682 46.9117 72.3682 45.5007C72.3682 44.0897 71.2209 42.9399 69.8074 42.9399Z" fill="#FF6E40"/>
<path d="M128.903 140.643H23.418C22.1219 140.643 21.0742 139.595 21.0742 138.299C21.0742 137.003 22.1219 135.955 23.418 135.955H128.903C130.199 135.955 131.247 137.003 131.247 138.299C131.247 139.595 130.199 140.643 128.903 140.643Z" fill="#FF6E40"/>
<path d="M128.902 150.018C127.606 150.018 126.559 148.97 126.559 147.674V138.299C126.559 137.003 127.606 135.955 128.902 135.955C130.198 135.955 131.246 137.003 131.246 138.299V147.674C131.246 148.97 130.198 150.018 128.902 150.018Z" fill="#FF6E40"/>
<path d="M128.903 150.018H23.418C22.1219 150.018 21.0742 148.97 21.0742 147.674C21.0742 146.378 22.1219 145.33 23.418 145.33H128.903C130.199 145.33 131.247 146.378 131.247 147.674C131.247 148.97 130.199 150.018 128.903 150.018Z" fill="#FF6E40"/>
<path d="M23.4153 150.018C23.0637 150.018 22.7051 149.938 22.3699 149.772L12.9949 145.084C11.8371 144.506 11.3684 143.097 11.9473 141.939C12.5285 140.781 13.9348 140.32 15.0926 140.891L24.4676 145.579C25.6254 146.158 26.0942 147.566 25.5153 148.724C25.1028 149.545 24.2754 150.018 23.4153 150.018V150.018Z" fill="#FF6E40"/>
<path d="M14.0458 145.331C13.1856 145.331 12.3583 144.858 11.9458 144.035C11.3692 142.877 11.838 141.469 12.9958 140.89L22.3708 136.202C23.5286 135.626 24.9348 136.092 25.5161 137.25C26.095 138.408 25.6262 139.816 24.4684 140.395L15.0934 145.083C14.7559 145.251 14.3997 145.331 14.0458 145.331V145.331Z" fill="#FF6E40"/>
<path d="M119.527 150.018C118.231 150.018 117.184 148.97 117.184 147.674V138.299C117.184 137.003 118.231 135.955 119.527 135.955C120.823 135.955 121.871 137.003 121.871 138.299V147.674C121.871 148.97 120.823 150.018 119.527 150.018Z" fill="#FF6E40"/>
<path d="M110.152 150.018C108.856 150.018 107.809 148.97 107.809 147.674V138.299C107.809 137.003 108.856 135.955 110.152 135.955C111.448 135.955 112.496 137.003 112.496 138.299V147.674C112.496 148.97 111.448 150.018 110.152 150.018Z" fill="#FF6E40"/>
</g>
<defs>
<clipPath id="clip0">
<rect width="150" height="150" fill="white" transform="translate(4 3)"/>
</clipPath>
<clipPath id="clip1">
<rect width="150" height="150" fill="white"/>
</clipPath>
</defs>
</svg>
