<svg width="42" height="42" viewBox="0 0 42 42" fill="none" xmlns="http://www.w3.org/2000/svg">
<path d="M5.8192 29.7101C5.33622 28.8718 4.26525 28.5831 3.42881 29.0661C2.59056 29.5473 2.30182 30.6183 2.7848 31.4547C3.39026 32.5082 4.09554 33.5179 4.87423 34.4541C5.22072 34.8688 5.71773 35.0841 6.21991 35.0841C6.61537 35.0841 7.01264 34.9511 7.33985 34.6781C8.08179 34.0586 8.18335 32.9562 7.56387 32.2142C6.91117 31.432 6.32499 30.5887 5.8192 29.7101Z" fill="#FF6E40"/>
<path d="M3.75535 24.0023C3.58563 23.0189 3.49983 22.0091 3.49983 20.9994V20.9574C3.49983 19.9915 2.7176 19.2285 1.74991 19.2285C0.783947 19.2285 0 20.0317 0 20.9993C0 22.2068 0.103274 23.4178 0.306212 24.5955C0.453208 25.4477 1.19171 26.048 2.02988 26.048C2.1261 26.048 2.22765 26.041 2.32912 26.0234C3.28114 25.859 3.9199 24.9543 3.75535 24.0023Z" fill="#FF6E40"/>
<path d="M10.4997 7.0191V10.4997C10.4997 11.4657 11.282 12.2496 12.2497 12.2496C13.2173 12.2496 13.9996 11.4657 13.9996 10.4997V3.49991C13.9996 2.53395 13.2173 1.75 12.2497 1.75H5.24991C4.28222 1.75 3.5 2.53395 3.5 3.49991C3.5 4.46588 4.28214 5.24991 5.24991 5.24991H7.2396C6.79861 5.88161 6.78984 6.73733 7.30612 7.35681C7.65261 7.76983 8.14962 7.98326 8.65008 7.98326C9.04554 7.98326 9.4428 7.8503 9.77182 7.5755C10.0063 7.37953 10.2547 7.20285 10.4997 7.0191Z" fill="#FF6E40"/>
<path d="M2.31499 16.0209C2.51449 16.0944 2.71751 16.1294 2.91872 16.1294C3.63098 16.1294 4.30115 15.6901 4.5602 14.9814C4.91021 14.0295 5.34595 13.102 5.85518 12.2235C6.34341 11.3871 6.0582 10.3161 5.22167 9.82961C4.38695 9.34663 3.31771 9.62839 2.83128 10.4648C2.21705 11.5201 1.6956 12.633 1.27561 13.774C0.942985 14.6822 1.40677 15.6884 2.31499 16.0209Z" fill="#FF6E40"/>
<path d="M17.678 3.78512C17.7778 3.78512 17.8775 3.77635 17.9808 3.75887C18.9677 3.58735 19.9827 3.49991 20.9994 3.49991H21.0204C21.9881 3.49991 22.7598 2.71596 22.7598 1.75C22.7598 0.784029 21.9671 0 20.9994 0C19.7832 0 18.5652 0.104997 17.3788 0.311462C16.4268 0.477734 15.7898 1.38243 15.9561 2.33617C16.1049 3.18656 16.8416 3.78512 17.678 3.78512Z" fill="#FF6E40"/>
<path d="M23.9839 38.2451C23.0021 38.4131 21.9994 38.4988 21.0002 38.4988H20.939C19.9713 38.4988 19.2188 39.2828 19.2188 40.2487C19.2188 41.2147 20.0325 41.9987 21.0002 41.9987C22.1971 41.9987 23.3993 41.8954 24.5753 41.6959C25.5272 41.5314 26.1677 40.6266 26.0032 39.6747C25.8423 38.7228 24.9393 38.0858 23.9839 38.2451Z" fill="#FF6E40"/>
<path d="M41.682 17.3574C41.5158 16.4071 40.6058 15.7631 39.6573 15.9364C38.7054 16.1009 38.0684 17.0074 38.2329 17.9611C38.4079 18.9586 38.4971 19.9806 38.5007 20.894C38.4989 20.9291 38.4954 21.0463 38.4954 21.0813C38.4954 22.049 39.2794 22.7892 40.2453 22.7892C41.2113 22.7892 41.997 21.965 41.997 20.999C41.997 19.7776 41.8903 18.5544 41.682 17.3574Z" fill="#FF6E40"/>
<path d="M14.9665 37.4287C14.0163 37.0805 13.0888 36.6448 12.2087 36.132C11.3739 35.6455 10.3012 35.9308 9.81646 36.7655C9.32995 37.6003 9.61171 38.6712 10.4482 39.1577C11.5034 39.772 12.6181 40.2952 13.7608 40.7152C13.9603 40.787 14.1633 40.8219 14.3628 40.8219C15.0751 40.8219 15.7452 40.3827 16.006 39.6739C16.3385 38.7674 15.8748 37.7611 14.9665 37.4287Z" fill="#FF6E40"/>
<path d="M39.6752 26.0175C38.7705 25.6867 37.7607 26.1452 37.4283 27.0517C37.0748 28.0036 36.6373 28.9311 36.1263 29.8096C35.6381 30.6443 35.9199 31.7153 36.7546 32.2018C37.0311 32.3628 37.3356 32.4397 37.6348 32.4397C38.2368 32.4397 38.823 32.13 39.1468 31.5718C39.7627 30.5201 40.2877 29.4071 40.7095 28.2661C41.0454 27.3597 40.5834 26.3534 39.6752 26.0175Z" fill="#FF6E40"/>
<path d="M36.1637 12.2546C36.4875 12.8164 37.0754 13.1296 37.6792 13.1296C37.9767 13.1296 38.2777 13.0544 38.5542 12.8934C39.3906 12.4104 39.6776 11.3394 39.1911 10.503C38.5839 9.4495 37.8769 8.44154 37.0947 7.50707C36.4752 6.76857 35.3728 6.67063 34.629 7.29183C33.8888 7.91131 33.7926 9.01549 34.4121 9.75572C35.0665 10.5361 35.6545 11.3761 36.1637 12.2546Z" fill="#FF6E40"/>
<path d="M27.0003 4.55541C27.9523 4.9019 28.8798 5.33591 29.7582 5.84515C30.0347 6.00617 30.3374 6.08139 30.6349 6.08139C31.2387 6.08139 31.8266 5.76812 32.1504 5.20992C32.6369 4.37347 32.3516 3.30251 31.5152 2.81772C30.4582 2.20521 29.3417 1.68203 28.1973 1.26549C27.2908 0.936476 26.2846 1.40371 25.9539 2.31193C25.6231 3.22015 26.0904 4.22459 27.0003 4.55541Z" fill="#FF6E40"/>
<path d="M36.7497 36.7477H34.7495C35.1712 36.1194 35.173 35.2778 34.6637 34.6688C34.046 33.9285 32.9401 33.8253 32.1981 34.4466C31.974 34.6338 31.7343 34.8035 31.4998 34.9803V31.498C31.4998 30.532 30.7176 29.748 29.7499 29.748C28.7822 29.748 28 30.532 28 31.498V38.4977C28 39.4637 28.7822 40.2476 29.7499 40.2476H36.7497C37.7173 40.2476 38.4996 39.4637 38.4996 38.4977C38.4996 37.5317 37.7173 36.7477 36.7497 36.7477Z" fill="#FF6E40"/>
<path d="M20.9997 12.25C16.1751 12.25 12.25 16.1751 12.25 20.9997C12.25 25.8243 16.1751 29.7495 20.9997 29.7495C25.8243 29.7495 29.7495 25.8243 29.7495 20.9997C29.7495 16.1751 25.8243 12.25 20.9997 12.25Z" fill="#FF6E40"/>
</svg>
