<svg width="51" height="50" viewBox="0 0 51 50" fill="none" xmlns="http://www.w3.org/2000/svg">
<path d="M36.5979 27.6726L49.9961 41.0176L45.4965 45.4993L32.0983 32.1543L36.5979 27.6726Z" fill="#FF6E40"/>
<path d="M9.01588 0.203856L22.4141 13.5488L17.8704 18.0745L4.47219 4.7295L9.01588 0.203856Z" fill="#FF6E40"/>
<path d="M2.29141 6.90068L2.39563 6.79688L16.2343 20.5804C17.9378 23.0502 19.952 25.4476 22.2396 27.7261C24.6162 30.0932 27.1178 32.1634 29.6936 33.8979L43.418 47.5679L43.1133 47.8713L43.0716 47.9114C40.2558 50.5028 35.5018 50.6887 29.6851 48.4349C24.2282 46.3204 18.3176 42.2622 13.0423 37.0078C7.70391 31.6906 3.60591 25.7422 1.50322 20.2582C0.498354 17.6374 -0.00177722 15.2409 -0.00177722 13.1462C-0.00177722 10.5518 0.765528 8.42051 2.29141 6.90068Z" fill="white"/>
<path d="M36.2678 13.6761C38.1701 15.5707 38.9385 18.2631 38.3232 20.8786L35.4643 20.2114C35.8463 18.5882 35.3704 16.9184 34.1915 15.7441C33.0128 14.5701 31.3362 14.0963 29.7066 14.4765L29.0368 11.6291C31.6625 11.0163 34.3657 11.7815 36.2678 13.6761Z" fill="#FF6E40"/>
<path d="M40.3687 9.59165C43.7425 12.952 45.1052 17.7282 44.0137 22.3679L41.1548 21.7007C42.0128 18.0533 40.9429 14.2995 38.2924 11.6597C35.6421 9.01997 31.8737 7.95435 28.2116 8.80894L27.5418 5.96138C32.1999 4.87428 36.995 6.2314 40.3687 9.59165Z" fill="#FF6E40"/>
<path d="M36.0698 0.672472C39.2253 1.5337 42.1225 3.21319 44.4479 5.52959C46.7736 7.846 48.46 10.7316 49.3246 13.8745C50.162 16.9178 50.2218 20.1534 49.4978 23.2312L46.6389 22.564C47.9181 17.1278 46.3226 11.5328 42.3717 7.59766C38.4211 3.6627 32.8039 2.07403 27.3459 3.34786L26.676 0.500304C29.7662 -0.220886 33.0145 -0.161414 36.0698 0.672472Z" fill="white"/>
</svg>
