<?xml version="1.0" standalone="no"?>
<!DOCTYPE svg PUBLIC "-//W3C//DTD SVG 20010904//EN"
 "http://www.w3.org/TR/2001/REC-SVG-20010904/DTD/svg10.dtd">
<svg version="1.0" xmlns="http://www.w3.org/2000/svg"
 width="1044.000000pt" height="1044.000000pt" viewBox="0 0 1044.000000 1044.000000"
 preserveAspectRatio="xMidYMid meet">
<metadata>
Created by potrace 1.11, written by Peter Selinger 2001-2013
</metadata>
<g transform="translate(0.000000,1044.000000) scale(0.100000,-0.100000)"
fill="#000000" stroke="none">
<path d="M2798 9074 c-2 -1 -24 -5 -51 -8 -26 -4 -58 -11 -72 -16 -14 -5 -25
-8 -25 -5 0 9 -158 -79 -195 -109 -59 -49 -155 -146 -195 -197 -19 -24 -37
-46 -40 -49 -17 -14 -110 -141 -110 -150 0 -5 -3 -10 -7 -10 -5 0 -24 -24 -43
-53 -19 -28 -37 -54 -40 -57 -21 -21 -68 -99 -63 -104 3 -3 2 -6 -3 -6 -5 0
-29 -30 -53 -67 -97 -150 -136 -208 -146 -215 -5 -4 -6 -8 -1 -8 5 0 2 -8 -6
-17 -8 -10 -46 -67 -83 -128 -38 -60 -97 -154 -132 -208 -34 -53 -63 -100 -63
-103 0 -2 -5 -10 -10 -17 -20 -23 -80 -119 -80 -128 0 -5 -4 -9 -10 -9 -5 0
-10 -7 -10 -15 0 -8 -4 -15 -10 -15 -5 0 -10 -5 -10 -10 0 -9 -103 -174 -151
-242 -10 -15 -19 -31 -19 -37 0 -5 -4 -11 -8 -13 -4 -1 -21 -25 -37 -53 -16
-27 -32 -54 -37 -60 -5 -5 -23 -32 -40 -60 -17 -27 -47 -75 -67 -105 -20 -30
-40 -63 -46 -72 -43 -72 -69 -114 -75 -118 -3 -3 -21 -30 -38 -60 -37 -62 -53
-89 -65 -104 -19 -27 -97 -147 -97 -151 0 -2 -13 -23 -29 -47 -27 -42 -95
-147 -152 -238 -16 -25 -33 -50 -39 -57 -5 -7 -10 -14 -10 -17 0 -3 -13 -24
-28 -48 -16 -24 -64 -99 -108 -168 -43 -69 -81 -127 -84 -130 -3 -3 -14 -21
-24 -40 -10 -19 -28 -45 -40 -58 -23 -26 -29 -103 -8 -110 7 -2 19 -10 26 -18
23 -22 157 -68 239 -80 188 -28 509 -23 657 11 14 3 41 8 60 11 19 3 46 9 60
14 14 5 49 14 77 20 29 7 53 16 53 22 0 5 4 7 9 3 24 -14 277 107 376 180 80
59 205 177 205 194 0 6 4 11 9 11 7 0 19 28 19 47 0 3 4 9 9 12 10 6 83 128
83 137 0 3 15 29 33 57 44 70 69 117 63 117 -3 0 3 10 14 23 10 12 18 25 17
28 -1 4 5 15 13 25 9 11 26 39 40 64 13 25 26 47 29 50 5 5 40 66 80 145 9 16
19 32 22 35 9 7 47 83 47 94 0 5 4 12 9 15 9 6 39 54 78 126 12 22 32 58 45
80 26 46 68 120 84 150 6 11 13 22 16 25 3 3 12 19 20 35 8 17 18 32 21 35 3
3 23 39 45 80 21 41 42 77 45 80 3 3 20 30 36 61 17 31 58 103 91 160 33 57
70 122 82 144 12 22 64 114 116 205 51 91 93 169 93 174 0 5 4 12 9 15 11 7
102 159 102 171 0 5 3 10 8 12 4 2 20 22 35 44 68 100 151 154 244 160 17 1
39 4 47 7 9 4 16 2 16 -3 0 -5 12 -5 29 0 16 4 32 5 36 2 4 -4 716 -7 1583 -8
867 0 1604 -4 1637 -9 33 -4 69 -9 80 -10 11 -2 46 -10 77 -18 31 -8 59 -12
62 -9 3 3 6 1 6 -4 0 -6 17 -16 38 -24 107 -38 202 -134 317 -320 46 -74 88
-140 94 -146 5 -7 7 -15 4 -18 -4 -3 -2 -6 4 -6 6 0 16 -13 23 -30 8 -19 20
-31 34 -32 34 -2 40 -3 51 -9 8 -5 87 -5 118 0 12 2 8 21 -12 49 -38 56 -111
172 -111 177 0 3 -5 11 -10 18 -16 18 -168 258 -182 287 -7 14 -15 27 -18 30
-8 6 -112 173 -125 200 -5 11 -13 20 -17 20 -5 0 -8 7 -8 15 0 8 -4 15 -10 15
-5 0 -10 5 -10 11 0 6 -13 30 -30 54 -16 24 -30 46 -30 49 0 7 -101 159 -114
171 -53 50 -206 152 -206 137 0 -4 -4 -2 -8 4 -4 6 -38 22 -77 37 -97 35 -108
39 -125 43 -181 38 -85 36 -2047 39 -1030 1 -1874 1 -1875 -1z"/>
<path d="M5219 6263 c-16 -4 -25 -18 -82 -123 -19 -36 -46 -85 -59 -110 -14
-25 -42 -76 -64 -115 -21 -38 -42 -72 -46 -73 -5 -2 -6 -7 -3 -12 3 -5 0 -14
-7 -22 -7 -7 -24 -33 -37 -58 -20 -37 -189 -323 -226 -381 -5 -9 -19 -32 -29
-50 -10 -19 -45 -74 -77 -123 -33 -48 -59 -90 -59 -92 0 -2 -28 -45 -62 -96
-35 -51 -67 -101 -73 -110 -5 -9 -39 -58 -74 -110 -93 -135 -105 -151 -116
-164 -5 -6 -17 -22 -25 -34 -8 -12 -21 -28 -27 -36 -7 -7 -13 -15 -13 -18 0
-3 -6 -14 -14 -23 -8 -10 -56 -72 -106 -138 -51 -66 -98 -125 -106 -131 -8 -6
-14 -14 -14 -18 0 -7 -109 -139 -234 -281 -75 -86 -391 -403 -466 -468 -30
-27 -64 -56 -75 -66 -28 -24 -204 -163 -235 -184 -238 -164 -345 -224 -605
-337 -31 -13 -199 -68 -226 -74 -222 -45 -264 -50 -424 -50 -146 1 -258 14
-367 42 -21 5 -38 8 -38 5 0 -3 -6 -1 -13 4 -6 6 -25 14 -42 18 -16 5 -34 9
-40 11 -53 15 -64 14 -84 -14 l-20 -28 69 -110 c38 -60 73 -114 79 -121 6 -7
11 -15 11 -17 0 -9 184 -281 192 -284 4 -2 8 -9 8 -16 0 -7 9 -21 20 -31 11
-10 20 -24 20 -31 0 -7 3 -14 8 -16 4 -1 28 -32 54 -68 26 -36 51 -69 55 -75
5 -5 24 -30 43 -55 19 -25 38 -49 43 -55 61 -79 153 -183 236 -266 163 -163
298 -243 451 -267 50 -8 4892 -7 4970 1 36 3 76 9 90 11 14 3 39 9 55 12 17 3
36 11 44 18 8 6 15 9 15 6 4 -16 211 103 253 146 8 8 19 14 24 14 5 0 9 7 9
15 0 8 4 15 9 15 16 0 123 113 204 215 105 133 174 227 189 261 6 13 14 24 18
24 3 0 19 23 35 50 16 27 33 50 37 50 4 0 8 5 8 11 0 6 14 30 30 54 17 24 30
48 30 53 0 5 9 17 20 27 11 10 20 21 20 25 0 7 110 193 127 215 8 11 29 48 68
117 11 21 53 94 93 163 39 69 72 129 72 135 0 5 3 10 8 10 4 0 18 24 32 53 14
28 28 54 31 57 5 5 69 122 125 230 16 30 31 57 34 60 3 3 12 18 20 35 8 16 33
64 56 105 22 41 63 118 90 170 27 52 51 97 54 100 3 3 23 41 46 85 22 44 73
143 114 220 158 302 190 364 241 465 29 58 58 112 64 120 7 8 18 31 25 50 7
19 20 43 28 53 8 9 12 17 7 17 -4 0 -3 6 3 13 6 6 58 107 117 222 59 116 111
214 116 219 5 6 9 18 9 27 0 10 3 19 8 21 4 2 84 156 179 343 94 187 190 376
212 420 46 90 48 98 23 123 -17 17 -40 18 -269 18 -256 -1 -283 -5 -283 -42 0
-7 -6 -19 -13 -26 -7 -7 -18 -24 -24 -38 -7 -14 -25 -47 -41 -75 -16 -27 -39
-68 -52 -90 -232 -413 -364 -554 -541 -582 -52 -8 -270 -7 -305 1 -44 11 -41
47 14 143 27 48 63 113 79 143 17 30 66 116 108 190 42 74 90 158 105 185 15
28 37 67 49 88 28 50 28 85 -1 96 -13 4 -132 7 -265 7 -277 -1 -255 6 -312
-98 -82 -152 -95 -174 -107 -189 -8 -8 -14 -19 -14 -22 0 -8 -150 -259 -159
-267 -3 -3 -23 -30 -44 -61 -88 -131 -201 -215 -306 -225 -91 -10 -290 -2
-313 12 -25 16 -26 42 -4 85 33 64 88 162 96 174 5 6 20 33 35 60 15 28 82
146 148 264 117 207 120 214 106 240 l-15 26 -249 1 c-138 0 -258 -2 -267 -4
-16 -4 -78 -107 -191 -317 -12 -22 -24 -42 -27 -45 -5 -5 -89 -144 -100 -165
-21 -42 -117 -169 -157 -208 -103 -101 -184 -126 -388 -122 -71 2 -137 6 -147
10 -31 13 -29 47 10 115 20 36 39 70 41 75 2 6 30 55 61 110 56 98 70 122 155
275 23 41 53 93 65 115 56 99 62 113 51 133 -6 11 -21 22 -33 25 -13 2 -130 4
-262 3 l-238 -1 -22 -27 c-12 -15 -37 -58 -56 -95 -19 -38 -38 -70 -41 -73 -3
-3 -28 -45 -55 -93 -51 -93 -54 -98 -93 -162 -37 -61 -114 -176 -136 -204 -46
-56 -91 -107 -103 -114 -7 -5 -20 -16 -30 -26 -18 -19 -95 -49 -152 -59 -71
-12 -239 -5 -301 14 -9 2 -21 15 -26 27 -9 19 -2 37 43 116 30 52 54 96 54 98
0 2 10 20 23 41 13 20 37 62 54 92 16 30 39 71 50 90 11 19 34 60 50 90 17 30
53 93 80 140 49 84 56 111 33 134 -7 7 -91 11 -263 11 -139 1 -259 -1 -268 -2z"/>
<path d="M3950 5535 c-258 -131 -720 -359 -730 -361 -3 0 -43 -19 -90 -41
-122 -58 -184 -87 -190 -88 -3 0 -32 -13 -65 -28 -80 -37 -113 -53 -155 -71
-19 -8 -58 -24 -85 -36 -187 -81 -612 -245 -685 -265 -8 -2 -49 -15 -90 -28
-106 -35 -270 -85 -300 -91 -14 -3 -79 -19 -145 -36 -66 -17 -135 -32 -153
-35 -18 -2 -36 -7 -41 -9 -5 -3 -32 -8 -61 -11 -29 -3 -55 -7 -59 -9 -4 -3
-27 -7 -51 -10 -25 -2 -76 -8 -115 -13 -82 -9 -482 -8 -540 2 -22 4 -58 11
-80 16 -22 6 -47 11 -55 11 -8 1 -56 16 -106 33 -70 25 -96 30 -110 22 -29
-16 -44 -34 -44 -53 0 -9 55 -105 123 -213 67 -107 124 -200 127 -206 3 -5 58
-89 122 -187 64 -97 122 -187 129 -199 6 -13 16 -28 21 -33 5 -6 55 -83 112
-170 85 -130 111 -163 142 -178 66 -32 220 -82 292 -94 12 -2 34 -6 50 -9 15
-4 41 -8 57 -10 45 -6 263 -6 288 0 12 3 40 7 62 9 101 10 314 69 440 121 150
62 330 159 475 255 163 108 207 140 340 255 62 54 374 368 450 454 41 46 84
94 95 106 11 13 34 40 50 61 17 21 35 42 41 48 8 9 159 198 227 286 42 53 136
182 205 280 45 63 85 120 89 125 41 53 307 463 316 487 6 16 -15 49 -31 48 -4
-1 -126 -61 -272 -135z"/>
</g>
</svg>
