<svg width="50" height="50" viewBox="0 0 50 50" fill="none" xmlns="http://www.w3.org/2000/svg">
<path d="M36.5973 27.6719L49.9955 41.0169L45.4959 45.4986L32.0977 32.1536L36.5973 27.6719Z" fill="#29434E"/>
<path d="M9.01635 0.203125L22.4146 13.5481L17.8709 18.0738L4.47266 4.72877L9.01635 0.203125Z" fill="#29434E"/>
<path d="M2.29319 6.90068L2.39741 6.79688L16.2361 20.5804C17.9396 23.0502 19.9538 25.4476 22.2414 27.7261C24.618 30.0932 27.1196 32.1634 29.6954 33.8979L43.4198 47.5679L43.1151 47.8713L43.0734 47.9114C40.2576 50.5028 35.5036 50.6887 29.6869 48.4349C24.23 46.3204 18.3194 42.2622 13.0441 37.0078C7.70569 31.6906 3.60769 25.7422 1.505 20.2582C0.500131 17.6374 0 15.2409 0 13.1462C0 10.5518 0.767305 8.42051 2.29319 6.90068Z" fill="#FF6E40"/>
</svg>
