<svg width="384" height="197" viewBox="0 0 384 197" fill="none" xmlns="http://www.w3.org/2000/svg">
<path d="M342.552 197H19.4484C14.2922 196.994 9.34883 194.938 5.70283 191.282C2.05682 187.627 0.00590963 182.67 0 177.501V35.5001C0.00577009 30.3302 2.05662 25.3737 5.70263 21.718C9.34865 18.0622 14.2921 16.0059 19.4484 16H342.552C347.708 16.0059 352.651 18.0622 356.297 21.718C359.943 25.3737 361.994 30.3302 362 35.5001V177.501C361.994 182.67 359.943 187.627 356.297 191.282C352.651 194.938 347.708 196.994 342.552 197V197Z" fill="#E6E6E6"/>
<path d="M363.824 182H40.1756C34.8266 181.994 29.6984 179.869 25.916 176.091C22.1337 172.313 20.0061 167.191 20 161.849V20.1515C20.0061 14.8088 22.1337 9.68667 25.916 5.90885C29.6984 2.13103 34.8266 0.00600803 40.1756 0H363.824C369.173 0.00599328 374.302 2.13101 378.084 5.90883C381.866 9.68665 383.994 14.8088 384 20.1515V161.849C383.994 167.191 381.866 172.313 378.084 176.091C374.302 179.869 369.173 181.994 363.824 182V182ZM40.1756 2.77503C35.5632 2.78025 31.1412 4.61265 27.8797 7.87022C24.6182 11.1278 22.7836 15.5445 22.7783 20.1515V161.849C22.7836 166.455 24.6182 170.872 27.8797 174.13C31.1412 177.387 35.5632 179.22 40.1756 179.225H363.824C368.437 179.22 372.859 177.387 376.12 174.13C379.382 170.872 381.216 166.455 381.222 161.849V20.1515C381.216 15.5445 379.382 11.1278 376.12 7.87022C372.859 4.61265 368.437 2.78025 363.824 2.77503H40.1756Z" fill="#29434E"/>
</svg>
