<svg width="2106" height="1080" viewBox="0 0 2106 1080" fill="none" xmlns="http://www.w3.org/2000/svg">
<path d="M1877.95 1080H106.62C78.3531 1079.97 51.2525 1068.7 31.2642 1048.66C11.276 1028.61 0.0323979 1001.44 0 973.1V194.621C0.031633 166.278 11.2749 139.106 31.2632 119.064C51.2515 99.0225 78.3525 87.749 106.62 87.7168H1877.95C1906.22 87.749 1933.32 99.0225 1953.31 119.064C1973.29 139.106 1984.54 166.278 1984.57 194.621V973.1C1984.54 1001.44 1973.29 1028.61 1953.3 1048.66C1933.32 1068.7 1906.22 1079.97 1877.95 1080V1080Z" fill="#FF6E40"/>
<path d="M1994.57 997.766H220.252C190.927 997.733 162.813 986.084 142.077 965.373C121.342 944.662 109.678 916.581 109.645 887.291V110.475C109.678 81.1852 121.342 53.1046 142.077 32.3937C162.813 11.6828 190.927 0.0329374 220.252 0H1994.57C2023.89 0.0328566 2052.01 11.6827 2072.74 32.3936C2093.48 53.1045 2105.14 81.1851 2105.18 110.475V887.291C2105.14 916.581 2093.48 944.662 2072.74 965.373C2052.01 986.084 2023.89 997.734 1994.57 997.766V997.766ZM220.252 15.2133C194.966 15.242 170.723 25.2876 152.843 43.1464C134.963 61.0052 124.905 85.2188 124.876 110.475V887.291C124.905 912.548 134.963 936.761 152.843 954.62C170.723 972.479 194.966 982.524 220.252 982.553H1994.57C2019.86 982.524 2044.1 972.479 2061.98 954.62C2079.86 936.761 2089.92 912.548 2089.95 887.291V110.475C2089.92 85.2187 2079.86 61.0052 2061.98 43.1464C2044.1 25.2876 2019.86 15.242 1994.57 15.2133H220.252Z" fill="#29434E"/>
</svg>
