<svg width="272" height="330" viewBox="0 0 272 330" fill="none" xmlns="http://www.w3.org/2000/svg">
<path d="M268.387 269.826H241.602L224.285 287.107L220.797 307.87L193.139 311.351L165.358 290.589H116.77L89.1133 311.351L61.3317 328.632L32.8019 330L33.0513 322.416L35.169 317.816L34.6709 309.983L25.5767 259.631L22.7108 252.047L20.8425 215.744L22.5861 205.052L27.5697 179.316L22.9602 172.478L18.4754 167.878L12.6196 163.403L11 162.781L13.7412 160.294L17.8519 158.057L24.7045 157.435L38.6577 158.927L47.2539 159.424L51.2406 159.176L59.338 157.684L84.5038 148.235L90.2349 144.381L106.306 127.472L110.417 122.748L118.889 105.591L122.751 95.6447L123.623 89.5527L116.023 61.5793L114.403 58.0982L111.538 55.363L109.42 52.0062L110.168 44.4222L112.161 39.4492L115.649 34.1032L123.498 34.9734L138.822 36.2167L171.462 7L173.704 30.4977L193.389 47.9034L197.001 51.2602L201.985 60.9577L203.604 66.055L203.106 78.3634L204.227 84.8283L205.847 90.1744L208.463 94.5258L236.37 103.602L247.333 105.467L247.084 110.937L245.464 114.418L238.985 118.396L235.373 121.505L233.628 126.105L235.996 131.575L239.734 135.429L243.969 140.527L246.834 170.862L249.326 174.965L253.063 179.938L254.683 183.295L255.929 187.771L255.555 192.246L254.31 201.944L254.932 211.517L255.68 220.22L259.916 235.885L268.636 255.031L272 261.869L268.387 269.826Z" fill="#29434E"/>
<path d="M155.936 266.298C198.369 266.298 232.767 235.219 232.767 196.882C232.767 158.544 198.369 127.465 155.936 127.465C113.504 127.465 79.1055 158.544 79.1055 196.882C79.1055 235.219 113.504 266.298 155.936 266.298Z" fill="white"/>
<path d="M156.35 272C140.261 272 124.532 267.689 111.154 259.613C97.7765 251.537 87.3497 240.058 81.1925 226.627C75.0353 213.197 73.4242 198.418 76.5632 184.161C79.7021 169.903 87.4499 156.807 98.8269 146.528C110.204 136.249 124.699 129.248 140.48 126.412C156.26 123.576 172.617 125.032 187.481 130.595C202.346 136.158 215.051 145.579 223.99 157.666C232.929 169.753 237.7 183.963 237.7 198.5C237.676 217.987 229.097 236.669 213.846 250.448C198.596 264.227 177.918 271.978 156.35 272ZM156.35 133.167C142.048 133.167 128.068 136.998 116.176 144.177C104.285 151.356 95.0164 161.56 89.5433 173.498C84.0703 185.436 82.6383 198.572 85.4284 211.246C88.2185 223.919 95.1055 235.561 105.218 244.698C115.331 253.835 128.216 260.057 142.243 262.578C156.27 265.099 170.809 263.805 184.022 258.86C197.236 253.915 208.529 245.541 216.475 234.797C224.42 224.053 228.661 211.422 228.661 198.5C228.64 181.179 221.014 164.572 207.458 152.324C193.901 140.076 175.522 133.186 156.35 133.167V133.167Z" fill="#29434E"/>
<path d="M113.774 201.616L110.038 190.369C109.761 189.655 109.466 188.819 109.152 187.861C108.839 186.884 108.525 185.831 108.211 184.704C107.935 185.85 107.639 186.912 107.326 187.889C107.012 188.866 106.717 189.712 106.44 190.426L102.732 201.616H113.774ZM128.634 217.316H121.384C120.572 217.316 119.917 217.128 119.419 216.752C118.921 216.357 118.543 215.859 118.284 215.258L115.904 208.099H100.573L98.1935 215.258C97.9906 215.784 97.6216 216.263 97.0866 216.696C96.57 217.109 95.9243 217.316 95.1495 217.316H87.8438L103.451 176.248H113.026L128.634 217.316Z" fill="#29434E"/>
<path d="M140.502 192.596C141.388 191.018 142.403 189.777 143.547 188.875C144.709 187.973 146.037 187.522 147.532 187.522C148.823 187.522 149.875 187.832 150.686 188.453L150.133 194.879C150.041 195.293 149.884 195.574 149.662 195.725C149.459 195.875 149.173 195.95 148.804 195.95C148.657 195.95 148.463 195.941 148.223 195.922C147.984 195.903 147.734 195.884 147.476 195.866C147.218 195.828 146.95 195.8 146.674 195.781C146.415 195.744 146.176 195.725 145.954 195.725C144.7 195.725 143.694 196.063 142.938 196.739C142.2 197.416 141.573 198.355 141.056 199.558V217.316H132.477V188.086H137.569C137.993 188.086 138.344 188.124 138.621 188.199C138.916 188.274 139.156 188.396 139.34 188.565C139.543 188.716 139.691 188.922 139.783 189.185C139.894 189.449 139.986 189.768 140.06 190.144L140.502 192.596Z" fill="#29434E"/>
<path d="M164.043 188.086V217.316H155.465V188.086H164.043ZM164.929 180.081C164.929 180.776 164.791 181.434 164.514 182.054C164.237 182.656 163.859 183.191 163.379 183.661C162.9 184.112 162.337 184.478 161.691 184.76C161.064 185.023 160.39 185.155 159.671 185.155C158.97 185.155 158.315 185.023 157.706 184.76C157.097 184.478 156.553 184.112 156.073 183.661C155.612 183.191 155.243 182.656 154.967 182.054C154.708 181.434 154.579 180.776 154.579 180.081C154.579 179.367 154.708 178.7 154.967 178.08C155.243 177.46 155.612 176.915 156.073 176.445C156.553 175.975 157.097 175.609 157.706 175.346C158.315 175.083 158.97 174.951 159.671 174.951C160.39 174.951 161.064 175.083 161.691 175.346C162.337 175.609 162.9 175.975 163.379 176.445C163.859 176.915 164.237 177.46 164.514 178.08C164.791 178.7 164.929 179.367 164.929 180.081Z" fill="#29434E"/>
<path d="M192.774 195.02C192.516 195.34 192.266 195.593 192.027 195.781C191.787 195.969 191.446 196.063 191.003 196.063C190.578 196.063 190.191 195.96 189.84 195.753C189.508 195.546 189.13 195.321 188.706 195.076C188.282 194.813 187.783 194.578 187.211 194.372C186.64 194.165 185.929 194.062 185.081 194.062C184.029 194.062 183.116 194.259 182.341 194.654C181.585 195.048 180.957 195.612 180.459 196.345C179.961 197.078 179.592 197.98 179.352 199.051C179.112 200.103 178.993 201.296 178.993 202.63C178.993 205.43 179.518 207.582 180.57 209.085C181.64 210.589 183.107 211.34 184.97 211.34C185.966 211.34 186.75 211.218 187.322 210.974C187.913 210.711 188.411 210.429 188.817 210.128C189.222 209.809 189.591 209.517 189.923 209.254C190.274 208.991 190.708 208.86 191.224 208.86C191.907 208.86 192.423 209.113 192.774 209.621L195.264 212.749C194.379 213.783 193.447 214.629 192.469 215.286C191.492 215.925 190.486 216.433 189.453 216.808C188.438 217.165 187.414 217.41 186.381 217.541C185.348 217.692 184.343 217.767 183.365 217.767C181.612 217.767 179.933 217.428 178.328 216.752C176.742 216.076 175.34 215.098 174.122 213.821C172.923 212.524 171.964 210.936 171.244 209.057C170.543 207.178 170.192 205.036 170.192 202.63C170.192 200.526 170.497 198.562 171.106 196.739C171.733 194.898 172.646 193.31 173.845 191.976C175.063 190.623 176.557 189.561 178.328 188.791C180.118 188.02 182.184 187.635 184.527 187.635C186.778 187.635 188.752 188.002 190.449 188.734C192.147 189.467 193.678 190.538 195.043 191.948L192.774 195.02Z" fill="#29434E"/>
<path d="M215.069 205.421C213.353 205.496 211.942 205.646 210.835 205.872C209.728 206.097 208.852 206.379 208.206 206.718C207.56 207.056 207.108 207.441 206.85 207.873C206.61 208.305 206.49 208.775 206.49 209.283C206.49 210.278 206.758 210.983 207.293 211.397C207.828 211.791 208.612 211.988 209.645 211.988C210.752 211.988 211.72 211.791 212.551 211.397C213.381 211.002 214.22 210.363 215.069 209.48V205.421ZM199.627 192.145C201.361 190.585 203.28 189.43 205.383 188.678C207.505 187.908 209.774 187.522 212.191 187.522C213.925 187.522 215.484 187.814 216.868 188.396C218.27 188.96 219.451 189.759 220.41 190.792C221.388 191.807 222.135 193.019 222.651 194.428C223.168 195.837 223.426 197.378 223.426 199.051V217.316H219.497C218.685 217.316 218.067 217.203 217.643 216.977C217.237 216.752 216.895 216.282 216.619 215.568L216.01 213.962C215.29 214.582 214.599 215.127 213.934 215.596C213.27 216.066 212.578 216.47 211.859 216.808C211.158 217.128 210.401 217.363 209.59 217.513C208.796 217.682 207.911 217.767 206.933 217.767C205.623 217.767 204.433 217.598 203.363 217.259C202.293 216.902 201.38 216.386 200.624 215.709C199.886 215.033 199.314 214.196 198.908 213.2C198.502 212.186 198.299 211.021 198.299 209.705C198.299 208.653 198.557 207.591 199.074 206.52C199.59 205.43 200.485 204.444 201.758 203.561C203.031 202.659 204.747 201.907 206.905 201.306C209.064 200.704 211.785 200.366 215.069 200.291V199.051C215.069 197.341 214.718 196.11 214.017 195.358C213.335 194.588 212.357 194.203 211.084 194.203C210.069 194.203 209.239 194.315 208.593 194.541C207.948 194.766 207.367 195.02 206.85 195.302C206.352 195.584 205.863 195.837 205.383 196.063C204.904 196.288 204.332 196.401 203.668 196.401C203.077 196.401 202.579 196.251 202.173 195.95C201.767 195.65 201.435 195.293 201.177 194.879L199.627 192.145Z" fill="#29434E"/>
<path d="M257.387 262.826H230.602L213.285 280.107L209.797 300.87L182.139 304.351L154.358 283.589H105.77L78.1133 304.351L50.3317 321.632L21.8019 323L22.0513 315.416L24.169 310.816L23.6709 302.983L14.5767 252.631L11.7108 245.047L9.84249 208.744L11.5861 198.052L16.5697 172.316L11.9602 165.478L7.47539 160.878L1.61963 156.403L0 155.781L2.74121 153.294L6.85187 151.057L13.7045 150.435L27.6577 151.927L36.2539 152.424L40.2406 152.176L48.338 150.684L73.5038 141.235L79.2349 137.381L95.3057 120.472L99.4172 115.748L107.889 98.5908L111.751 88.6447L112.623 82.5527L105.023 54.5793L103.403 51.0982L100.538 48.363L98.4203 45.0062L99.1678 37.4222L101.161 32.4492L104.649 27.1032L112.498 27.9734L127.822 29.2167L160.462 0L162.704 23.4977L182.389 40.9034L186.001 44.2602L190.985 53.9577L192.604 59.055L192.106 71.3634L193.227 77.8283L194.847 83.1744L197.463 87.5258L225.37 96.6016L236.333 98.4665L236.084 103.937L234.464 107.418L227.985 111.396L224.373 114.505L222.628 119.105L224.996 124.575L228.734 128.429L232.969 133.527L235.834 163.862L238.326 167.965L242.063 172.938L243.683 176.295L244.929 180.771L244.555 185.246L243.31 194.944L243.932 204.517L244.68 213.22L248.916 228.885L257.636 248.031L261 254.869L257.387 262.826Z" fill="#FF6E40"/>
<path d="M144.936 259.298C187.369 259.298 221.767 228.219 221.767 189.882C221.767 151.544 187.369 120.465 144.936 120.465C102.504 120.465 68.1055 151.544 68.1055 189.882C68.1055 228.219 102.504 259.298 144.936 259.298Z" fill="white"/>
<path d="M145.35 265C129.261 265 113.532 260.689 100.154 252.613C86.7765 244.537 76.3497 233.058 70.1925 219.627C64.0353 206.197 62.4242 191.418 65.5632 177.161C68.7021 162.903 76.4499 149.807 87.8269 139.528C99.2039 129.249 113.699 122.248 129.48 119.412C145.26 116.576 161.617 118.032 176.481 123.595C191.346 129.158 204.051 138.579 212.99 150.666C221.929 162.753 226.7 176.963 226.7 191.5C226.676 210.987 218.097 229.669 202.846 243.448C187.596 257.227 166.918 264.978 145.35 265ZM145.35 126.167C131.048 126.167 117.068 129.998 105.176 137.177C93.2847 144.356 84.0164 154.56 78.5433 166.498C73.0703 178.436 71.6383 191.572 74.4284 204.246C77.2185 216.919 84.1055 228.561 94.2184 237.698C104.331 246.835 117.216 253.057 131.243 255.578C145.27 258.099 159.809 256.805 173.022 251.86C186.236 246.915 197.529 238.541 205.475 227.797C213.42 217.053 217.661 204.422 217.661 191.5C217.64 174.179 210.014 157.572 196.458 145.324C182.901 133.076 164.522 126.186 145.35 126.167V126.167Z" fill="#29434E"/>
<path d="M102.774 194.616L99.0377 183.369C98.761 182.655 98.4658 181.819 98.1522 180.861C97.8385 179.884 97.5249 178.831 97.2113 177.704C96.9345 178.85 96.6394 179.912 96.3257 180.889C96.0121 181.866 95.7169 182.712 95.4402 183.426L91.732 194.616H102.774ZM117.634 210.316H110.384C109.572 210.316 108.917 210.128 108.419 209.752C107.921 209.357 107.543 208.859 107.284 208.258L104.904 201.099H89.5734L87.1935 208.258C86.9906 208.784 86.6216 209.263 86.0866 209.696C85.57 210.109 84.9243 210.316 84.1495 210.316H76.8438L92.4515 169.248H102.026L117.634 210.316Z" fill="#FF6E40"/>
<path d="M129.502 185.596C130.388 184.018 131.403 182.777 132.547 181.875C133.709 180.973 135.037 180.522 136.532 180.522C137.823 180.522 138.875 180.832 139.686 181.453L139.133 187.879C139.041 188.293 138.884 188.574 138.662 188.725C138.459 188.875 138.173 188.95 137.804 188.95C137.657 188.95 137.463 188.941 137.223 188.922C136.984 188.903 136.734 188.884 136.476 188.866C136.218 188.828 135.95 188.8 135.674 188.781C135.415 188.744 135.176 188.725 134.954 188.725C133.7 188.725 132.694 189.063 131.938 189.739C131.2 190.416 130.573 191.355 130.056 192.558V210.316H121.477V181.086H126.569C126.993 181.086 127.344 181.124 127.621 181.199C127.916 181.274 128.156 181.396 128.34 181.565C128.543 181.716 128.691 181.922 128.783 182.185C128.894 182.449 128.986 182.768 129.06 183.144L129.502 185.596Z" fill="#FF6E40"/>
<path d="M153.043 181.086V210.316H144.465V181.086H153.043ZM153.929 173.081C153.929 173.776 153.791 174.434 153.514 175.054C153.237 175.656 152.859 176.191 152.379 176.661C151.9 177.112 151.337 177.478 150.691 177.76C150.064 178.023 149.39 178.155 148.671 178.155C147.97 178.155 147.315 178.023 146.706 177.76C146.097 177.478 145.553 177.112 145.073 176.661C144.612 176.191 144.243 175.656 143.967 175.054C143.708 174.434 143.579 173.776 143.579 173.081C143.579 172.367 143.708 171.7 143.967 171.08C144.243 170.46 144.612 169.915 145.073 169.445C145.553 168.975 146.097 168.609 146.706 168.346C147.315 168.083 147.97 167.951 148.671 167.951C149.39 167.951 150.064 168.083 150.691 168.346C151.337 168.609 151.9 168.975 152.379 169.445C152.859 169.915 153.237 170.46 153.514 171.08C153.791 171.7 153.929 172.367 153.929 173.081Z" fill="#FF6E40"/>
<path d="M181.774 188.02C181.516 188.34 181.266 188.593 181.027 188.781C180.787 188.969 180.446 189.063 180.003 189.063C179.578 189.063 179.191 188.96 178.84 188.753C178.508 188.546 178.13 188.321 177.706 188.076C177.282 187.813 176.783 187.578 176.211 187.372C175.64 187.165 174.929 187.062 174.081 187.062C173.029 187.062 172.116 187.259 171.341 187.654C170.585 188.048 169.957 188.612 169.459 189.345C168.961 190.078 168.592 190.98 168.352 192.051C168.112 193.103 167.993 194.296 167.993 195.63C167.993 198.43 168.518 200.582 169.57 202.085C170.64 203.589 172.107 204.34 173.97 204.34C174.966 204.34 175.75 204.218 176.322 203.974C176.913 203.711 177.411 203.429 177.817 203.128C178.222 202.809 178.591 202.517 178.923 202.254C179.274 201.991 179.708 201.86 180.224 201.86C180.907 201.86 181.423 202.113 181.774 202.621L184.264 205.749C183.379 206.783 182.447 207.629 181.469 208.286C180.492 208.925 179.486 209.433 178.453 209.808C177.438 210.165 176.414 210.41 175.381 210.541C174.348 210.692 173.343 210.767 172.365 210.767C170.612 210.767 168.933 210.428 167.328 209.752C165.742 209.076 164.34 208.098 163.122 206.821C161.923 205.524 160.964 203.936 160.244 202.057C159.543 200.178 159.192 198.036 159.192 195.63C159.192 193.526 159.497 191.562 160.106 189.739C160.733 187.898 161.646 186.31 162.845 184.976C164.063 183.623 165.557 182.561 167.328 181.791C169.118 181.02 171.184 180.635 173.527 180.635C175.778 180.635 177.752 181.002 179.449 181.734C181.147 182.467 182.678 183.538 184.043 184.948L181.774 188.02Z" fill="#FF6E40"/>
<path d="M204.069 198.421C202.353 198.496 200.942 198.646 199.835 198.872C198.728 199.097 197.852 199.379 197.206 199.718C196.56 200.056 196.108 200.441 195.85 200.873C195.61 201.305 195.49 201.775 195.49 202.283C195.49 203.278 195.758 203.983 196.293 204.397C196.828 204.791 197.612 204.988 198.645 204.988C199.752 204.988 200.72 204.791 201.551 204.397C202.381 204.002 203.22 203.363 204.069 202.48V198.421ZM188.627 185.145C190.361 183.585 192.28 182.43 194.383 181.678C196.505 180.908 198.774 180.522 201.191 180.522C202.925 180.522 204.484 180.814 205.868 181.396C207.27 181.96 208.451 182.759 209.41 183.792C210.388 184.807 211.135 186.019 211.651 187.428C212.168 188.837 212.426 190.378 212.426 192.051V210.316H208.497C207.685 210.316 207.067 210.203 206.643 209.977C206.237 209.752 205.895 209.282 205.619 208.568L205.01 206.962C204.29 207.582 203.599 208.127 202.934 208.596C202.27 209.066 201.578 209.47 200.859 209.808C200.158 210.128 199.401 210.363 198.59 210.513C197.796 210.682 196.911 210.767 195.933 210.767C194.623 210.767 193.433 210.598 192.363 210.259C191.293 209.902 190.38 209.386 189.624 208.709C188.886 208.033 188.314 207.196 187.908 206.2C187.502 205.186 187.299 204.021 187.299 202.705C187.299 201.653 187.557 200.591 188.074 199.52C188.59 198.43 189.485 197.444 190.758 196.561C192.031 195.659 193.747 194.907 195.905 194.306C198.064 193.704 200.785 193.366 204.069 193.291V192.051C204.069 190.341 203.718 189.11 203.017 188.358C202.335 187.588 201.357 187.203 200.084 187.203C199.069 187.203 198.239 187.315 197.593 187.541C196.948 187.766 196.367 188.02 195.85 188.302C195.352 188.584 194.863 188.837 194.383 189.063C193.904 189.288 193.332 189.401 192.668 189.401C192.077 189.401 191.579 189.251 191.173 188.95C190.767 188.65 190.435 188.293 190.177 187.879L188.627 185.145Z" fill="#FF6E40"/>
</svg>
