<svg width="286" height="241" viewBox="0 0 286 241" fill="none" xmlns="http://www.w3.org/2000/svg">
<path d="M252.06 0H105.89C88.1074 0.355645 46.1416 11.5229 20.5347 53.3468C-16.1679 113.095 4.83937 163.241 18.3964 182.446C31.1991 200.584 62.3586 235.153 118.693 236.86C175.027 238.567 212.583 196.316 224.319 174.977C235.7 148.66 262.089 87.7021 276.599 54.4137C291.109 21.1253 266.285 4.26774 252.06 0Z" fill="#FF6E40"/>
<path d="M257.06 4H110.89C93.1074 4.35565 51.1416 15.5229 25.5347 57.3468C-11.1679 117.095 9.83937 167.241 23.3964 186.446C36.1991 204.584 67.3586 239.153 123.693 240.86C180.027 242.567 217.583 200.316 229.319 178.977C240.7 152.66 267.089 91.7021 281.599 58.4137C296.109 25.1253 271.285 8.26774 257.06 4Z" fill="#29434E"/>
<path d="M219.93 123.571C217.358 198.143 155.288 218.929 124.574 220C44.8616 216.571 25.6477 154.286 26.0049 123.571C26.862 49 88.5037 26.7857 119.217 25C153.86 26.7857 222.501 49 219.93 123.571Z" fill="white"/>
<path d="M204.442 105.113H212.701C213.307 105.113 213.684 105.785 213.411 106.326C169.714 192.884 168.465 190.284 153.434 190.284C138.364 190.284 111.764 190.284 111.653 190.284H111.653H75.3922C70.3165 190.284 65.6968 190.804 50.2373 165.901C49.8146 165.22 50.5478 164.366 51.3031 164.634C73.4599 172.489 98.1601 151.586 122.615 105.551C122.757 105.285 123.036 105.113 123.338 105.113H131.801C132.423 105.113 132.815 105.782 132.511 106.325L130.2 110.448L125.582 118.612C125.324 119.068 125.558 119.648 126.068 119.769C128.274 120.292 130.717 120.44 133.113 119.505C135.816 118.452 139.341 111.934 142.891 105.565C143.034 105.309 143.304 105.15 143.598 105.148L151.9 105.118C152.524 105.116 152.918 105.787 152.612 106.331L145.572 118.839C145.283 119.352 145.625 119.994 146.212 120.043C155.063 120.785 155.222 119.479 163.106 105.535C163.25 105.28 163.526 105.113 163.819 105.113H172.206C172.829 105.113 173.221 105.786 172.913 106.328L170.64 110.334L165.865 118.841C165.575 119.358 165.923 120.003 166.513 120.053C174.739 120.757 174.867 120.65 183.394 105.537C183.539 105.281 183.815 105.113 184.109 105.113H192.331C192.954 105.113 193.346 105.785 193.039 106.327L190.71 110.448L186.01 118.815C185.721 119.329 186.065 119.972 186.654 120.018C195.215 120.695 195.95 119.436 203.727 105.538C203.871 105.281 204.147 105.113 204.442 105.113Z" fill="#273F4C" fill-opacity="0.992157"/>
<path fill-rule="evenodd" clip-rule="evenodd" d="M106.189 116.504C106.524 115.97 105.946 115.339 105.385 115.625V115.625C82.956 127.061 51.1268 143.289 33.4472 136.123C32.6367 135.794 31.6556 136.822 32.1195 137.563L36.5636 144.665C44.0204 156.183 44.8594 157.447 44.8603 157.449C44.8603 157.449 44.8603 157.449 44.8603 157.449V157.449C44.8603 157.449 44.8603 157.449 44.8603 157.449C55.9438 162.994 67.9127 158.339 78.6065 150.222C87.6929 142.607 96.9469 131.225 106.189 116.504Z" fill="#FF6E40"/>
<path opacity="0.99" d="M168.52 79.5314C168.524 79.5805 168.486 79.8346 167.313 79.8346C166.128 79.8346 165.271 79.5794 165.132 79.5351C165.118 79.5309 165.107 79.5221 165.1 79.5103L162.914 75.9956L162.914 75.9952L161.556 73.8122C159.773 71.1487 157.233 68.7628 150.048 68.6901H139.177L145.98 68.6887H100.596C92.0962 68.6887 92.0784 67.0694 87.2708 75.6171L65.1778 114.383C65.1761 114.386 65.1742 114.389 65.1721 114.392C55.6075 126.115 31.7274 123.007 34.2476 119.168L47.2089 98.8161L60.1604 78.4639C75.614 53.6755 76.3513 56.0622 88.7709 56.0622L143.496 56.0622C152.594 56.0622 156.783 60.8713 156.845 60.9434C156.845 60.9434 156.846 60.9455 156.848 60.948L168.515 79.5163C168.517 79.5209 168.52 79.5259 168.52 79.5314Z" fill="#273F4C" fill-opacity="0.992157"/>
</svg>
