<svg width="1261" height="1261" viewBox="0 0 1261 1261" fill="none" xmlns="http://www.w3.org/2000/svg">
<mask id="path-1-inside-1" fill="white">
<path d="M629.705 -0.000703513L629.706 4.19978C621.355 4.20184 612.877 4.37398 604.506 4.70822L604.338 0.512117C612.764 0.173772 621.298 0.00133539 629.705 -0.000703513ZM655.065 0.485314C663.462 0.813509 671.981 1.31593 680.386 1.97837L680.056 6.16655C671.706 5.50617 663.242 5.00771 654.901 4.68169L655.065 0.485314ZM579.017 2.0339L579.351 6.22179C571.016 6.88831 562.58 7.73535 554.28 8.73831L553.775 4.56682C562.132 3.55786 570.624 2.70657 579.017 2.0339V2.0339ZM705.63 4.48258C714.006 5.48554 722.458 6.6691 730.754 8.00012L730.087 12.147C721.847 10.8242 713.451 9.64908 705.132 8.65434L705.63 4.48258ZM528.658 8.1128L529.329 12.2599C521.091 13.5911 512.751 15.1148 504.54 16.7843L503.703 12.6702C511.969 10.9864 520.365 9.45408 528.658 8.1128H528.658ZM755.714 12.5288C763.98 14.2024 772.309 16.0665 780.472 18.0643L779.473 22.1455C771.365 20.1581 763.091 18.3082 754.881 16.647L755.714 12.5288ZM478.95 18.2344L479.955 22.3115C471.822 24.3133 463.633 26.506 455.613 28.8297L454.444 24.7933C462.519 22.4553 470.764 20.2485 478.95 18.2344V18.2344ZM804.986 24.5986C813.085 26.9366 821.237 29.4676 829.214 32.1216L827.887 36.1084C819.963 33.4709 811.866 30.9563 803.821 28.6347L804.986 24.5986ZM430.227 32.3472L431.558 36.3302C423.629 38.9801 415.644 41.8287 407.824 44.8004L406.331 40.8751C414.205 37.8827 422.244 35.0135 430.227 32.3472ZM853.183 40.6472C861.062 43.6335 869 46.825 876.775 50.1373L875.129 54.0014C867.406 50.7117 859.521 47.5405 851.693 44.577L853.183 40.6472ZM382.868 50.3339L384.517 54.198C376.838 57.4775 369.129 60.954 361.604 64.5329L359.799 60.7386C367.375 57.1371 375.138 53.6361 382.868 50.3339V50.3339ZM899.958 60.5723C907.587 64.1943 915.236 68.0172 922.691 71.9367L920.737 75.6531C913.332 71.7625 905.735 67.964 898.157 64.3666L899.958 60.5723ZM337.158 72.0702L339.115 75.7865C331.717 79.6793 324.307 83.771 317.091 87.9446L314.987 84.3103C322.252 80.1079 329.711 75.9896 337.158 72.0702H337.158ZM944.94 84.2077C952.26 88.4388 959.571 92.8647 966.67 97.3625L964.422 100.911C957.371 96.4436 950.109 92.0465 942.838 87.8421L944.94 84.2077ZM293.319 97.4363L295.567 100.984C288.526 105.445 281.464 110.119 274.579 114.88L272.192 111.426C279.122 106.633 286.231 101.926 293.319 97.4363H293.319ZM987.848 111.377C994.793 116.176 1001.72 121.172 1008.44 126.228L1005.92 129.583C999.241 124.562 992.359 119.599 985.46 114.831L987.848 111.377ZM251.635 126.254L254.162 129.61C247.503 134.618 240.835 139.846 234.344 145.15L231.686 141.897C238.22 136.558 244.933 131.296 251.635 126.254V126.254ZM1028.42 141.893C1034.94 147.221 1041.44 152.755 1047.74 158.342L1044.96 161.484C1038.7 155.936 1032.24 150.437 1025.76 145.146L1028.42 141.893ZM212.374 158.331L215.159 161.473C208.901 167.019 202.671 172.768 196.641 178.558L193.733 175.527C199.801 169.7 206.073 163.914 212.374 158.331H212.374ZM1066.39 175.545C1072.45 181.366 1078.49 187.4 1084.34 193.479L1081.31 196.391C1075.5 190.351 1069.5 184.356 1063.48 178.576L1066.39 175.545ZM175.789 193.462L178.816 196.375C173.026 202.396 167.273 208.625 161.715 214.891L158.573 212.101C164.168 205.797 169.96 199.525 175.789 193.462V193.462ZM1101.54 212.109C1107.14 218.422 1112.68 224.918 1117.99 231.415L1114.74 234.073C1109.46 227.619 1103.96 221.166 1098.4 214.899L1101.54 212.109ZM142.114 231.419L145.367 234.077C140.059 240.567 134.821 247.24 129.796 253.912L126.441 251.385C131.498 244.669 136.773 237.952 142.114 231.419V231.419ZM1133.64 251.355C1138.71 258.075 1143.7 264.987 1148.48 271.901L1145.03 274.292C1140.28 267.424 1135.32 260.557 1130.29 253.881L1133.64 251.355ZM111.577 271.971L115.031 274.358C110.261 281.257 105.572 288.333 101.099 295.389L97.5508 293.141C102.055 286.038 106.774 278.915 111.577 271.971V271.971ZM1162.48 293.022C1166.99 300.118 1171.41 307.405 1175.62 314.682L1171.99 316.786C1167.8 309.559 1163.41 302.321 1158.94 295.272L1162.48 293.022ZM84.3813 314.862L88.0156 316.967C83.8112 324.233 79.7073 331.668 75.8165 339.062L72.1002 337.105C76.0156 329.662 80.1483 322.178 84.3816 314.862H84.3813ZM1187.87 336.851C1191.79 344.281 1195.6 351.897 1199.22 359.485L1195.42 361.29C1191.83 353.753 1188.04 346.189 1184.16 338.808L1187.87 336.851ZM60.7237 359.832L64.5181 361.637C60.9227 369.201 57.4302 376.945 54.1405 384.657L50.2764 383.008C53.5887 375.245 57.1038 367.447 60.7237 359.832V359.832ZM1209.63 382.546C1212.94 390.283 1216.13 398.175 1219.11 406.005L1215.18 407.498C1212.22 399.723 1209.06 391.882 1205.77 384.199L1209.63 382.546ZM40.7721 406.598L44.6999 408.087C41.722 415.944 38.8669 423.953 36.2191 431.888L32.2361 430.559C34.9001 422.569 37.7736 414.508 40.7721 406.598V406.598ZM1227.65 429.895C1230.32 437.879 1232.87 446.027 1235.21 454.11L1231.18 455.279C1228.85 447.252 1226.32 439.159 1223.67 431.228L1227.65 429.895ZM24.6966 454.787L28.7328 455.952C26.4152 463.967 24.2269 472.157 22.2272 480.297L18.15 479.296C20.1621 471.101 22.3647 462.854 24.6966 454.787V454.787ZM1241.79 478.613C1243.81 486.792 1245.68 495.117 1247.37 503.36L1243.25 504.201C1241.58 496.013 1239.72 487.742 1237.71 479.618L1241.79 478.613ZM12.6001 504.047L16.7185 504.884C15.0572 513.065 13.5395 521.406 12.2062 529.674L8.05938 529.005C9.40075 520.682 10.9285 512.286 12.6001 504.047V504.047ZM1251.94 528.314C1253.28 536.606 1254.48 545.056 1255.5 553.43L1251.33 553.935C1250.32 545.616 1249.13 537.223 1247.79 528.987L1251.94 528.314ZM4.52761 554.131L8.6991 554.632C7.70027 562.947 6.85751 571.382 6.19708 579.704L2.00891 579.372C2.67559 570.993 3.52275 562.501 4.52761 554.132V554.131ZM1258.04 578.667C1258.72 587.057 1259.24 595.576 1259.58 603.99L1255.38 604.161C1255.04 595.803 1254.53 587.34 1253.86 579.006L1258.04 578.667ZM0.499714 604.691L4.69582 604.857C4.36762 613.227 4.19968 621.704 4.19968 630.052L4.2016 631.443H0.00138903L-0.000799008 630.061C-0.000933441 621.649 0.167122 613.117 0.499441 604.691H0.499714ZM1255.91 629.356H1260.11L1260.11 630.061C1260.11 638.255 1259.95 646.553 1259.63 654.715L1255.44 654.553C1255.75 646.444 1255.91 638.201 1255.91 630.052L1255.91 629.356ZM4.75544 656.632C5.10212 664.973 5.62285 673.436 6.30785 681.785L2.11995 682.128C1.43291 673.722 0.907671 665.203 0.559064 656.807L4.75544 656.632ZM1253.97 679.709L1258.15 680.037C1257.49 688.448 1256.66 696.941 1255.66 705.282L1251.49 704.786C1252.48 696.5 1253.31 688.062 1253.97 679.709ZM8.8632 706.854C9.8764 715.138 11.0741 723.53 12.4278 731.798L8.28091 732.476C6.92119 724.153 5.71312 715.704 4.69582 707.363L8.8632 706.854ZM1248.01 729.742L1252.16 730.406C1250.83 738.723 1249.31 747.123 1247.64 755.37L1243.53 754.539C1245.18 746.346 1246.69 738.004 1248.01 729.742ZM16.9975 756.58C18.6834 764.788 20.5559 773.055 22.5639 781.155L18.4865 782.166C16.4642 774.012 14.5793 765.687 12.8832 757.425L16.9975 756.58ZM1238.04 779.133L1242.12 780.13C1240.13 788.305 1237.93 796.554 1235.6 804.649L1231.57 803.487C1233.88 795.446 1236.06 787.253 1238.04 779.133H1238.04ZM29.1206 805.486C31.4586 813.508 33.9936 821.598 36.6597 829.53L32.677 830.867C29.9943 822.882 27.4407 814.738 25.0883 806.661L29.1206 805.486ZM1224.11 827.556L1228.09 828.881C1225.43 836.879 1222.57 844.944 1219.58 852.853L1215.65 851.368C1218.62 843.512 1221.47 835.5 1224.11 827.556ZM45.1715 853.25C48.1557 861.063 51.3305 868.898 54.6079 876.54L50.7479 878.195C47.448 870.502 44.2504 862.614 41.2456 854.749L45.1715 853.25ZM1206.24 874.809L1210.11 876.454C1206.8 884.214 1203.3 892.016 1199.68 899.64L1195.89 897.841C1199.48 890.267 1202.96 882.518 1206.24 874.809V874.809ZM64.9817 899.439C68.577 906.968 72.375 914.528 76.2719 921.908L72.5596 923.87C68.6342 916.439 64.8091 908.829 61.1912 901.248L64.9817 899.439ZM1184.61 920.43L1188.33 922.38C1184.42 929.843 1180.29 937.331 1176.07 944.637L1172.44 942.537C1176.63 935.28 1180.72 927.841 1184.61 920.43L1184.61 920.43ZM88.4672 943.911C92.6675 951.142 97.0647 958.376 101.54 965.413L97.9958 967.667C93.4898 960.582 89.0638 953.299 84.8348 946.021L88.4672 943.911ZM1159.38 964.128L1162.93 966.374C1158.42 973.498 1153.71 980.626 1148.93 987.56L1145.47 985.173C1150.23 978.286 1154.9 971.206 1159.38 964.128V964.128ZM115.472 986.379C120.236 993.245 125.204 1000.11 130.235 1006.77L126.884 1009.3C121.818 1002.59 116.818 995.686 112.022 988.773L115.472 986.379ZM1130.73 1005.64L1134.09 1008.16C1129.02 1014.9 1123.76 1021.62 1118.44 1028.14L1115.18 1025.49C1120.47 1019.01 1125.7 1012.33 1130.73 1005.64L1130.73 1005.64ZM145.808 1026.56C151.106 1033.03 156.61 1039.47 162.164 1045.72L159.026 1048.51C153.433 1042.22 147.894 1035.73 142.559 1029.23L145.808 1026.56ZM1098.85 1044.7L1102 1047.48C1096.42 1053.78 1090.63 1060.06 1084.8 1066.14L1081.77 1063.23C1087.56 1057.19 1093.31 1050.96 1098.85 1044.7V1044.7ZM179.277 1064.21C185.09 1070.24 191.093 1076.23 197.123 1082.01L194.216 1085.04C188.148 1079.23 182.103 1073.2 176.254 1067.13L179.277 1064.21ZM1063.97 1081.07L1066.88 1084.09C1060.82 1089.93 1054.55 1095.72 1048.25 1101.31L1045.47 1098.17C1051.72 1092.61 1057.95 1086.86 1063.97 1081.07L1063.97 1081.07ZM215.665 1099.08C221.941 1104.63 228.408 1110.12 234.883 1115.4L232.229 1118.65C225.711 1113.34 219.201 1107.81 212.884 1102.23L215.665 1099.08ZM1026.3 1114.52L1028.96 1117.77C1022.44 1123.1 1015.74 1128.37 1009.03 1133.43L1006.5 1130.08C1013.16 1125.05 1019.83 1119.82 1026.3 1114.52L1026.3 1114.52ZM254.746 1130.93C261.447 1135.96 268.336 1140.92 275.217 1145.66L272.834 1149.12C265.906 1144.34 258.971 1139.36 252.224 1134.29L254.746 1130.93ZM986.095 1144.83L988.488 1148.28C981.564 1153.08 974.461 1157.8 967.375 1162.3L965.123 1158.75C972.162 1154.28 979.218 1149.6 986.095 1144.83V1144.83ZM296.27 1159.57C303.352 1164.04 310.618 1168.43 317.871 1172.61L315.77 1176.25C308.473 1172.04 301.157 1167.62 294.026 1163.12L296.27 1159.57ZM943.614 1171.81L945.722 1175.44C938.459 1179.66 931.004 1183.78 923.565 1187.71L921.604 1183.99C928.995 1180.09 936.4 1176 943.614 1171.81V1171.81ZM339.982 1184.77C347.4 1188.66 355.001 1192.45 362.576 1196.03L360.779 1199.83C353.153 1196.22 345.499 1192.41 338.034 1188.49L339.982 1184.77ZM899.13 1195.27L900.938 1199.06C893.364 1202.68 885.606 1206.18 877.879 1209.49L876.226 1205.63C883.901 1202.35 891.607 1198.86 899.13 1195.27V1195.27ZM385.614 1206.37C393.334 1209.65 401.222 1212.81 409.061 1215.77L407.576 1219.7C399.686 1216.72 391.742 1213.54 383.973 1210.24L385.614 1206.37ZM852.929 1215.06L854.425 1218.98C846.566 1221.98 838.53 1224.86 830.542 1227.54L829.207 1223.55C837.141 1220.89 845.122 1218.03 852.929 1215.06V1215.06ZM432.878 1224.21C440.816 1226.85 448.915 1229.35 456.953 1231.66L455.792 1235.7C447.701 1233.37 439.548 1230.85 431.558 1228.2L432.878 1224.21ZM805.156 1231.08L806.329 1235.12C798.252 1237.47 790.009 1239.68 781.831 1241.71L780.822 1237.63C788.945 1235.62 797.133 1233.42 805.156 1231.08V1231.08ZM481.309 1238.12C489.418 1240.1 497.695 1241.94 505.907 1243.59L505.078 1247.71C496.811 1246.05 488.479 1244.2 480.314 1242.2L481.309 1238.12ZM756.244 1243.18L757.087 1247.29C748.852 1248.98 740.458 1250.52 732.136 1251.88L731.459 1247.73C739.727 1246.39 748.065 1244.85 756.244 1243.18V1243.18ZM530.705 1248.07C538.966 1249.38 547.363 1250.55 555.665 1251.53L555.171 1255.7C546.814 1254.71 538.359 1253.54 530.045 1252.21L530.705 1248.07ZM706.513 1251.28L707.022 1255.45C698.666 1256.47 690.175 1257.33 681.785 1258.01L681.444 1253.83C689.78 1253.15 698.214 1252.3 706.513 1251.28H706.513ZM580.743 1253.99C589.069 1254.64 597.534 1255.13 605.9 1255.45L605.74 1259.65C597.318 1259.33 588.799 1258.83 580.416 1258.18L580.743 1253.99ZM656.291 1255.37L656.463 1259.56C648.064 1259.91 639.531 1260.09 631.101 1260.11L631.095 1255.91C639.469 1255.89 647.946 1255.71 656.291 1255.37H656.291Z"/>
</mask>
<path d="M629.705 -0.000703513L629.706 4.19978C621.355 4.20184 612.877 4.37398 604.506 4.70822L604.338 0.512117C612.764 0.173772 621.298 0.00133539 629.705 -0.000703513ZM655.065 0.485314C663.462 0.813509 671.981 1.31593 680.386 1.97837L680.056 6.16655C671.706 5.50617 663.242 5.00771 654.901 4.68169L655.065 0.485314ZM579.017 2.0339L579.351 6.22179C571.016 6.88831 562.58 7.73535 554.28 8.73831L553.775 4.56682C562.132 3.55786 570.624 2.70657 579.017 2.0339V2.0339ZM705.63 4.48258C714.006 5.48554 722.458 6.6691 730.754 8.00012L730.087 12.147C721.847 10.8242 713.451 9.64908 705.132 8.65434L705.63 4.48258ZM528.658 8.1128L529.329 12.2599C521.091 13.5911 512.751 15.1148 504.54 16.7843L503.703 12.6702C511.969 10.9864 520.365 9.45408 528.658 8.1128H528.658ZM755.714 12.5288C763.98 14.2024 772.309 16.0665 780.472 18.0643L779.473 22.1455C771.365 20.1581 763.091 18.3082 754.881 16.647L755.714 12.5288ZM478.95 18.2344L479.955 22.3115C471.822 24.3133 463.633 26.506 455.613 28.8297L454.444 24.7933C462.519 22.4553 470.764 20.2485 478.95 18.2344V18.2344ZM804.986 24.5986C813.085 26.9366 821.237 29.4676 829.214 32.1216L827.887 36.1084C819.963 33.4709 811.866 30.9563 803.821 28.6347L804.986 24.5986ZM430.227 32.3472L431.558 36.3302C423.629 38.9801 415.644 41.8287 407.824 44.8004L406.331 40.8751C414.205 37.8827 422.244 35.0135 430.227 32.3472ZM853.183 40.6472C861.062 43.6335 869 46.825 876.775 50.1373L875.129 54.0014C867.406 50.7117 859.521 47.5405 851.693 44.577L853.183 40.6472ZM382.868 50.3339L384.517 54.198C376.838 57.4775 369.129 60.954 361.604 64.5329L359.799 60.7386C367.375 57.1371 375.138 53.6361 382.868 50.3339V50.3339ZM899.958 60.5723C907.587 64.1943 915.236 68.0172 922.691 71.9367L920.737 75.6531C913.332 71.7625 905.735 67.964 898.157 64.3666L899.958 60.5723ZM337.158 72.0702L339.115 75.7865C331.717 79.6793 324.307 83.771 317.091 87.9446L314.987 84.3103C322.252 80.1079 329.711 75.9896 337.158 72.0702H337.158ZM944.94 84.2077C952.26 88.4388 959.571 92.8647 966.67 97.3625L964.422 100.911C957.371 96.4436 950.109 92.0465 942.838 87.8421L944.94 84.2077ZM293.319 97.4363L295.567 100.984C288.526 105.445 281.464 110.119 274.579 114.88L272.192 111.426C279.122 106.633 286.231 101.926 293.319 97.4363H293.319ZM987.848 111.377C994.793 116.176 1001.72 121.172 1008.44 126.228L1005.92 129.583C999.241 124.562 992.359 119.599 985.46 114.831L987.848 111.377ZM251.635 126.254L254.162 129.61C247.503 134.618 240.835 139.846 234.344 145.15L231.686 141.897C238.22 136.558 244.933 131.296 251.635 126.254V126.254ZM1028.42 141.893C1034.94 147.221 1041.44 152.755 1047.74 158.342L1044.96 161.484C1038.7 155.936 1032.24 150.437 1025.76 145.146L1028.42 141.893ZM212.374 158.331L215.159 161.473C208.901 167.019 202.671 172.768 196.641 178.558L193.733 175.527C199.801 169.7 206.073 163.914 212.374 158.331H212.374ZM1066.39 175.545C1072.45 181.366 1078.49 187.4 1084.34 193.479L1081.31 196.391C1075.5 190.351 1069.5 184.356 1063.48 178.576L1066.39 175.545ZM175.789 193.462L178.816 196.375C173.026 202.396 167.273 208.625 161.715 214.891L158.573 212.101C164.168 205.797 169.96 199.525 175.789 193.462V193.462ZM1101.54 212.109C1107.14 218.422 1112.68 224.918 1117.99 231.415L1114.74 234.073C1109.46 227.619 1103.96 221.166 1098.4 214.899L1101.54 212.109ZM142.114 231.419L145.367 234.077C140.059 240.567 134.821 247.24 129.796 253.912L126.441 251.385C131.498 244.669 136.773 237.952 142.114 231.419V231.419ZM1133.64 251.355C1138.71 258.075 1143.7 264.987 1148.48 271.901L1145.03 274.292C1140.28 267.424 1135.32 260.557 1130.29 253.881L1133.64 251.355ZM111.577 271.971L115.031 274.358C110.261 281.257 105.572 288.333 101.099 295.389L97.5508 293.141C102.055 286.038 106.774 278.915 111.577 271.971V271.971ZM1162.48 293.022C1166.99 300.118 1171.41 307.405 1175.62 314.682L1171.99 316.786C1167.8 309.559 1163.41 302.321 1158.94 295.272L1162.48 293.022ZM84.3813 314.862L88.0156 316.967C83.8112 324.233 79.7073 331.668 75.8165 339.062L72.1002 337.105C76.0156 329.662 80.1483 322.178 84.3816 314.862H84.3813ZM1187.87 336.851C1191.79 344.281 1195.6 351.897 1199.22 359.485L1195.42 361.29C1191.83 353.753 1188.04 346.189 1184.16 338.808L1187.87 336.851ZM60.7237 359.832L64.5181 361.637C60.9227 369.201 57.4302 376.945 54.1405 384.657L50.2764 383.008C53.5887 375.245 57.1038 367.447 60.7237 359.832V359.832ZM1209.63 382.546C1212.94 390.283 1216.13 398.175 1219.11 406.005L1215.18 407.498C1212.22 399.723 1209.06 391.882 1205.77 384.199L1209.63 382.546ZM40.7721 406.598L44.6999 408.087C41.722 415.944 38.8669 423.953 36.2191 431.888L32.2361 430.559C34.9001 422.569 37.7736 414.508 40.7721 406.598V406.598ZM1227.65 429.895C1230.32 437.879 1232.87 446.027 1235.21 454.11L1231.18 455.279C1228.85 447.252 1226.32 439.159 1223.67 431.228L1227.65 429.895ZM24.6966 454.787L28.7328 455.952C26.4152 463.967 24.2269 472.157 22.2272 480.297L18.15 479.296C20.1621 471.101 22.3647 462.854 24.6966 454.787V454.787ZM1241.79 478.613C1243.81 486.792 1245.68 495.117 1247.37 503.36L1243.25 504.201C1241.58 496.013 1239.72 487.742 1237.71 479.618L1241.79 478.613ZM12.6001 504.047L16.7185 504.884C15.0572 513.065 13.5395 521.406 12.2062 529.674L8.05938 529.005C9.40075 520.682 10.9285 512.286 12.6001 504.047V504.047ZM1251.94 528.314C1253.28 536.606 1254.48 545.056 1255.5 553.43L1251.33 553.935C1250.32 545.616 1249.13 537.223 1247.79 528.987L1251.94 528.314ZM4.52761 554.131L8.6991 554.632C7.70027 562.947 6.85751 571.382 6.19708 579.704L2.00891 579.372C2.67559 570.993 3.52275 562.501 4.52761 554.132V554.131ZM1258.04 578.667C1258.72 587.057 1259.24 595.576 1259.58 603.99L1255.38 604.161C1255.04 595.803 1254.53 587.34 1253.86 579.006L1258.04 578.667ZM0.499714 604.691L4.69582 604.857C4.36762 613.227 4.19968 621.704 4.19968 630.052L4.2016 631.443H0.00138903L-0.000799008 630.061C-0.000933441 621.649 0.167122 613.117 0.499441 604.691H0.499714ZM1255.91 629.356H1260.11L1260.11 630.061C1260.11 638.255 1259.95 646.553 1259.63 654.715L1255.44 654.553C1255.75 646.444 1255.91 638.201 1255.91 630.052L1255.91 629.356ZM4.75544 656.632C5.10212 664.973 5.62285 673.436 6.30785 681.785L2.11995 682.128C1.43291 673.722 0.907671 665.203 0.559064 656.807L4.75544 656.632ZM1253.97 679.709L1258.15 680.037C1257.49 688.448 1256.66 696.941 1255.66 705.282L1251.49 704.786C1252.48 696.5 1253.31 688.062 1253.97 679.709ZM8.8632 706.854C9.8764 715.138 11.0741 723.53 12.4278 731.798L8.28091 732.476C6.92119 724.153 5.71312 715.704 4.69582 707.363L8.8632 706.854ZM1248.01 729.742L1252.16 730.406C1250.83 738.723 1249.31 747.123 1247.64 755.37L1243.53 754.539C1245.18 746.346 1246.69 738.004 1248.01 729.742ZM16.9975 756.58C18.6834 764.788 20.5559 773.055 22.5639 781.155L18.4865 782.166C16.4642 774.012 14.5793 765.687 12.8832 757.425L16.9975 756.58ZM1238.04 779.133L1242.12 780.13C1240.13 788.305 1237.93 796.554 1235.6 804.649L1231.57 803.487C1233.88 795.446 1236.06 787.253 1238.04 779.133H1238.04ZM29.1206 805.486C31.4586 813.508 33.9936 821.598 36.6597 829.53L32.677 830.867C29.9943 822.882 27.4407 814.738 25.0883 806.661L29.1206 805.486ZM1224.11 827.556L1228.09 828.881C1225.43 836.879 1222.57 844.944 1219.58 852.853L1215.65 851.368C1218.62 843.512 1221.47 835.5 1224.11 827.556ZM45.1715 853.25C48.1557 861.063 51.3305 868.898 54.6079 876.54L50.7479 878.195C47.448 870.502 44.2504 862.614 41.2456 854.749L45.1715 853.25ZM1206.24 874.809L1210.11 876.454C1206.8 884.214 1203.3 892.016 1199.68 899.64L1195.89 897.841C1199.48 890.267 1202.96 882.518 1206.24 874.809V874.809ZM64.9817 899.439C68.577 906.968 72.375 914.528 76.2719 921.908L72.5596 923.87C68.6342 916.439 64.8091 908.829 61.1912 901.248L64.9817 899.439ZM1184.61 920.43L1188.33 922.38C1184.42 929.843 1180.29 937.331 1176.07 944.637L1172.44 942.537C1176.63 935.28 1180.72 927.841 1184.61 920.43L1184.61 920.43ZM88.4672 943.911C92.6675 951.142 97.0647 958.376 101.54 965.413L97.9958 967.667C93.4898 960.582 89.0638 953.299 84.8348 946.021L88.4672 943.911ZM1159.38 964.128L1162.93 966.374C1158.42 973.498 1153.71 980.626 1148.93 987.56L1145.47 985.173C1150.23 978.286 1154.9 971.206 1159.38 964.128V964.128ZM115.472 986.379C120.236 993.245 125.204 1000.11 130.235 1006.77L126.884 1009.3C121.818 1002.59 116.818 995.686 112.022 988.773L115.472 986.379ZM1130.73 1005.64L1134.09 1008.16C1129.02 1014.9 1123.76 1021.62 1118.44 1028.14L1115.18 1025.49C1120.47 1019.01 1125.7 1012.33 1130.73 1005.64L1130.73 1005.64ZM145.808 1026.56C151.106 1033.03 156.61 1039.47 162.164 1045.72L159.026 1048.51C153.433 1042.22 147.894 1035.73 142.559 1029.23L145.808 1026.56ZM1098.85 1044.7L1102 1047.48C1096.42 1053.78 1090.63 1060.06 1084.8 1066.14L1081.77 1063.23C1087.56 1057.19 1093.31 1050.96 1098.85 1044.7V1044.7ZM179.277 1064.21C185.09 1070.24 191.093 1076.23 197.123 1082.01L194.216 1085.04C188.148 1079.23 182.103 1073.2 176.254 1067.13L179.277 1064.21ZM1063.97 1081.07L1066.88 1084.09C1060.82 1089.93 1054.55 1095.72 1048.25 1101.31L1045.47 1098.17C1051.72 1092.61 1057.95 1086.86 1063.97 1081.07L1063.97 1081.07ZM215.665 1099.08C221.941 1104.63 228.408 1110.12 234.883 1115.4L232.229 1118.65C225.711 1113.34 219.201 1107.81 212.884 1102.23L215.665 1099.08ZM1026.3 1114.52L1028.96 1117.77C1022.44 1123.1 1015.74 1128.37 1009.03 1133.43L1006.5 1130.08C1013.16 1125.05 1019.83 1119.82 1026.3 1114.52L1026.3 1114.52ZM254.746 1130.93C261.447 1135.96 268.336 1140.92 275.217 1145.66L272.834 1149.12C265.906 1144.34 258.971 1139.36 252.224 1134.29L254.746 1130.93ZM986.095 1144.83L988.488 1148.28C981.564 1153.08 974.461 1157.8 967.375 1162.3L965.123 1158.75C972.162 1154.28 979.218 1149.6 986.095 1144.83V1144.83ZM296.27 1159.57C303.352 1164.04 310.618 1168.43 317.871 1172.61L315.77 1176.25C308.473 1172.04 301.157 1167.62 294.026 1163.12L296.27 1159.57ZM943.614 1171.81L945.722 1175.44C938.459 1179.66 931.004 1183.78 923.565 1187.71L921.604 1183.99C928.995 1180.09 936.4 1176 943.614 1171.81V1171.81ZM339.982 1184.77C347.4 1188.66 355.001 1192.45 362.576 1196.03L360.779 1199.83C353.153 1196.22 345.499 1192.41 338.034 1188.49L339.982 1184.77ZM899.13 1195.27L900.938 1199.06C893.364 1202.68 885.606 1206.18 877.879 1209.49L876.226 1205.63C883.901 1202.35 891.607 1198.86 899.13 1195.27V1195.27ZM385.614 1206.37C393.334 1209.65 401.222 1212.81 409.061 1215.77L407.576 1219.7C399.686 1216.72 391.742 1213.54 383.973 1210.24L385.614 1206.37ZM852.929 1215.06L854.425 1218.98C846.566 1221.98 838.53 1224.86 830.542 1227.54L829.207 1223.55C837.141 1220.89 845.122 1218.03 852.929 1215.06V1215.06ZM432.878 1224.21C440.816 1226.85 448.915 1229.35 456.953 1231.66L455.792 1235.7C447.701 1233.37 439.548 1230.85 431.558 1228.2L432.878 1224.21ZM805.156 1231.08L806.329 1235.12C798.252 1237.47 790.009 1239.68 781.831 1241.71L780.822 1237.63C788.945 1235.62 797.133 1233.42 805.156 1231.08V1231.08ZM481.309 1238.12C489.418 1240.1 497.695 1241.94 505.907 1243.59L505.078 1247.71C496.811 1246.05 488.479 1244.2 480.314 1242.2L481.309 1238.12ZM756.244 1243.18L757.087 1247.29C748.852 1248.98 740.458 1250.52 732.136 1251.88L731.459 1247.73C739.727 1246.39 748.065 1244.85 756.244 1243.18V1243.18ZM530.705 1248.07C538.966 1249.38 547.363 1250.55 555.665 1251.53L555.171 1255.7C546.814 1254.71 538.359 1253.54 530.045 1252.21L530.705 1248.07ZM706.513 1251.28L707.022 1255.45C698.666 1256.47 690.175 1257.33 681.785 1258.01L681.444 1253.83C689.78 1253.15 698.214 1252.3 706.513 1251.28H706.513ZM580.743 1253.99C589.069 1254.64 597.534 1255.13 605.9 1255.45L605.74 1259.65C597.318 1259.33 588.799 1258.83 580.416 1258.18L580.743 1253.99ZM656.291 1255.37L656.463 1259.56C648.064 1259.91 639.531 1260.09 631.101 1260.11L631.095 1255.91C639.469 1255.89 647.946 1255.71 656.291 1255.37H656.291Z" fill="#FF6E40" stroke="#FF6E40" stroke-width="4" mask="url(#path-1-inside-1)"/>
<mask id="path-2-inside-2" fill="white">
<path d="M617.731 79.1074L617.732 82.3475C611.29 82.3491 604.75 82.4819 598.293 82.7397L598.163 79.503C604.663 79.242 611.246 79.109 617.731 79.1074ZM637.293 79.4823C643.769 79.7354 650.341 80.123 656.824 80.634L656.57 83.8646C650.128 83.3552 643.6 82.9707 637.166 82.7192L637.293 79.4823ZM578.632 80.6768L578.889 83.9072C572.46 84.4213 565.953 85.0747 559.551 85.8483L559.161 82.6306C565.607 81.8523 572.158 81.1957 578.632 80.6768V80.6768ZM676.297 82.5656C682.757 83.3393 689.276 84.2522 695.676 85.2789L695.162 88.4777C688.806 87.4573 682.329 86.5509 675.912 85.7836L676.297 82.5656ZM539.787 85.3658L540.304 88.5648C533.95 89.5916 527.517 90.7669 521.183 92.0547L520.538 88.8813C526.913 87.5824 533.39 86.4005 539.787 85.3658H539.787ZM714.929 88.7722C721.305 90.0631 727.73 91.501 734.026 93.042L733.256 96.1901C727.001 94.6572 720.619 93.2302 714.287 91.9488L714.929 88.7722ZM501.444 93.1732L502.219 96.3182C495.946 97.8623 489.629 99.5536 483.443 101.346L482.541 98.2325C488.77 96.4291 495.13 94.7268 501.444 93.1732V93.1732ZM752.936 98.0823C759.183 99.8858 765.471 101.838 771.624 103.885L770.601 106.961C764.488 104.926 758.243 102.986 752.037 101.196L752.936 98.0823ZM463.861 104.059L464.887 107.132C458.771 109.176 452.612 111.373 446.58 113.665L445.428 110.637C451.502 108.329 457.703 106.116 463.861 104.059ZM790.112 110.462C796.191 112.765 802.313 115.227 808.311 117.782L807.041 120.763C801.084 118.225 795.002 115.779 788.964 113.493L790.112 110.462ZM427.33 117.934L428.602 120.914C422.679 123.444 416.732 126.126 410.928 128.886L409.535 125.959C415.38 123.181 421.367 120.481 427.33 117.934V117.934ZM826.193 125.831C832.078 128.625 837.978 131.574 843.729 134.597L842.221 137.464C836.509 134.463 830.65 131.533 824.804 128.758L826.193 125.831ZM392.071 134.7L393.581 137.567C387.874 140.57 382.158 143.726 376.593 146.945L374.97 144.142C380.573 140.9 386.327 137.723 392.071 134.7H392.071ZM860.891 144.063C866.537 147.326 872.176 150.74 877.653 154.21L875.919 156.947C870.48 153.501 864.878 150.109 859.269 146.866L860.891 144.063ZM358.255 154.267L359.989 157.004C354.558 160.445 349.111 164.05 343.8 167.722L341.959 165.058C347.305 161.361 352.788 157.73 358.255 154.267H358.255ZM893.988 165.02C899.345 168.722 904.69 172.576 909.872 176.475L907.925 179.063C902.776 175.191 897.468 171.362 892.147 167.684L893.988 165.02ZM326.102 176.496L328.051 179.084C322.915 182.947 317.771 186.98 312.764 191.071L310.714 188.562C315.754 184.444 320.932 180.384 326.102 176.496V176.496ZM925.281 188.559C930.311 192.669 935.327 196.937 940.189 201.247L938.041 203.67C933.21 199.391 928.228 195.15 923.231 191.068L925.281 188.559ZM295.818 201.239L297.966 203.662C293.139 207.94 288.333 212.375 283.682 216.841L281.439 214.503C286.12 210.008 290.958 205.545 295.817 201.239H295.818ZM954.576 214.517C959.249 219.007 963.906 223.661 968.415 228.35L966.08 230.597C961.6 225.937 956.974 221.313 952.331 216.855L954.576 214.517ZM267.597 228.337L269.932 230.584C265.466 235.229 261.029 240.033 256.741 244.866L254.318 242.715C258.634 237.852 263.101 233.014 267.597 228.337V228.337ZM981.688 242.721C986.008 247.591 990.276 252.601 994.374 257.613L991.865 259.663C987.795 254.684 983.555 249.707 979.265 244.873L981.688 242.721ZM241.622 257.616L244.131 259.666C240.037 264.672 235.996 269.82 232.12 274.966L229.532 273.017C233.433 267.836 237.502 262.655 241.622 257.616V257.616ZM1006.45 272.993C1010.35 278.178 1014.21 283.509 1017.9 288.842L1015.23 290.687C1011.57 285.389 1007.74 280.092 1003.86 274.942L1006.45 272.993ZM218.067 288.896L220.731 290.737C217.051 296.059 213.435 301.517 209.985 306.96L207.248 305.226C210.722 299.747 214.362 294.253 218.067 288.896V288.896ZM1028.7 305.134C1032.17 310.608 1035.58 316.229 1038.83 321.842L1036.03 323.465C1032.8 317.89 1029.41 312.307 1025.96 306.869L1028.7 305.134ZM197.089 321.981L199.893 323.604C196.649 329.209 193.484 334.944 190.483 340.647L187.616 339.138C190.636 333.397 193.824 327.624 197.089 321.981H197.089ZM1048.28 338.942C1051.3 344.674 1054.24 350.548 1057.03 356.401L1054.1 357.794C1051.33 351.98 1048.41 346.145 1045.41 340.451L1048.28 338.942ZM178.841 356.669L181.767 358.061C178.994 363.895 176.3 369.869 173.763 375.818L170.782 374.546C173.337 368.558 176.048 362.543 178.841 356.669V356.669ZM1065.07 374.19C1067.62 380.157 1070.08 386.245 1072.37 392.285L1069.35 393.437C1067.06 387.439 1064.62 381.391 1062.09 375.465L1065.07 374.19ZM163.451 392.742L166.481 393.891C164.183 399.952 161.981 406.129 159.939 412.25L156.866 411.225C158.921 405.062 161.138 398.844 163.451 392.742V392.742ZM1078.96 410.713C1081.02 416.871 1082.99 423.157 1084.8 429.392L1081.68 430.293C1079.89 424.101 1077.94 417.859 1075.89 411.741L1078.96 410.713ZM151.051 429.914L154.164 430.812C152.376 436.995 150.688 443.312 149.146 449.591L146.001 448.819C147.553 442.497 149.252 436.136 151.051 429.914V429.914ZM1089.87 448.292C1091.43 454.601 1092.87 461.023 1094.17 467.381L1091 468.03C1089.71 461.714 1088.27 455.334 1086.72 449.067L1089.87 448.292ZM141.72 467.911L144.897 468.556C143.615 474.867 142.445 481.301 141.416 487.678L138.217 487.163C139.252 480.743 140.431 474.266 141.72 467.911V467.911ZM1097.7 486.629C1098.73 493.026 1099.66 499.544 1100.44 506.003L1097.23 506.392C1096.45 499.975 1095.53 493.502 1094.5 487.148L1097.7 486.629ZM135.493 506.544L138.711 506.93C137.94 513.344 137.29 519.851 136.781 526.27L133.55 526.013C134.065 519.551 134.718 513 135.493 506.544V506.544ZM1102.41 525.47C1102.93 531.941 1103.33 538.513 1103.59 545.003L1100.35 545.135C1100.09 538.688 1099.7 532.16 1099.18 525.731L1102.41 525.47ZM132.386 545.544L135.623 545.672C135.37 552.128 135.24 558.667 135.24 565.106L135.242 566.18H132.002L132 565.113C132 558.625 132.13 552.043 132.386 545.544H132.386ZM1100.76 564.569H1104L1104 565.113C1104 571.434 1103.88 577.834 1103.63 584.13L1100.4 584.005C1100.64 577.751 1100.76 571.392 1100.76 565.106L1100.76 564.569ZM135.669 585.609C135.936 592.043 136.338 598.571 136.866 605.011L133.636 605.276C133.106 598.792 132.701 592.221 132.432 585.744L135.669 585.609ZM1099.26 603.41L1102.49 603.663C1101.98 610.151 1101.34 616.702 1100.57 623.136L1097.35 622.753C1098.11 616.362 1098.76 609.853 1099.26 603.41ZM138.837 624.349C139.619 630.738 140.543 637.212 141.587 643.589L138.388 644.112C137.339 637.692 136.408 631.175 135.623 624.741L138.837 624.349ZM1094.67 642.003L1097.87 642.516C1096.84 648.931 1095.67 655.41 1094.38 661.772L1091.21 661.131C1092.49 654.811 1093.65 648.377 1094.67 642.003ZM145.112 662.705C146.412 669.036 147.857 675.413 149.406 681.662L146.26 682.442C144.701 676.151 143.247 669.73 141.938 663.357L145.112 662.705ZM1086.98 680.102L1090.13 680.871C1088.59 687.177 1086.89 693.54 1085.1 699.784L1081.98 698.888C1083.77 692.685 1085.45 686.365 1086.98 680.102H1086.98ZM154.463 700.429C156.267 706.617 158.222 712.858 160.279 718.976L157.206 720.008C155.137 713.848 153.167 707.566 151.353 701.336L154.463 700.429ZM1076.23 717.454L1079.3 718.476C1077.25 724.645 1075.04 730.866 1072.74 736.966L1069.71 735.821C1072 729.761 1074.19 723.582 1076.23 717.454ZM166.844 737.273C169.146 743.299 171.595 749.343 174.123 755.238L171.146 756.515C168.6 750.581 166.134 744.496 163.816 738.429L166.844 737.273ZM1062.45 753.903L1065.43 755.172C1062.88 761.157 1060.18 767.175 1057.39 773.057L1054.46 771.669C1057.23 765.827 1059.92 759.849 1062.45 753.903V753.903ZM182.125 772.901C184.898 778.709 187.828 784.54 190.834 790.233L187.97 791.747C184.942 786.015 181.992 780.145 179.201 774.297L182.125 772.901ZM1045.76 789.093L1048.63 790.597C1045.61 796.354 1042.43 802.13 1039.18 807.766L1036.37 806.146C1039.6 800.547 1042.76 794.809 1045.76 789.093L1045.76 789.093ZM200.241 807.205C203.481 812.783 206.873 818.363 210.325 823.792L207.591 825.53C204.115 820.065 200.701 814.447 197.439 808.833L200.241 807.205ZM1026.3 822.8L1029.04 824.533C1025.56 830.028 1021.93 835.526 1018.24 840.874L1015.57 839.034C1019.24 833.721 1022.85 828.26 1026.3 822.8V822.8ZM221.071 839.964C224.746 845.26 228.578 850.553 232.459 855.695L229.874 857.647C225.966 852.471 222.109 847.142 218.411 841.81L221.071 839.964ZM1004.2 854.819L1006.79 856.765C1002.89 861.962 998.824 867.148 994.718 872.18L992.207 870.132C996.287 865.133 1000.32 859.981 1004.2 854.819L1004.2 854.819ZM244.471 870.961C248.558 875.947 252.804 880.919 257.088 885.738L254.667 887.891C250.353 883.039 246.08 878.035 241.965 873.015L244.471 870.961ZM979.612 884.949L982.037 887.096C977.736 891.956 973.274 896.798 968.774 901.489L966.436 899.246C970.905 894.587 975.338 889.776 979.612 884.949V884.949ZM270.288 900.002C274.772 904.654 279.402 909.272 284.053 913.728L281.812 916.068C277.13 911.582 272.468 906.933 267.956 902.25L270.288 900.002ZM952.702 913.002L954.949 915.337C950.274 919.836 945.44 924.303 940.583 928.618L938.432 926.196C943.257 921.91 948.058 917.471 952.702 913.002L952.702 913.002ZM298.357 926.896C303.198 931.177 308.186 935.412 313.18 939.483L311.133 941.994C306.106 937.895 301.084 933.633 296.211 929.323L298.357 926.896ZM923.648 938.804L925.701 941.31C920.674 945.428 915.501 949.493 910.326 953.394L908.375 950.807C913.516 946.932 918.655 942.893 923.648 938.804L923.648 938.804ZM328.502 951.468C333.671 955.347 338.985 959.17 344.292 962.831L342.454 965.498C337.11 961.813 331.761 957.964 326.556 954.059L328.502 951.468ZM892.636 962.189L894.482 964.852C889.141 968.553 883.662 972.189 878.196 975.66L876.459 972.925C881.888 969.478 887.331 965.866 892.636 962.189V962.189ZM360.532 973.553C365.995 977.003 371.6 980.388 377.194 983.613L375.574 986.42C369.945 983.173 364.302 979.766 358.801 976.292L360.532 973.553ZM859.868 982.998L861.494 985.802C855.892 989.051 850.141 992.234 844.403 995.261L842.89 992.396C848.591 989.388 854.303 986.227 859.868 982.999V982.998ZM394.25 992.996C399.972 995.994 405.835 998.917 411.677 1001.68L410.292 1004.61C404.41 1001.83 398.505 998.884 392.747 995.866L394.25 992.996ZM825.555 1001.1L826.949 1004.02C821.107 1006.81 815.123 1009.51 809.162 1012.07L807.887 1009.09C813.807 1006.55 819.752 1003.86 825.555 1001.1V1001.1ZM429.448 1009.66C435.403 1012.19 441.488 1014.63 447.534 1016.91L446.389 1019.94C440.303 1017.64 434.175 1015.19 428.183 1012.64L429.448 1009.66ZM789.917 1016.36L791.071 1019.39C785.009 1021.7 778.81 1023.92 772.649 1025.98L771.619 1022.91C777.739 1020.86 783.895 1018.65 789.917 1016.36V1016.36ZM465.906 1023.42C472.029 1025.45 478.276 1027.38 484.476 1029.16L483.581 1032.28C477.34 1030.49 471.051 1028.54 464.887 1026.5L465.906 1023.42ZM753.067 1028.72L753.972 1031.83C747.741 1033.64 741.383 1035.35 735.074 1036.91L734.296 1033.77C740.563 1032.22 746.878 1030.52 753.067 1028.72V1028.72ZM503.264 1034.15C509.519 1035.68 515.903 1037.1 522.238 1038.37L521.598 1041.55C515.221 1040.26 508.794 1038.83 502.496 1037.3L503.264 1034.15ZM715.338 1038.05L715.988 1041.22C709.636 1042.52 703.161 1043.71 696.742 1044.76L696.22 1041.56C702.597 1040.52 709.029 1039.34 715.338 1038.05V1038.05ZM541.366 1041.82C547.738 1042.83 554.215 1043.73 560.619 1044.49L560.238 1047.71C553.791 1046.95 547.27 1046.04 540.857 1045.02L541.366 1041.82ZM676.978 1044.3L677.37 1047.52C670.925 1048.3 664.375 1048.97 657.903 1049.49L657.64 1046.26C664.07 1045.74 670.576 1045.08 676.978 1044.3H676.978ZM579.963 1046.39C586.386 1046.89 592.915 1047.27 599.368 1047.51L599.245 1050.75C592.749 1050.51 586.177 1050.12 579.711 1049.62L579.963 1046.39ZM638.238 1047.45L638.371 1050.69C631.892 1050.96 625.31 1051.1 618.807 1051.11L618.803 1047.87C625.262 1047.86 631.801 1047.72 638.238 1047.45H638.238Z"/>
</mask>
<path d="M617.731 79.1074L617.732 82.3475C611.29 82.3491 604.75 82.4819 598.293 82.7397L598.163 79.503C604.663 79.242 611.246 79.109 617.731 79.1074ZM637.293 79.4823C643.769 79.7354 650.341 80.123 656.824 80.634L656.57 83.8646C650.128 83.3552 643.6 82.9707 637.166 82.7192L637.293 79.4823ZM578.632 80.6768L578.889 83.9072C572.46 84.4213 565.953 85.0747 559.551 85.8483L559.161 82.6306C565.607 81.8523 572.158 81.1957 578.632 80.6768V80.6768ZM676.297 82.5656C682.757 83.3393 689.276 84.2522 695.676 85.2789L695.162 88.4777C688.806 87.4573 682.329 86.5509 675.912 85.7836L676.297 82.5656ZM539.787 85.3658L540.304 88.5648C533.95 89.5916 527.517 90.7669 521.183 92.0547L520.538 88.8813C526.913 87.5824 533.39 86.4005 539.787 85.3658H539.787ZM714.929 88.7722C721.305 90.0631 727.73 91.501 734.026 93.042L733.256 96.1901C727.001 94.6572 720.619 93.2302 714.287 91.9488L714.929 88.7722ZM501.444 93.1732L502.219 96.3182C495.946 97.8623 489.629 99.5536 483.443 101.346L482.541 98.2325C488.77 96.4291 495.13 94.7268 501.444 93.1732V93.1732ZM752.936 98.0823C759.183 99.8858 765.471 101.838 771.624 103.885L770.601 106.961C764.488 104.926 758.243 102.986 752.037 101.196L752.936 98.0823ZM463.861 104.059L464.887 107.132C458.771 109.176 452.612 111.373 446.58 113.665L445.428 110.637C451.502 108.329 457.703 106.116 463.861 104.059ZM790.112 110.462C796.191 112.765 802.313 115.227 808.311 117.782L807.041 120.763C801.084 118.225 795.002 115.779 788.964 113.493L790.112 110.462ZM427.33 117.934L428.602 120.914C422.679 123.444 416.732 126.126 410.928 128.886L409.535 125.959C415.38 123.181 421.367 120.481 427.33 117.934V117.934ZM826.193 125.831C832.078 128.625 837.978 131.574 843.729 134.597L842.221 137.464C836.509 134.463 830.65 131.533 824.804 128.758L826.193 125.831ZM392.071 134.7L393.581 137.567C387.874 140.57 382.158 143.726 376.593 146.945L374.97 144.142C380.573 140.9 386.327 137.723 392.071 134.7H392.071ZM860.891 144.063C866.537 147.326 872.176 150.74 877.653 154.21L875.919 156.947C870.48 153.501 864.878 150.109 859.269 146.866L860.891 144.063ZM358.255 154.267L359.989 157.004C354.558 160.445 349.111 164.05 343.8 167.722L341.959 165.058C347.305 161.361 352.788 157.73 358.255 154.267H358.255ZM893.988 165.02C899.345 168.722 904.69 172.576 909.872 176.475L907.925 179.063C902.776 175.191 897.468 171.362 892.147 167.684L893.988 165.02ZM326.102 176.496L328.051 179.084C322.915 182.947 317.771 186.98 312.764 191.071L310.714 188.562C315.754 184.444 320.932 180.384 326.102 176.496V176.496ZM925.281 188.559C930.311 192.669 935.327 196.937 940.189 201.247L938.041 203.67C933.21 199.391 928.228 195.15 923.231 191.068L925.281 188.559ZM295.818 201.239L297.966 203.662C293.139 207.94 288.333 212.375 283.682 216.841L281.439 214.503C286.12 210.008 290.958 205.545 295.817 201.239H295.818ZM954.576 214.517C959.249 219.007 963.906 223.661 968.415 228.35L966.08 230.597C961.6 225.937 956.974 221.313 952.331 216.855L954.576 214.517ZM267.597 228.337L269.932 230.584C265.466 235.229 261.029 240.033 256.741 244.866L254.318 242.715C258.634 237.852 263.101 233.014 267.597 228.337V228.337ZM981.688 242.721C986.008 247.591 990.276 252.601 994.374 257.613L991.865 259.663C987.795 254.684 983.555 249.707 979.265 244.873L981.688 242.721ZM241.622 257.616L244.131 259.666C240.037 264.672 235.996 269.82 232.12 274.966L229.532 273.017C233.433 267.836 237.502 262.655 241.622 257.616V257.616ZM1006.45 272.993C1010.35 278.178 1014.21 283.509 1017.9 288.842L1015.23 290.687C1011.57 285.389 1007.74 280.092 1003.86 274.942L1006.45 272.993ZM218.067 288.896L220.731 290.737C217.051 296.059 213.435 301.517 209.985 306.96L207.248 305.226C210.722 299.747 214.362 294.253 218.067 288.896V288.896ZM1028.7 305.134C1032.17 310.608 1035.58 316.229 1038.83 321.842L1036.03 323.465C1032.8 317.89 1029.41 312.307 1025.96 306.869L1028.7 305.134ZM197.089 321.981L199.893 323.604C196.649 329.209 193.484 334.944 190.483 340.647L187.616 339.138C190.636 333.397 193.824 327.624 197.089 321.981H197.089ZM1048.28 338.942C1051.3 344.674 1054.24 350.548 1057.03 356.401L1054.1 357.794C1051.33 351.98 1048.41 346.145 1045.41 340.451L1048.28 338.942ZM178.841 356.669L181.767 358.061C178.994 363.895 176.3 369.869 173.763 375.818L170.782 374.546C173.337 368.558 176.048 362.543 178.841 356.669V356.669ZM1065.07 374.19C1067.62 380.157 1070.08 386.245 1072.37 392.285L1069.35 393.437C1067.06 387.439 1064.62 381.391 1062.09 375.465L1065.07 374.19ZM163.451 392.742L166.481 393.891C164.183 399.952 161.981 406.129 159.939 412.25L156.866 411.225C158.921 405.062 161.138 398.844 163.451 392.742V392.742ZM1078.96 410.713C1081.02 416.871 1082.99 423.157 1084.8 429.392L1081.68 430.293C1079.89 424.101 1077.94 417.859 1075.89 411.741L1078.96 410.713ZM151.051 429.914L154.164 430.812C152.376 436.995 150.688 443.312 149.146 449.591L146.001 448.819C147.553 442.497 149.252 436.136 151.051 429.914V429.914ZM1089.87 448.292C1091.43 454.601 1092.87 461.023 1094.17 467.381L1091 468.03C1089.71 461.714 1088.27 455.334 1086.72 449.067L1089.87 448.292ZM141.72 467.911L144.897 468.556C143.615 474.867 142.445 481.301 141.416 487.678L138.217 487.163C139.252 480.743 140.431 474.266 141.72 467.911V467.911ZM1097.7 486.629C1098.73 493.026 1099.66 499.544 1100.44 506.003L1097.23 506.392C1096.45 499.975 1095.53 493.502 1094.5 487.148L1097.7 486.629ZM135.493 506.544L138.711 506.93C137.94 513.344 137.29 519.851 136.781 526.27L133.55 526.013C134.065 519.551 134.718 513 135.493 506.544V506.544ZM1102.41 525.47C1102.93 531.941 1103.33 538.513 1103.59 545.003L1100.35 545.135C1100.09 538.688 1099.7 532.16 1099.18 525.731L1102.41 525.47ZM132.386 545.544L135.623 545.672C135.37 552.128 135.24 558.667 135.24 565.106L135.242 566.18H132.002L132 565.113C132 558.625 132.13 552.043 132.386 545.544H132.386ZM1100.76 564.569H1104L1104 565.113C1104 571.434 1103.88 577.834 1103.63 584.13L1100.4 584.005C1100.64 577.751 1100.76 571.392 1100.76 565.106L1100.76 564.569ZM135.669 585.609C135.936 592.043 136.338 598.571 136.866 605.011L133.636 605.276C133.106 598.792 132.701 592.221 132.432 585.744L135.669 585.609ZM1099.26 603.41L1102.49 603.663C1101.98 610.151 1101.34 616.702 1100.57 623.136L1097.35 622.753C1098.11 616.362 1098.76 609.853 1099.26 603.41ZM138.837 624.349C139.619 630.738 140.543 637.212 141.587 643.589L138.388 644.112C137.339 637.692 136.408 631.175 135.623 624.741L138.837 624.349ZM1094.67 642.003L1097.87 642.516C1096.84 648.931 1095.67 655.41 1094.38 661.772L1091.21 661.131C1092.49 654.811 1093.65 648.377 1094.67 642.003ZM145.112 662.705C146.412 669.036 147.857 675.413 149.406 681.662L146.26 682.442C144.701 676.151 143.247 669.73 141.938 663.357L145.112 662.705ZM1086.98 680.102L1090.13 680.871C1088.59 687.177 1086.89 693.54 1085.1 699.784L1081.98 698.888C1083.77 692.685 1085.45 686.365 1086.98 680.102H1086.98ZM154.463 700.429C156.267 706.617 158.222 712.858 160.279 718.976L157.206 720.008C155.137 713.848 153.167 707.566 151.353 701.336L154.463 700.429ZM1076.23 717.454L1079.3 718.476C1077.25 724.645 1075.04 730.866 1072.74 736.966L1069.71 735.821C1072 729.761 1074.19 723.582 1076.23 717.454ZM166.844 737.273C169.146 743.299 171.595 749.343 174.123 755.238L171.146 756.515C168.6 750.581 166.134 744.496 163.816 738.429L166.844 737.273ZM1062.45 753.903L1065.43 755.172C1062.88 761.157 1060.18 767.175 1057.39 773.057L1054.46 771.669C1057.23 765.827 1059.92 759.849 1062.45 753.903V753.903ZM182.125 772.901C184.898 778.709 187.828 784.54 190.834 790.233L187.97 791.747C184.942 786.015 181.992 780.145 179.201 774.297L182.125 772.901ZM1045.76 789.093L1048.63 790.597C1045.61 796.354 1042.43 802.13 1039.18 807.766L1036.37 806.146C1039.6 800.547 1042.76 794.809 1045.76 789.093L1045.76 789.093ZM200.241 807.205C203.481 812.783 206.873 818.363 210.325 823.792L207.591 825.53C204.115 820.065 200.701 814.447 197.439 808.833L200.241 807.205ZM1026.3 822.8L1029.04 824.533C1025.56 830.028 1021.93 835.526 1018.24 840.874L1015.57 839.034C1019.24 833.721 1022.85 828.26 1026.3 822.8V822.8ZM221.071 839.964C224.746 845.26 228.578 850.553 232.459 855.695L229.874 857.647C225.966 852.471 222.109 847.142 218.411 841.81L221.071 839.964ZM1004.2 854.819L1006.79 856.765C1002.89 861.962 998.824 867.148 994.718 872.18L992.207 870.132C996.287 865.133 1000.32 859.981 1004.2 854.819L1004.2 854.819ZM244.471 870.961C248.558 875.947 252.804 880.919 257.088 885.738L254.667 887.891C250.353 883.039 246.08 878.035 241.965 873.015L244.471 870.961ZM979.612 884.949L982.037 887.096C977.736 891.956 973.274 896.798 968.774 901.489L966.436 899.246C970.905 894.587 975.338 889.776 979.612 884.949V884.949ZM270.288 900.002C274.772 904.654 279.402 909.272 284.053 913.728L281.812 916.068C277.13 911.582 272.468 906.933 267.956 902.25L270.288 900.002ZM952.702 913.002L954.949 915.337C950.274 919.836 945.44 924.303 940.583 928.618L938.432 926.196C943.257 921.91 948.058 917.471 952.702 913.002L952.702 913.002ZM298.357 926.896C303.198 931.177 308.186 935.412 313.18 939.483L311.133 941.994C306.106 937.895 301.084 933.633 296.211 929.323L298.357 926.896ZM923.648 938.804L925.701 941.31C920.674 945.428 915.501 949.493 910.326 953.394L908.375 950.807C913.516 946.932 918.655 942.893 923.648 938.804L923.648 938.804ZM328.502 951.468C333.671 955.347 338.985 959.17 344.292 962.831L342.454 965.498C337.11 961.813 331.761 957.964 326.556 954.059L328.502 951.468ZM892.636 962.189L894.482 964.852C889.141 968.553 883.662 972.189 878.196 975.66L876.459 972.925C881.888 969.478 887.331 965.866 892.636 962.189V962.189ZM360.532 973.553C365.995 977.003 371.6 980.388 377.194 983.613L375.574 986.42C369.945 983.173 364.302 979.766 358.801 976.292L360.532 973.553ZM859.868 982.998L861.494 985.802C855.892 989.051 850.141 992.234 844.403 995.261L842.89 992.396C848.591 989.388 854.303 986.227 859.868 982.999V982.998ZM394.25 992.996C399.972 995.994 405.835 998.917 411.677 1001.68L410.292 1004.61C404.41 1001.83 398.505 998.884 392.747 995.866L394.25 992.996ZM825.555 1001.1L826.949 1004.02C821.107 1006.81 815.123 1009.51 809.162 1012.07L807.887 1009.09C813.807 1006.55 819.752 1003.86 825.555 1001.1V1001.1ZM429.448 1009.66C435.403 1012.19 441.488 1014.63 447.534 1016.91L446.389 1019.94C440.303 1017.64 434.175 1015.19 428.183 1012.64L429.448 1009.66ZM789.917 1016.36L791.071 1019.39C785.009 1021.7 778.81 1023.92 772.649 1025.98L771.619 1022.91C777.739 1020.86 783.895 1018.65 789.917 1016.36V1016.36ZM465.906 1023.42C472.029 1025.45 478.276 1027.38 484.476 1029.16L483.581 1032.28C477.34 1030.49 471.051 1028.54 464.887 1026.5L465.906 1023.42ZM753.067 1028.72L753.972 1031.83C747.741 1033.64 741.383 1035.35 735.074 1036.91L734.296 1033.77C740.563 1032.22 746.878 1030.52 753.067 1028.72V1028.72ZM503.264 1034.15C509.519 1035.68 515.903 1037.1 522.238 1038.37L521.598 1041.55C515.221 1040.26 508.794 1038.83 502.496 1037.3L503.264 1034.15ZM715.338 1038.05L715.988 1041.22C709.636 1042.52 703.161 1043.71 696.742 1044.76L696.22 1041.56C702.597 1040.52 709.029 1039.34 715.338 1038.05V1038.05ZM541.366 1041.82C547.738 1042.83 554.215 1043.73 560.619 1044.49L560.238 1047.71C553.791 1046.95 547.27 1046.04 540.857 1045.02L541.366 1041.82ZM676.978 1044.3L677.37 1047.52C670.925 1048.3 664.375 1048.97 657.903 1049.49L657.64 1046.26C664.07 1045.74 670.576 1045.08 676.978 1044.3H676.978ZM579.963 1046.39C586.386 1046.89 592.915 1047.27 599.368 1047.51L599.245 1050.75C592.749 1050.51 586.177 1050.12 579.711 1049.62L579.963 1046.39ZM638.238 1047.45L638.371 1050.69C631.892 1050.96 625.31 1051.1 618.807 1051.11L618.803 1047.87C625.262 1047.86 631.801 1047.72 638.238 1047.45H638.238Z" fill="#CCCCCC" stroke="#001C26" stroke-width="4" mask="url(#path-2-inside-2)"/>
</svg>
