<svg width="4932" height="2773" viewBox="0 0 4932 2773" fill="none" xmlns="http://www.w3.org/2000/svg">
<path d="M3586.15 1927L4023.64 847H1354.96L908 1927H3586.15Z" fill="#003186"/>
<path d="M1744.13 1541.76L1664.13 1586.48L1630.14 1713.32H1410.83L1588.81 1052.46H1808.12L1706.8 1405.03L1733.46 1384.39L1932.77 1248.09H2210.74L1904.11 1445.88L2090.09 1713.32H1849.45L1744.13 1541.76Z" fill="white"/>
<path d="M2629.36 1358.16H2850.01L2816.68 1482.42H2596.7L2550.7 1650.54H2346.06L2391.39 1482.42H2170.08L2203.41 1358.16H2424.72L2468.71 1194.78H2673.36L2629.36 1358.16Z" fill="white"/>
<path d="M3261.29 1580.03C3267.07 1561.11 3244.41 1546.92 3193.3 1537.46L3145.97 1529.72C3068.65 1516.53 3011.99 1498.05 2975.99 1474.25C2940 1450.46 2923.11 1422.23 2925.33 1389.55C2927.55 1344.83 2958.22 1308.57 3017.32 1280.77C3076.87 1252.68 3149.31 1238.92 3234.63 1239.49C3319.51 1240.07 3388.17 1253.97 3440.61 1281.2C3493.49 1308.43 3520.38 1345.12 3521.27 1391.27L3302.62 1390.84C3304.4 1354.15 3279.29 1335.8 3227.3 1335.8C3205.08 1335.8 3184.41 1340.1 3165.3 1348.7C3146.2 1357.02 3134.86 1368.2 3131.31 1382.24C3123.75 1405.46 3155.53 1421.37 3226.63 1429.97C3288.4 1439.43 3336.18 1450.46 3369.95 1463.08C3403.72 1475.4 3429.5 1490.74 3447.27 1509.08C3465.05 1527.43 3473.27 1549.5 3471.94 1575.3C3470.6 1603.39 3456.38 1628.47 3429.28 1650.54C3402.17 1672.61 3362.84 1690.24 3311.29 1703.43C3260.18 1716.61 3204.63 1722.77 3144.64 1721.91C3092.65 1721.63 3044.21 1714.61 2999.32 1700.85C2954.88 1687.09 2920 1668.46 2894.67 1644.95C2869.78 1621.16 2856.89 1593.93 2856 1563.26L3059.98 1564.12C3060.87 1605.39 3092.87 1625.75 3155.97 1625.17C3183.08 1625.17 3206.19 1621.3 3225.3 1613.56C3244.41 1605.54 3256.41 1594.36 3261.29 1580.03Z" fill="white"/>
</svg>
