<svg width="4932" height="2773" viewBox="0 0 4932 2773" fill="none" xmlns="http://www.w3.org/2000/svg">
<path d="M1592.16 1722.45C1577.78 1722.45 1565.65 1723.39 1555.76 1725.26C1545.96 1727.05 1537.87 1729.82 1531.49 1733.57C1525.12 1737.24 1520.18 1741.88 1516.66 1747.51C1513.23 1753.13 1510.7 1759.74 1509.06 1767.32C1507.51 1774.91 1506.61 1783.48 1506.37 1793.02C1506.12 1802.57 1506 1813.13 1506 1824.73C1506 1836.32 1506.12 1846.89 1506.37 1856.43C1506.61 1865.98 1507.51 1874.54 1509.06 1882.13C1510.7 1889.71 1513.23 1896.32 1516.66 1901.94C1520.18 1907.57 1525.12 1912.26 1531.49 1916.01C1537.87 1919.67 1545.96 1922.4 1555.76 1924.19C1565.65 1926.06 1577.78 1927 1592.16 1927H1663.01C1677.39 1927 1689.48 1926.06 1699.29 1924.19C1709.17 1922.4 1717.3 1919.67 1723.68 1916.01C1730.05 1912.26 1734.95 1907.57 1738.39 1901.94C1738.55 1901.69 1738.67 1901.43 1738.75 1901.18L1752.97 1910.64L1762.78 1894.27L1745.74 1882.89C1745.82 1882.64 1745.86 1882.38 1745.86 1882.13C1747.5 1874.54 1748.44 1865.98 1748.68 1856.43C1749.01 1846.89 1749.17 1836.32 1749.17 1824.73C1749.17 1813.13 1749.01 1802.57 1748.68 1793.02C1748.44 1783.48 1747.5 1774.91 1745.86 1767.32C1744.31 1759.74 1741.82 1753.13 1738.39 1747.51C1734.95 1741.88 1730.05 1737.24 1723.68 1733.57C1717.3 1729.82 1709.17 1727.05 1699.29 1725.26C1689.48 1723.39 1677.39 1722.45 1663.01 1722.45H1592.16ZM1592.16 1906.55C1581.71 1906.55 1572.88 1906.25 1565.69 1905.65C1558.58 1904.97 1552.7 1903.65 1548.04 1901.69C1543.38 1899.73 1539.79 1896.91 1537.25 1893.25C1534.8 1889.59 1533.01 1884.73 1531.86 1878.68C1530.72 1872.62 1530.02 1865.21 1529.78 1856.43C1529.61 1847.57 1529.53 1837 1529.53 1824.73C1529.53 1812.45 1529.61 1801.93 1529.78 1793.15C1529.94 1784.28 1530.59 1776.83 1531.74 1770.78C1532.88 1764.72 1534.72 1759.87 1537.25 1756.2C1539.79 1752.54 1543.38 1749.72 1548.04 1747.76C1552.7 1745.8 1558.58 1744.53 1565.69 1743.93C1572.88 1743.25 1581.71 1742.91 1592.16 1742.91H1663.01C1673.47 1742.91 1682.25 1743.25 1689.36 1743.93C1696.55 1744.53 1702.43 1745.8 1707.01 1747.76C1711.67 1749.72 1715.26 1752.54 1717.79 1756.2C1720.33 1759.87 1722.17 1764.72 1723.31 1770.78C1724.45 1776.83 1725.11 1784.28 1725.27 1793.15C1725.52 1801.93 1725.64 1812.45 1725.64 1824.73C1725.64 1837 1725.52 1847.57 1725.27 1856.43C1725.19 1860.86 1724.98 1864.95 1724.66 1868.7L1652.96 1820.63L1643.03 1837.13L1720.25 1888.78C1719.51 1890.48 1718.69 1891.97 1717.79 1893.25C1715.26 1896.91 1711.67 1899.73 1707.01 1901.69C1702.35 1903.65 1696.43 1904.97 1689.24 1905.65C1682.13 1906.25 1673.38 1906.55 1663.01 1906.55H1592.16Z" fill="white"/>
<path d="M2021.76 1726.54V1824.73C2021.76 1836.32 2021.6 1846.89 2021.27 1856.43C2021.02 1865.98 2020.08 1874.54 2018.45 1882.13C2016.9 1889.71 2014.4 1896.32 2010.97 1901.94C2007.54 1907.57 2002.64 1912.26 1996.26 1916.01C1989.89 1919.67 1981.76 1922.4 1971.87 1924.19C1962.07 1926.06 1949.98 1927 1935.59 1927H1880.44C1866.06 1927 1853.92 1926.06 1844.04 1924.19C1834.23 1922.4 1826.14 1919.67 1819.77 1916.01C1813.4 1912.26 1808.45 1907.57 1804.94 1901.94C1801.51 1896.32 1798.97 1889.71 1797.34 1882.13C1795.79 1874.54 1794.89 1865.98 1794.64 1856.43C1794.4 1846.89 1794.28 1836.32 1794.28 1824.73V1726.54H1817.81V1824.73C1817.81 1837 1817.89 1847.57 1818.05 1856.43C1818.3 1865.21 1818.99 1872.62 1820.14 1878.68C1821.28 1884.73 1823.08 1889.59 1825.53 1893.25C1828.06 1896.91 1831.66 1899.73 1836.32 1901.69C1840.97 1903.65 1846.86 1904.97 1853.97 1905.65C1861.16 1906.25 1869.98 1906.55 1880.44 1906.55H1935.59C1945.97 1906.55 1954.76 1906.25 1961.95 1905.65C1969.14 1904.97 1975.02 1903.65 1979.6 1901.69C1984.25 1899.73 1987.85 1896.91 1990.38 1893.25C1992.91 1889.59 1994.75 1884.73 1995.9 1878.68C1997.12 1872.62 1997.82 1865.21 1997.98 1856.43C1998.14 1847.57 1998.23 1837 1998.23 1824.73L1998.1 1726.54H2021.76Z" fill="white"/>
<path d="M2061.1 1726.54H2084.64V1922.91H2061.1V1726.54Z" fill="white"/>
<path d="M2131.7 1922.91V1726.54H2288.71C2300.47 1726.54 2309.95 1727.56 2317.14 1729.61C2324.33 1731.57 2329.85 1734.51 2333.69 1738.43C2337.61 1742.27 2340.23 1747.08 2341.53 1752.88C2342.84 1758.67 2343.5 1765.32 2343.5 1772.82C2343.5 1778.28 2343.05 1783.09 2342.15 1787.27C2341.25 1791.44 2340.06 1795.07 2338.59 1798.13C2337.12 1801.2 2335.45 1803.8 2333.57 1805.93C2331.69 1807.98 2329.77 1809.68 2327.81 1811.05C2323.23 1814.29 2318 1816.12 2312.12 1816.54C2319.47 1816.97 2326.01 1818.85 2331.73 1822.17C2334.18 1823.62 2336.55 1825.45 2338.84 1827.67C2341.21 1829.8 2343.29 1832.48 2345.09 1835.72C2346.97 1838.87 2348.48 1842.62 2349.62 1846.97C2350.77 1851.23 2351.34 1856.18 2351.34 1861.8C2351.34 1868.62 2351.01 1874.88 2350.36 1880.59C2349.79 1886.22 2348.56 1891.29 2346.68 1895.81C2344.8 1900.32 2342.11 1904.29 2338.59 1907.7C2335.08 1911.11 2330.38 1913.96 2324.5 1916.26C2318.7 1918.48 2311.55 1920.14 2303.05 1921.25C2294.63 1922.36 2284.54 1922.91 2272.77 1922.91H2131.7ZM2264.93 1902.45C2274.08 1902.45 2282.01 1902.33 2288.71 1902.07C2295.41 1901.73 2301.09 1901.09 2305.74 1900.15C2310.4 1899.13 2314.16 1897.72 2317.02 1895.93C2319.88 1894.06 2322.09 1891.63 2323.64 1888.65C2325.27 1885.58 2326.38 1881.87 2326.95 1877.53C2327.52 1873.18 2327.81 1867.94 2327.81 1861.8C2327.81 1857.03 2327.52 1852.89 2326.95 1849.4C2326.38 1845.82 2325.27 1842.84 2323.64 1840.45C2322.09 1837.98 2319.88 1836.02 2317.02 1834.57C2314.16 1833.04 2310.4 1831.84 2305.74 1830.99C2301.09 1830.14 2295.41 1829.58 2288.71 1829.33C2282.01 1828.99 2274.08 1828.82 2264.93 1828.82H2155.23V1902.45H2264.93ZM2264.93 1808.36C2272.94 1808.36 2279.84 1808.19 2285.64 1807.85C2291.45 1807.51 2296.39 1806.87 2300.47 1805.93C2304.56 1805 2307.87 1803.72 2310.4 1802.1C2312.94 1800.39 2314.9 1798.22 2316.29 1795.58C2317.76 1792.94 2318.74 1789.78 2319.23 1786.12C2319.72 1782.37 2319.96 1777.94 2319.96 1772.82C2319.96 1767.37 2319.39 1762.93 2318.25 1759.53C2317.1 1756.12 2315.06 1753.52 2312.12 1751.73C2309.18 1749.85 2305.17 1748.62 2300.11 1748.02C2295.12 1747.34 2288.71 1747 2280.86 1747H2155.23V1808.36H2264.93Z" fill="white"/>
<path d="M2539.72 1722.45C2554.1 1722.45 2566.2 1723.39 2576 1725.26C2585.89 1727.05 2594.02 1729.82 2600.39 1733.57C2606.77 1737.24 2611.67 1741.88 2615.1 1747.51C2618.53 1753.13 2621.03 1759.74 2622.58 1767.32C2624.21 1774.91 2625.15 1783.48 2625.4 1793.02C2625.72 1802.57 2625.89 1813.13 2625.89 1824.73C2625.89 1836.32 2625.72 1846.89 2625.4 1856.43C2625.15 1865.98 2624.21 1874.54 2622.58 1882.13C2621.03 1889.71 2618.53 1896.32 2615.1 1901.94C2611.67 1907.57 2606.77 1912.26 2600.39 1916.01C2594.02 1919.67 2585.89 1922.4 2576 1924.19C2566.2 1926.06 2554.1 1927 2539.72 1927H2468.88C2454.5 1927 2442.37 1926.06 2432.48 1924.19C2422.67 1922.4 2414.58 1919.67 2408.21 1916.01C2401.84 1912.26 2396.89 1907.57 2393.38 1901.94C2389.95 1896.32 2387.41 1889.71 2385.78 1882.13C2384.23 1874.54 2383.33 1865.98 2383.08 1856.43C2382.84 1846.89 2382.72 1836.32 2382.72 1824.73C2382.72 1813.13 2382.84 1802.57 2383.08 1793.02C2383.33 1783.48 2384.23 1774.91 2385.78 1767.32C2387.41 1759.74 2389.95 1753.13 2393.38 1747.51C2396.89 1741.88 2401.84 1737.24 2408.21 1733.57C2414.58 1729.82 2422.67 1727.05 2432.48 1725.26C2442.37 1723.39 2454.5 1722.45 2468.88 1722.45H2539.72ZM2539.72 1906.55C2550.1 1906.55 2558.84 1906.25 2565.95 1905.65C2573.14 1904.97 2579.07 1903.65 2583.72 1901.69C2588.38 1899.73 2591.98 1896.91 2594.51 1893.25C2597.04 1889.59 2598.88 1884.73 2600.03 1878.68C2601.17 1872.62 2601.82 1865.21 2601.99 1856.43C2602.23 1847.57 2602.35 1837 2602.35 1824.73C2602.35 1812.45 2602.23 1801.93 2601.99 1793.15C2601.82 1784.28 2601.17 1776.83 2600.03 1770.78C2598.88 1764.72 2597.04 1759.87 2594.51 1756.2C2591.98 1752.54 2588.38 1749.72 2583.72 1747.76C2579.15 1745.8 2573.27 1744.53 2566.08 1743.93C2558.97 1743.25 2550.18 1742.91 2539.72 1742.91H2468.88C2458.42 1742.91 2449.6 1743.25 2442.41 1743.93C2435.3 1744.53 2429.41 1745.8 2424.76 1747.76C2420.1 1749.72 2416.5 1752.54 2413.97 1756.2C2411.44 1759.87 2409.6 1764.72 2408.46 1770.78C2407.31 1776.83 2406.66 1784.28 2406.49 1793.15C2406.33 1801.93 2406.25 1812.45 2406.25 1824.73C2406.25 1837 2406.33 1847.57 2406.49 1856.43C2406.74 1865.21 2407.43 1872.62 2408.58 1878.68C2409.72 1884.73 2411.52 1889.59 2413.97 1893.25C2416.5 1896.91 2420.1 1899.73 2424.76 1901.69C2429.41 1903.65 2435.3 1904.97 2442.41 1905.65C2449.6 1906.25 2458.42 1906.55 2468.88 1906.55H2539.72Z" fill="white"/>
<path d="M2880.83 1922.91H2857.29V1886.09C2857.29 1880.12 2857.17 1875.01 2856.92 1870.75C2856.76 1866.4 2856.07 1862.7 2854.84 1859.63C2853.7 1856.56 2851.86 1854.09 2849.33 1852.21C2846.79 1850.34 2843.2 1848.89 2838.54 1847.87C2833.88 1846.84 2827.96 1846.16 2820.77 1845.82C2813.66 1845.39 2804.88 1845.18 2794.42 1845.18H2688.64V1922.91H2665.11V1726.54H2798.34C2812.72 1726.54 2824.81 1727.1 2834.62 1728.2C2844.5 1729.23 2852.64 1730.8 2859.01 1732.93C2865.46 1735.07 2870.41 1737.71 2873.84 1740.86C2877.35 1744.01 2879.89 1747.72 2881.44 1751.98C2883.07 1756.24 2884.01 1761.02 2884.26 1766.3C2884.58 1771.59 2884.75 1777.42 2884.75 1783.82C2884.75 1792 2884.18 1799.2 2883.03 1805.42C2881.97 1811.56 2880.13 1816.8 2877.52 1821.15C2874.9 1825.49 2871.43 1828.99 2867.1 1831.63C2862.77 1834.19 2857.33 1835.98 2850.8 1837C2857.33 1838.02 2862.56 1839.81 2866.49 1842.37C2870.41 1844.93 2873.43 1848.25 2875.56 1852.34C2877.68 1856.43 2879.07 1861.29 2879.72 1866.91C2880.46 1872.54 2880.83 1878.93 2880.83 1886.09V1922.91ZM2688.64 1824.73H2798.34C2808.8 1824.73 2817.58 1824.56 2824.69 1824.21C2831.88 1823.79 2837.8 1823.06 2842.46 1822.04C2847.12 1821.02 2850.71 1819.57 2853.25 1817.69C2855.78 1815.82 2857.62 1813.35 2858.76 1810.28C2859.99 1807.21 2860.68 1803.55 2860.85 1799.29C2861.09 1794.94 2861.21 1789.78 2861.21 1783.82C2861.21 1778.28 2861.09 1773.5 2860.85 1769.5C2860.68 1765.49 2859.99 1762.13 2858.76 1759.4C2857.62 1756.67 2855.78 1754.5 2853.25 1752.88C2850.71 1751.26 2847.12 1750.02 2842.46 1749.17C2837.8 1748.23 2831.88 1747.64 2824.69 1747.38C2817.58 1747.12 2808.8 1747 2798.34 1747H2688.64V1824.73Z" fill="white"/>
<path d="M3108.31 1877.91H2959.27L2935.73 1922.91H2908.28L3018.1 1726.54H3049.48L3159.3 1922.91H3131.84L3108.31 1877.91ZM3096.54 1857.45L3033.79 1742.91L2971.03 1857.45H3096.54Z" fill="white"/>
<path d="M3315.32 1819.36L3426 1922.91H3392.66L3298.9 1835.21L3208.32 1922.91H3174.98L3281.98 1819.36L3182.83 1726.54H3216.17L3298.29 1803.5L3377.83 1726.54H3411.17L3315.32 1819.36Z" fill="white"/>
<path fill-rule="evenodd" clip-rule="evenodd" d="M1904.12 902.455C1991.84 853.98 2089.8 841.325 2152.07 849.142L2152.62 849.211L2153.16 849.317C2352.1 888.355 2452.71 1017.91 2481.08 1160.47C2507.89 1295.18 2470.12 1441.34 2391.77 1531.34L2429.03 1573.82H2479.62C2592.79 1421.96 2610.01 1275.91 2586.26 1154.69C2562 1030.89 2494.74 931.938 2440.55 879.146L2409.63 849.017H3085.98L3088.96 850.26C3146.27 874.144 3182.48 909.596 3201.77 950.851C3220.95 991.868 3222.52 1036.71 3214.01 1078.03C3205.52 1119.27 3186.85 1157.9 3164.22 1187.58C3145.57 1212.05 3122.9 1232.13 3099.46 1241.31V1264.42C3149.46 1289.04 3182.53 1324.12 3201.37 1364.08C3221.36 1406.47 3224.74 1453.04 3216.96 1496.07C3209.19 1539.02 3190.18 1579.19 3164.37 1609.32C3138.64 1639.35 3105.03 1660.6 3068.02 1662.57L3067.59 1662.6H2340.19L2284.83 1612.52C2238.44 1638.77 2178.18 1652.1 2152.31 1655.75L2151.58 1655.86L2150.85 1655.89C1957.81 1665.21 1841.35 1589.94 1777.32 1487.84C1714.1 1387.04 1703.6 1262.69 1716.55 1175.09C1736.95 1037.05 1815.74 951.293 1904.12 902.455ZM1919.75 933.22C1838.82 977.944 1768.05 1055.24 1749.55 1180.39C1737.51 1261.82 1747.65 1376.92 1805.26 1468.78C1861.98 1559.22 1966.31 1629.74 2148.56 1621.15C2175.18 1617.29 2236.92 1602.93 2278 1576.43L2288.45 1569.69L2352.66 1627.78H3066.71C3092.19 1626.28 3117.89 1611.32 3139.47 1586.13C3161.09 1560.9 3177.46 1526.57 3184.15 1489.62C3190.82 1452.75 3187.72 1414.02 3171.41 1379.44C3155.2 1345.08 3125.35 1313.52 3076.23 1291.7L3066.07 1287.2V1213.89L3079.6 1211.16C3096.43 1207.76 3118.05 1192.2 3138.09 1165.92C3157.72 1140.15 3174.03 1106.38 3181.37 1070.72C3188.69 1035.13 3186.93 998.559 3171.76 966.11C3156.99 934.521 3128.66 904.994 3079.51 883.834H2491.45C2542.92 944.101 2597.14 1036.34 2618.97 1147.72C2645 1280.58 2624.68 1439.63 2500.8 1602.07L2495.79 1608.64H2414.31L2345.76 1530.47L2357.17 1518.7C2434.2 1439.2 2474.37 1298.07 2448.39 1167.55C2422.77 1038.8 2332.68 920.172 2147.54 883.642C2091.85 876.799 2001.08 888.28 1919.75 933.22Z" fill="white"/>
</svg>
