<?xml version="1.0" standalone="no"?>
<!DOCTYPE svg PUBLIC "-//W3C//DTD SVG 20010904//EN"
 "http://www.w3.org/TR/2001/REC-SVG-20010904/DTD/svg10.dtd">
<svg version="1.0" xmlns="http://www.w3.org/2000/svg"
 width="1040.000000pt" height="1040.000000pt" viewBox="0 0 1040.000000 1040.000000"
 preserveAspectRatio="xMidYMid meet">
<metadata>
Created by potrace 1.11, written by Peter Selinger 2001-2013
</metadata>
<g transform="translate(0.000000,1040.000000) scale(0.100000,-0.100000)"
fill="#000000" stroke="none">
<path d="M2519 9012 c-9 -15 -126 -200 -260 -412 -1825 -2872 -2259 -3561
-2259 -3584 0 -37 58 -90 126 -116 110 -41 191 -53 354 -53 252 0 463 48 685
158 224 110 390 256 503 443 33 53 213 349 402 657 189 308 491 803 673 1100
181 297 354 573 385 614 182 245 362 391 556 450 68 21 70 21 1755 21 l1686 0
36 -29 c62 -51 139 -177 285 -466 135 -266 144 -280 176 -288 39 -11 135 -4
149 10 6 6 -120 271 -366 766 l-376 757 -2247 0 -2247 0 -16 -28z"/>
<path d="M6442 6748 c-5 -7 -51 -105 -102 -218 -189 -421 -337 -682 -417 -736
-50 -34 -150 -54 -260 -53 -54 0 -114 6 -134 12 l-37 12 52 105 c28 58 81 168
118 245 37 77 110 230 163 340 94 193 135 282 135 291 0 2 -184 4 -410 4
l-410 0 -124 -247 c-69 -137 -181 -351 -249 -478 l-124 -230 -92 -52 c-372
-212 -1201 -640 -1531 -791 -1382 -631 -2315 -800 -2875 -520 -44 22 -93 49
-108 60 -16 11 -30 18 -33 15 -16 -15 263 -495 616 -1057 91 -146 195 -312
230 -368 118 -189 410 -624 566 -842 207 -290 385 -511 524 -651 124 -125 183
-170 270 -206 l55 -23 2470 0 c2403 0 2473 1 2564 20 365 75 634 388 1155
1345 152 278 616 1200 860 1710 413 859 1086 2288 1086 2305 0 7 -94 10 -288
10 l-287 0 -125 -237 c-366 -696 -424 -753 -761 -753 -61 0 -110 4 -114 10 -3
6 43 106 103 223 303 586 382 741 382 748 0 5 -135 9 -301 9 l-300 0 -90 -185
c-49 -102 -130 -269 -179 -372 -117 -241 -172 -336 -235 -399 -74 -75 -119
-87 -300 -82 -79 2 -147 6 -150 10 -4 4 25 76 65 160 108 228 327 691 370 786
l39 82 -301 -2 c-255 -3 -302 -5 -310 -18 -4 -8 -51 -114 -104 -235 -225 -518
-316 -660 -472 -733 -55 -26 -63 -27 -234 -27 -97 0 -179 3 -182 6 -4 4 39 98
95 210 173 347 389 791 389 800 0 5 -148 9 -329 9 -251 0 -331 -3 -339 -12z"/>
</g>
</svg>
