<svg width="261" height="193" viewBox="0 0 261 193" fill="none" xmlns="http://www.w3.org/2000/svg">
<path d="M247.023 70.3555H258.855C259.723 70.3555 260.263 71.3174 259.872 72.0924C197.275 196.089 195.486 192.364 173.953 192.364C152.365 192.364 114.261 192.364 114.102 192.364H114.102H62.1577C54.8867 192.364 48.269 193.109 26.1229 157.435C25.5175 156.459 26.5677 155.236 27.6498 155.619C59.3897 166.871 94.773 136.928 129.806 70.9832C130.008 70.6019 130.408 70.3555 130.84 70.3555H142.964C143.855 70.3555 144.416 71.3138 143.981 72.0906L140.67 77.9971L134.055 89.6926C133.685 90.3465 134.021 91.1761 134.752 91.3496C137.912 92.0996 141.412 92.3111 144.844 90.9724C148.716 89.4635 153.766 80.1261 158.85 71.0032C159.055 70.6356 159.442 70.4074 159.863 70.4058L171.757 70.3627C172.65 70.3595 173.215 71.3212 172.777 72.0997L162.691 90.0173C162.277 90.7527 162.767 91.6721 163.608 91.7426C176.287 92.805 176.516 90.9342 187.809 70.9594C188.016 70.5939 188.41 70.3555 188.83 70.3555H200.845C201.738 70.3555 202.299 71.3191 201.858 72.096L198.602 77.8342L191.761 90.0205C191.345 90.7606 191.844 91.6845 192.69 91.7569C204.473 92.7654 204.657 92.6127 216.873 70.9623C217.079 70.5961 217.475 70.3555 217.895 70.3555H229.674C230.567 70.3555 231.128 71.3175 230.689 72.0943L227.352 77.9971L220.62 89.9828C220.206 90.7199 220.699 91.6403 221.542 91.707C233.805 92.6764 234.858 90.8724 245.999 70.9642C246.205 70.596 246.601 70.3555 247.023 70.3555Z" fill="#273F4C" fill-opacity="0.992157"/>
<path fill-rule="evenodd" clip-rule="evenodd" d="M106.277 86.6731C106.757 85.9089 105.929 85.0049 105.125 85.4148V85.4148C72.9952 101.796 27.3995 125.044 2.07317 114.778C0.912115 114.308 -0.493396 115.779 0.171165 116.841L6.53747 127.015C17.2193 143.514 18.4213 145.326 18.4225 145.328C18.4225 145.328 18.4225 145.328 18.4225 145.328V145.328C18.4225 145.327 18.4226 145.327 18.4226 145.327C34.2998 153.272 51.4455 146.603 66.7645 134.976C79.7808 124.067 93.0374 107.762 106.277 86.6731Z" fill="#FF6E40"/>
<path opacity="0.99" d="M195.566 33.7091C195.571 33.7794 195.517 34.1435 193.837 34.1435C192.138 34.1435 190.912 33.7779 190.711 33.7144C190.692 33.7084 190.677 33.6958 190.666 33.6788L187.535 28.6441L187.534 28.6434L185.589 25.5162C183.035 21.7008 179.396 18.2829 169.104 18.1788L153.532 18.1788L163.277 18.1767L98.2633 18.1767C86.0872 18.1767 86.0618 15.8571 79.1748 28.1018L47.5263 83.6352C47.5239 83.6394 47.5211 83.6433 47.5181 83.6471C33.8166 100.44 -0.391966 95.9892 3.21833 90.4893L21.7855 61.3346L40.3387 32.1799C62.4763 -3.32986 63.5325 0.0891436 81.3237 0.0891463L159.719 0.0891463C172.751 0.0891463 178.751 6.97822 178.841 7.08146C178.841 7.08146 178.843 7.08444 178.845 7.08805L195.558 33.6874C195.562 33.6941 195.565 33.7012 195.566 33.7091Z" fill="#273F4C" fill-opacity="0.992157"/>
</svg>
