<svg width="21" height="19" viewBox="0 0 21 19" fill="none" xmlns="http://www.w3.org/2000/svg">
<g clip-path="url(#clip0)">
<path d="M20.0363 2.50664L17.2107 0L11.5809 4.99441L14.3257 7.42941C13.5802 8.42138 12.6838 9.38396 11.6562 10.2955C10.6087 11.2249 9.50324 12.0322 8.36448 12.7L5.6298 10.2739L0 15.2683L2.89111 17.8331L2.9087 17.8482C4.09184 18.818 6.08906 18.8877 8.53244 18.0444C10.8242 17.2535 13.3065 15.7355 15.5219 13.7701C17.7638 11.7812 19.4848 9.55621 20.3678 7.50487C20.79 6.5244 21 5.62783 21 4.84413C21 3.87319 20.6775 3.07548 20.0363 2.50664ZM13.3319 4.99441L17.2107 1.55335L18.4162 2.62279L14.5374 6.06385L13.3319 4.99441ZM1.75096 15.2683L5.6298 11.8273L6.83525 12.8967L2.95645 16.3378L1.75096 15.2683ZM19.2112 7.11299C18.389 9.02307 16.7678 11.1115 14.6464 12.9934C12.5497 14.8536 10.219 16.2838 8.08361 17.0208C6.20312 17.6698 4.66676 17.6998 3.83783 17.1092L7.71077 13.6734L8.18943 14.098L8.60684 13.8672C9.9711 13.1128 11.2916 12.1724 12.5318 11.0722C13.7508 9.99074 14.7971 8.83852 15.6415 7.64754L15.9045 7.27662L15.4129 6.84049L19.2841 3.40616C19.9415 4.13368 19.9187 5.46944 19.2112 7.11299Z" fill="#27424F"/>
</g>
<defs>
<clipPath id="clip0">
<rect width="21" height="18.63" fill="white"/>
</clipPath>
</defs>
</svg>
