<svg width="21" height="19" viewBox="0 0 21 19" fill="none" xmlns="http://www.w3.org/2000/svg">
<path d="M17.4744 13.0007C16.1653 13.0007 15.0214 13.6114 14.4133 14.5151L6.7827 10.647C6.95532 10.2934 7.05112 9.90609 7.05112 9.5C7.05112 9.09391 6.95524 8.70662 6.78262 8.35303L14.4133 4.48489C15.0214 5.38858 16.1653 5.99929 17.4744 5.99929C19.4184 5.99929 21 4.65366 21 2.99966C21 1.34566 19.4185 0 17.4744 0C15.5304 0 13.9489 1.34562 13.9489 2.99962C13.9489 3.13801 13.9609 3.27401 13.9823 3.40749L6.06385 7.42146C5.42204 6.85431 4.52173 6.50034 3.52549 6.50034C1.58154 6.50034 0 7.84599 0 9.5C0 11.154 1.58154 12.4997 3.52549 12.4997C4.52173 12.4997 5.42209 12.1457 6.06385 11.5785L13.9823 15.5925C13.9608 15.726 13.9488 15.862 13.9488 16.0003C13.9488 17.6544 15.5303 19 17.4744 19C19.4184 19 20.9999 17.6544 20.9999 16.0003C20.9999 14.3464 19.4185 13.0007 17.4744 13.0007ZM17.4744 1.11328C18.6969 1.11328 19.6915 1.95949 19.6915 2.99962C19.6915 4.03976 18.6969 4.88597 17.4744 4.88597C16.2519 4.88597 15.2573 4.03976 15.2573 2.99962C15.2574 1.95949 16.2519 1.11328 17.4744 1.11328ZM3.52554 11.3863C2.30308 11.3863 1.30851 10.5401 1.30851 9.5C1.30851 8.45988 2.30308 7.61368 3.52554 7.61368C4.74805 7.61368 5.74262 8.45988 5.74262 9.5C5.74262 10.5401 4.74805 11.3863 3.52554 11.3863ZM17.4744 17.8867C16.2519 17.8867 15.2573 17.0405 15.2573 16.0003C15.2573 14.9602 16.2519 14.114 17.4744 14.114C18.6969 14.114 19.6915 14.9602 19.6915 16.0003C19.6915 17.0405 18.6969 17.8867 17.4744 17.8867Z" fill="#27424F"/>
</svg>
