<svg width="146" height="109" viewBox="0 0 146 109" fill="none" xmlns="http://www.w3.org/2000/svg">
<path fill-rule="evenodd" clip-rule="evenodd" d="M0.279193 56.4363C2.38288 53.1078 35.5064 0.931641 35.5064 0.931641H97.9793L108.51 22.072C108.51 22.072 108.326 22.3419 107.243 22.3419C106.159 22.3419 105.869 22.072 105.869 22.072L103.163 16.6745L102.39 15.1345H102.377C102.377 15.1345 100.448 11.2781 98.9786 11.2781H95.8561L95.8569 11.2769H53.2145C49.251 11.4939 45.981 14.5434 42.9684 18.7221L22.4796 52.2081C14.4985 62.3736 -1.82449 59.7646 0.279193 56.4363Z" fill="#FF6F41" fill-opacity="0.976471"/>
<path d="M26.6849 92.7201C47.454 95.5988 62.7304 51.8088 66.0668 45.5996C47.5363 55.859 14.1196 74.3799 0 64.1209C0 64.1209 0.325686 65.1798 4.77257 72.5337C9.21948 79.8877 12.7186 85.2469 12.7186 85.2469L16.6773 89.1792L26.6849 92.7201Z" fill="white"/>
<path d="M137.113 33.0004H145.108C109.93 108.065 108.731 108.065 96.7382 108.066C84.7457 108.066 63.5589 108.065 63.5589 108.065H33.1779C30.2882 108.065 27.5813 108.065 12.6875 85.2851C30.8324 94.1745 51.5664 74.0868 71.768 33.0004L83.1467 32.9125L79.8393 39.8055L76.5319 46.6984C77.3146 47.082 80.1539 47.4249 82.3472 46.504C84.5402 45.5838 87.9843 37.1097 89.942 32.8906H99.1833L92.2319 46.9991C100.336 48.103 100.736 46.1043 106.438 33.0004L114.727 32.9125L111.529 39.7083L107.931 47.3035C115.527 48.103 114.327 47.7033 121.536 33.0004L129.918 32.9125L122.822 46.6984C130.317 47.3035 130.317 45.7924 137.113 33.0004Z" fill="#FF6F41" fill-opacity="0.976471"/>
</svg>
