<svg width="4932" height="2773" viewBox="0 0 4932 2773" fill="none" xmlns="http://www.w3.org/2000/svg">
<path d="M2771.04 1713.43C2759.02 1779.88 2729.69 1832.51 2683.04 1871.32C2636.68 1910.13 2581.01 1928.65 2516.05 1926.89C2477.41 1926 2443.64 1916.3 2414.74 1897.78C2385.83 1878.96 2363.37 1852.06 2347.34 1817.07C2331.32 1781.79 2322.44 1742.83 2320.73 1700.2C2319.58 1676.09 2320.58 1652.57 2323.73 1629.64L2331.03 1576.71C2344.48 1480.28 2377.39 1404.27 2429.76 1348.7C2482.42 1292.84 2546.38 1265.65 2621.65 1267.12C2680.32 1268.29 2726.82 1287.84 2761.17 1325.77C2795.51 1363.41 2813.68 1415.74 2815.69 1482.78H2735.41C2731.69 1392.81 2697.35 1344.29 2632.38 1337.24L2618.22 1336.36C2564.13 1334.89 2518.91 1355.61 2482.57 1398.54C2446.51 1441.17 2423.18 1499.53 2412.59 1573.63L2403.15 1640.22L2400.57 1679.03C2398.86 1733.13 2408.16 1776.2 2428.48 1808.25C2449.08 1840 2479.56 1856.47 2519.91 1857.64C2563.41 1859.11 2599.33 1848.38 2627.66 1825.45C2656.28 1802.52 2678.03 1765.62 2692.91 1714.75L2771.04 1713.43Z" fill="#318DDE"/>
<path d="M3237.24 1634.49H2983.1L2935.02 1918.06H2854.32L2962.93 1275.94H3338.98L3326.96 1345.62H3031.61L2994.69 1565.25H3249.26L3237.24 1634.49Z" fill="#318DDE"/>
<path d="M3551.04 1804.72L3804.74 1275.94H3895.75L3572.93 1918.06H3501.67L3375.04 1275.94H3459.6L3551.04 1804.72Z" fill="#318DDE"/>
<path d="M1412.06 1193.21L1224.55 872.141L1210.41 847H1628.38L1412.06 1193.21Z" fill="#318DDE"/>
<path d="M1684.94 847L1036 1925.95H1455.53L2089.81 847H1684.94Z" fill="#318DDE"/>
<path d="M1877.69 1925.95L1684.94 1612.22H2089.81L1877.69 1925.95Z" fill="#318DDE"/>
<path d="M2119.67 1548.32H1705.89L1909.64 1232.49H2316.6L2119.67 1548.32Z" fill="#318DDE"/>
<path d="M2119.67 847L1930.59 1171.21H2356.93L2554.39 847H2119.67Z" fill="#318DDE"/>
<path d="M1456.58 1926.48L2090.86 847H1685.47L1036 1926.48H1456.58Z" fill="#7A868C" stroke="black"/>
</svg>
