<svg width="1261" height="1261" viewBox="0 0 1261 1261" fill="none" xmlns="http://www.w3.org/2000/svg">
<mask id="path-1-inside-1" fill="white">
<path d="M629.705 1260.11L629.706 1255.91C621.355 1255.91 612.877 1255.73 604.506 1255.4L604.338 1259.6C612.764 1259.93 621.298 1260.11 629.705 1260.11ZM655.065 1259.62C663.462 1259.29 671.981 1258.79 680.386 1258.13L680.056 1253.94C671.706 1254.6 663.242 1255.1 654.901 1255.43L655.065 1259.62ZM579.017 1258.07L579.351 1253.89C571.016 1253.22 562.58 1252.37 554.28 1251.37L553.775 1255.54C562.132 1256.55 570.624 1257.4 579.017 1258.07V1258.07ZM705.63 1255.62C714.006 1254.62 722.458 1253.44 730.754 1252.11L730.087 1247.96C721.847 1249.28 713.451 1250.46 705.132 1251.45L705.63 1255.62ZM528.658 1251.99L529.329 1247.85C521.091 1246.52 512.751 1244.99 504.54 1243.32L503.703 1247.44C511.969 1249.12 520.365 1250.65 528.658 1251.99H528.658ZM755.714 1247.58C763.98 1245.91 772.309 1244.04 780.472 1242.04L779.473 1237.96C771.365 1239.95 763.091 1241.8 754.881 1243.46L755.714 1247.58ZM478.95 1241.87L479.955 1237.8C471.822 1235.79 463.633 1233.6 455.613 1231.28L454.444 1235.31C462.519 1237.65 470.764 1239.86 478.95 1241.87V1241.87ZM804.986 1235.51C813.085 1233.17 821.237 1230.64 829.214 1227.99L827.887 1224C819.963 1226.64 811.866 1229.15 803.821 1231.47L804.986 1235.51ZM430.227 1227.76L431.558 1223.78C423.629 1221.13 415.644 1218.28 407.824 1215.31L406.331 1219.23C414.205 1222.22 422.244 1225.09 430.227 1227.76ZM853.183 1219.46C861.062 1216.47 869 1213.28 876.775 1209.97L875.129 1206.11C867.406 1209.4 859.521 1212.57 851.693 1215.53L853.183 1219.46ZM382.868 1209.77L384.517 1205.91C376.838 1202.63 369.129 1199.15 361.604 1195.57L359.799 1199.37C367.375 1202.97 375.138 1206.47 382.868 1209.77V1209.77ZM899.958 1199.54C907.587 1195.91 915.236 1192.09 922.691 1188.17L920.737 1184.45C913.332 1188.34 905.735 1192.14 898.157 1195.74L899.958 1199.54ZM337.158 1188.04L339.115 1184.32C331.717 1180.43 324.307 1176.34 317.091 1172.16L314.987 1175.8C322.252 1180 329.711 1184.12 337.158 1188.04H337.158ZM944.94 1175.9C952.26 1171.67 959.571 1167.24 966.67 1162.74L964.422 1159.2C957.371 1163.66 950.109 1168.06 942.838 1172.27L944.94 1175.9ZM293.319 1162.67L295.567 1159.12C288.526 1154.66 281.464 1149.99 274.579 1145.23L272.192 1148.68C279.122 1153.47 286.231 1158.18 293.319 1162.67H293.319ZM987.848 1148.73C994.793 1143.93 1001.72 1138.94 1008.44 1133.88L1005.92 1130.52C999.241 1135.55 992.359 1140.51 985.46 1145.28L987.848 1148.73ZM251.635 1133.85L254.162 1130.5C247.503 1125.49 240.835 1120.26 234.344 1114.96L231.686 1118.21C238.22 1123.55 244.933 1128.81 251.635 1133.85V1133.85ZM1028.42 1118.21C1034.94 1112.89 1041.44 1107.35 1047.74 1101.77L1044.96 1098.62C1038.7 1104.17 1032.24 1109.67 1025.76 1114.96L1028.42 1118.21ZM212.374 1101.78L215.159 1098.63C208.901 1093.09 202.671 1087.34 196.641 1081.55L193.733 1084.58C199.801 1090.41 206.073 1096.19 212.374 1101.78H212.374ZM1066.39 1084.56C1072.45 1078.74 1078.49 1072.71 1084.34 1066.63L1081.31 1063.72C1075.5 1069.76 1069.5 1075.75 1063.48 1081.53L1066.39 1084.56ZM175.789 1066.65L178.816 1063.73C173.026 1057.71 167.273 1051.48 161.715 1045.22L158.573 1048.01C164.168 1054.31 169.96 1060.58 175.789 1066.65V1066.65ZM1101.54 1048C1107.14 1041.69 1112.68 1035.19 1117.99 1028.69L1114.74 1026.03C1109.46 1032.49 1103.96 1038.94 1098.4 1045.21L1101.54 1048ZM142.114 1028.69L145.367 1026.03C140.059 1019.54 134.821 1012.87 129.796 1006.2L126.441 1008.72C131.498 1015.44 136.773 1022.16 142.114 1028.69V1028.69ZM1133.64 1008.75C1138.71 1002.03 1143.7 995.12 1148.48 988.206L1145.03 985.815C1140.28 992.684 1135.32 999.55 1130.29 1006.23L1133.64 1008.75ZM111.577 988.137L115.031 985.749C110.261 978.85 105.572 971.774 101.099 964.719L97.5508 966.967C102.055 974.069 106.774 981.192 111.577 988.137V988.137ZM1162.48 967.086C1166.99 959.989 1171.41 952.702 1175.62 945.425L1171.99 943.321C1167.8 950.549 1163.41 957.786 1158.94 964.836L1162.48 967.086ZM84.3813 945.245L88.0156 943.141C83.8112 935.874 79.7073 928.439 75.8165 921.046L72.1002 923.002C76.0156 930.445 80.1483 937.929 84.3816 945.245H84.3813ZM1187.87 923.257C1191.79 915.826 1195.6 908.211 1199.22 900.622L1195.42 898.817C1191.83 906.354 1188.04 913.919 1184.16 921.3L1187.87 923.257ZM60.7237 900.275L64.5181 898.471C60.9227 890.907 57.4302 883.162 54.1405 875.451L50.2764 877.1C53.5887 884.863 57.1038 892.66 60.7237 900.275V900.275ZM1209.63 877.561C1212.94 869.825 1216.13 861.933 1219.11 854.102L1215.18 852.609C1212.22 860.384 1209.06 868.225 1205.77 875.908L1209.63 877.561ZM40.7721 853.51L44.6999 852.021C41.722 844.163 38.8669 836.154 36.2191 828.219L32.2361 829.548C34.9001 837.539 37.7736 845.599 40.7721 853.51V853.51ZM1227.65 830.213C1230.32 822.228 1232.87 814.08 1235.21 805.997L1231.18 804.828C1228.85 812.855 1226.32 820.948 1223.67 828.879L1227.65 830.213ZM24.6966 805.32L28.7328 804.155C26.4152 796.14 24.2269 787.951 22.2272 779.81L18.15 780.811C20.1621 789.007 22.3647 797.254 24.6966 805.32V805.32ZM1241.79 781.494C1243.81 773.315 1245.68 764.99 1247.37 756.747L1243.25 755.907C1241.58 764.094 1239.72 772.366 1237.71 780.489L1241.79 781.494ZM12.6001 756.06L16.7185 755.223C15.0572 747.042 13.5395 738.701 12.2062 730.434L8.05938 731.102C9.40075 739.425 10.9285 747.822 12.6001 756.06V756.06ZM1251.94 731.793C1253.28 723.501 1254.48 715.051 1255.5 706.677L1251.33 706.173C1250.32 714.492 1249.13 722.884 1247.79 731.121L1251.94 731.793ZM4.52761 705.976L8.6991 705.475C7.70027 697.161 6.85751 688.725 6.19708 680.404L2.00891 680.736C2.67559 689.114 3.52275 697.606 4.52761 705.976V705.976ZM1258.04 681.44C1258.72 673.051 1259.24 664.531 1259.58 656.117L1255.38 655.947C1255.04 664.304 1254.53 672.768 1253.86 681.102L1258.04 681.44ZM0.499714 655.417L4.69582 655.251C4.36762 646.881 4.19968 638.404 4.19968 630.056L4.2016 628.664H0.00138903L-0.000799008 630.046C-0.000933441 638.458 0.167122 646.99 0.499441 655.417H0.499714ZM1255.91 630.752H1260.11L1260.11 630.046C1260.11 621.853 1259.95 613.555 1259.63 605.393L1255.44 605.555C1255.75 613.663 1255.91 621.906 1255.91 630.056L1255.91 630.752ZM4.75544 603.475C5.10212 595.135 5.62285 586.672 6.30785 578.322L2.11995 577.98C1.43291 586.385 0.907671 594.904 0.559064 603.301L4.75544 603.475ZM1253.97 580.399L1258.15 580.071C1257.49 571.66 1256.66 563.167 1255.66 554.825L1251.49 555.322C1252.48 563.608 1253.31 572.045 1253.97 580.399ZM8.8632 553.253C9.8764 544.97 11.0741 536.577 12.4278 528.31L8.28091 527.632C6.92119 535.955 5.71312 544.403 4.69582 552.745L8.8632 553.253ZM1248.01 530.366L1252.16 529.701C1250.83 521.384 1249.31 512.985 1247.64 504.738L1243.53 505.568C1245.18 513.761 1246.69 522.103 1248.01 530.366ZM16.9975 503.528C18.6834 495.32 20.5559 487.052 22.5639 478.952L18.4865 477.941C16.4642 486.096 14.5793 494.421 12.8832 502.683L16.9975 503.528ZM1238.04 480.974L1242.12 479.978C1240.13 471.803 1237.93 463.554 1235.6 455.458L1231.57 456.62C1233.88 464.661 1236.06 472.855 1238.04 480.974H1238.04ZM29.1206 454.622C31.4586 446.599 33.9936 438.509 36.6597 430.577L32.677 429.24C29.9943 437.225 27.4407 445.37 25.0883 453.446L29.1206 454.622ZM1224.11 432.551L1228.09 431.226C1225.43 423.229 1222.57 415.163 1219.58 407.255L1215.65 408.74C1218.62 416.596 1221.47 424.607 1224.11 432.551ZM45.1715 406.858C48.1557 399.045 51.3305 391.209 54.6079 383.567L50.7479 381.912C47.448 389.605 44.2504 397.493 41.2456 405.359L45.1715 406.858ZM1206.24 385.298L1210.11 383.653C1206.8 375.894 1203.3 368.092 1199.68 360.467L1195.89 362.266C1199.48 369.84 1202.96 377.59 1206.24 385.298V385.298ZM64.9817 360.668C68.577 353.139 72.375 345.579 76.2719 338.199L72.5596 336.237C68.6342 343.668 64.8091 351.278 61.1912 358.859L64.9817 360.668ZM1184.61 339.678L1188.33 337.727C1184.42 330.265 1180.29 322.777 1176.07 315.47L1172.44 317.57C1176.63 324.828 1180.72 332.267 1184.61 339.678L1184.61 339.678ZM88.4672 316.196C92.6675 308.966 97.0647 301.732 101.54 294.694L97.9958 292.44C93.4898 299.525 89.0638 306.808 84.8348 314.086L88.4672 316.196ZM1159.38 295.979L1162.93 293.733C1158.42 286.609 1153.71 279.481 1148.93 272.548L1145.47 274.934C1150.23 281.821 1154.9 288.901 1159.38 295.979V295.979ZM115.472 273.728C120.236 266.863 125.204 260 130.235 253.334L126.884 250.804C121.818 257.514 116.818 264.422 112.022 271.335L115.472 273.728ZM1130.73 254.47L1134.09 251.947C1129.02 245.21 1123.76 238.487 1118.44 231.962L1115.18 234.618C1120.47 241.098 1125.7 247.777 1130.73 254.47L1130.73 254.47ZM145.808 233.543C151.106 227.079 156.61 220.634 162.164 214.387L159.026 211.595C153.433 217.885 147.894 224.373 142.559 230.881L145.808 233.543ZM1098.85 215.409L1102 212.626C1096.42 206.326 1090.63 200.048 1084.8 193.966L1081.77 196.875C1087.56 202.915 1093.31 209.152 1098.85 215.409V215.409ZM179.277 195.894C185.09 189.864 191.093 183.877 197.123 178.099L194.216 175.066C188.148 180.882 182.103 186.909 176.254 192.98L179.277 195.894ZM1063.97 179.041L1066.88 176.013C1060.82 170.181 1054.55 164.39 1048.25 158.797L1045.47 161.937C1051.72 167.493 1057.95 173.248 1063.97 179.041L1063.97 179.041ZM215.665 161.028C221.941 155.479 228.408 149.989 234.883 144.711L232.229 141.455C225.711 146.769 219.201 152.295 212.884 157.882L215.665 161.028ZM1026.3 145.591L1028.96 142.342C1022.44 137.004 1015.74 131.734 1009.03 126.677L1006.5 130.03C1013.16 135.054 1019.83 140.29 1026.3 145.591L1026.3 145.591ZM254.746 129.174C261.447 124.145 268.336 119.189 275.217 114.443L272.834 110.985C265.906 115.762 258.971 120.751 252.224 125.814L254.746 129.174ZM986.095 115.274L988.488 111.823C981.564 107.024 974.461 102.31 967.375 97.8104L965.123 101.356C972.162 105.825 979.218 110.508 986.095 115.274V115.274ZM296.27 100.542C303.352 96.0691 310.618 91.6811 317.871 87.5002L315.77 83.8618C308.473 88.0704 301.157 92.4881 294.026 96.991L296.27 100.542ZM943.614 88.297L945.722 84.6627C938.459 80.4511 931.004 76.3245 923.565 72.4001L921.604 76.1143C928.995 80.0131 936.4 84.1119 943.614 88.2969V88.297ZM339.982 75.336C347.4 71.4494 355.001 67.6603 362.576 64.0742L360.779 60.2779C353.153 63.8875 345.499 67.7023 338.034 71.6155L339.982 75.336ZM899.13 64.835L900.938 61.0428C893.364 57.432 885.606 53.9229 877.879 50.6126L876.226 54.4736C883.901 57.7611 891.607 61.2467 899.13 64.8349V64.835ZM385.614 53.7342C393.334 50.4557 401.222 47.2942 409.061 44.3346L407.576 40.405C399.686 43.384 391.742 46.5681 383.973 49.8681L385.614 53.7342ZM852.929 45.0494L854.425 41.1239C846.566 38.1275 838.53 35.25 830.542 32.5704L829.207 36.5534C837.141 39.2143 845.122 42.0733 852.929 45.0493V45.0494ZM432.878 35.8929C440.816 33.2605 448.915 30.7553 456.953 28.4468L455.792 24.4106C447.701 26.7343 439.548 29.256 431.558 31.9058L432.878 35.8929ZM805.156 29.0242L806.329 24.992C798.252 22.6417 790.009 20.4246 781.831 18.4013L780.822 22.4786C788.945 24.4884 797.133 26.6911 805.156 29.0241V29.0242ZM481.309 21.9843C489.418 20.0062 497.695 18.1654 505.907 16.5134L505.078 12.395C496.811 14.0584 488.479 15.9124 480.314 17.9029L481.309 21.9843ZM756.244 16.9276L757.087 12.8133C748.852 11.1274 740.458 9.58513 732.136 8.22841L731.459 12.3734C739.727 13.7218 748.065 15.2539 756.244 16.9276V16.9276ZM530.705 12.0422C538.966 10.7254 547.363 9.55845 555.665 8.57604L555.171 4.40438C546.814 5.39396 538.359 6.56814 530.045 7.89515L530.705 12.0422ZM706.513 8.82318L707.022 4.65351C698.666 3.6363 690.175 2.77368 681.785 2.09289L681.444 6.27891C689.78 6.95679 698.214 7.81207 706.513 8.82318H706.513ZM580.743 6.11487C589.069 5.46574 597.534 4.97556 605.9 4.6587L605.74 0.46041C597.318 0.780361 588.799 1.27371 580.416 1.9268L580.743 6.11487ZM656.291 4.73969L656.463 0.543487C648.064 0.196875 639.531 0.0143171 631.101 0L631.095 4.20031C639.469 4.21467 647.946 4.39617 656.291 4.73969H656.291Z"/>
</mask>
<path d="M629.705 1260.11L629.706 1255.91C621.355 1255.91 612.877 1255.73 604.506 1255.4L604.338 1259.6C612.764 1259.93 621.298 1260.11 629.705 1260.11ZM655.065 1259.62C663.462 1259.29 671.981 1258.79 680.386 1258.13L680.056 1253.94C671.706 1254.6 663.242 1255.1 654.901 1255.43L655.065 1259.62ZM579.017 1258.07L579.351 1253.89C571.016 1253.22 562.58 1252.37 554.28 1251.37L553.775 1255.54C562.132 1256.55 570.624 1257.4 579.017 1258.07V1258.07ZM705.63 1255.62C714.006 1254.62 722.458 1253.44 730.754 1252.11L730.087 1247.96C721.847 1249.28 713.451 1250.46 705.132 1251.45L705.63 1255.62ZM528.658 1251.99L529.329 1247.85C521.091 1246.52 512.751 1244.99 504.54 1243.32L503.703 1247.44C511.969 1249.12 520.365 1250.65 528.658 1251.99H528.658ZM755.714 1247.58C763.98 1245.91 772.309 1244.04 780.472 1242.04L779.473 1237.96C771.365 1239.95 763.091 1241.8 754.881 1243.46L755.714 1247.58ZM478.95 1241.87L479.955 1237.8C471.822 1235.79 463.633 1233.6 455.613 1231.28L454.444 1235.31C462.519 1237.65 470.764 1239.86 478.95 1241.87V1241.87ZM804.986 1235.51C813.085 1233.17 821.237 1230.64 829.214 1227.99L827.887 1224C819.963 1226.64 811.866 1229.15 803.821 1231.47L804.986 1235.51ZM430.227 1227.76L431.558 1223.78C423.629 1221.13 415.644 1218.28 407.824 1215.31L406.331 1219.23C414.205 1222.22 422.244 1225.09 430.227 1227.76ZM853.183 1219.46C861.062 1216.47 869 1213.28 876.775 1209.97L875.129 1206.11C867.406 1209.4 859.521 1212.57 851.693 1215.53L853.183 1219.46ZM382.868 1209.77L384.517 1205.91C376.838 1202.63 369.129 1199.15 361.604 1195.57L359.799 1199.37C367.375 1202.97 375.138 1206.47 382.868 1209.77V1209.77ZM899.958 1199.54C907.587 1195.91 915.236 1192.09 922.691 1188.17L920.737 1184.45C913.332 1188.34 905.735 1192.14 898.157 1195.74L899.958 1199.54ZM337.158 1188.04L339.115 1184.32C331.717 1180.43 324.307 1176.34 317.091 1172.16L314.987 1175.8C322.252 1180 329.711 1184.12 337.158 1188.04H337.158ZM944.94 1175.9C952.26 1171.67 959.571 1167.24 966.67 1162.74L964.422 1159.2C957.371 1163.66 950.109 1168.06 942.838 1172.27L944.94 1175.9ZM293.319 1162.67L295.567 1159.12C288.526 1154.66 281.464 1149.99 274.579 1145.23L272.192 1148.68C279.122 1153.47 286.231 1158.18 293.319 1162.67H293.319ZM987.848 1148.73C994.793 1143.93 1001.72 1138.94 1008.44 1133.88L1005.92 1130.52C999.241 1135.55 992.359 1140.51 985.46 1145.28L987.848 1148.73ZM251.635 1133.85L254.162 1130.5C247.503 1125.49 240.835 1120.26 234.344 1114.96L231.686 1118.21C238.22 1123.55 244.933 1128.81 251.635 1133.85V1133.85ZM1028.42 1118.21C1034.94 1112.89 1041.44 1107.35 1047.74 1101.77L1044.96 1098.62C1038.7 1104.17 1032.24 1109.67 1025.76 1114.96L1028.42 1118.21ZM212.374 1101.78L215.159 1098.63C208.901 1093.09 202.671 1087.34 196.641 1081.55L193.733 1084.58C199.801 1090.41 206.073 1096.19 212.374 1101.78H212.374ZM1066.39 1084.56C1072.45 1078.74 1078.49 1072.71 1084.34 1066.63L1081.31 1063.72C1075.5 1069.76 1069.5 1075.75 1063.48 1081.53L1066.39 1084.56ZM175.789 1066.65L178.816 1063.73C173.026 1057.71 167.273 1051.48 161.715 1045.22L158.573 1048.01C164.168 1054.31 169.96 1060.58 175.789 1066.65V1066.65ZM1101.54 1048C1107.14 1041.69 1112.68 1035.19 1117.99 1028.69L1114.74 1026.03C1109.46 1032.49 1103.96 1038.94 1098.4 1045.21L1101.54 1048ZM142.114 1028.69L145.367 1026.03C140.059 1019.54 134.821 1012.87 129.796 1006.2L126.441 1008.72C131.498 1015.44 136.773 1022.16 142.114 1028.69V1028.69ZM1133.64 1008.75C1138.71 1002.03 1143.7 995.12 1148.48 988.206L1145.03 985.815C1140.28 992.684 1135.32 999.55 1130.29 1006.23L1133.64 1008.75ZM111.577 988.137L115.031 985.749C110.261 978.85 105.572 971.774 101.099 964.719L97.5508 966.967C102.055 974.069 106.774 981.192 111.577 988.137V988.137ZM1162.48 967.086C1166.99 959.989 1171.41 952.702 1175.62 945.425L1171.99 943.321C1167.8 950.549 1163.41 957.786 1158.94 964.836L1162.48 967.086ZM84.3813 945.245L88.0156 943.141C83.8112 935.874 79.7073 928.439 75.8165 921.046L72.1002 923.002C76.0156 930.445 80.1483 937.929 84.3816 945.245H84.3813ZM1187.87 923.257C1191.79 915.826 1195.6 908.211 1199.22 900.622L1195.42 898.817C1191.83 906.354 1188.04 913.919 1184.16 921.3L1187.87 923.257ZM60.7237 900.275L64.5181 898.471C60.9227 890.907 57.4302 883.162 54.1405 875.451L50.2764 877.1C53.5887 884.863 57.1038 892.66 60.7237 900.275V900.275ZM1209.63 877.561C1212.94 869.825 1216.13 861.933 1219.11 854.102L1215.18 852.609C1212.22 860.384 1209.06 868.225 1205.77 875.908L1209.63 877.561ZM40.7721 853.51L44.6999 852.021C41.722 844.163 38.8669 836.154 36.2191 828.219L32.2361 829.548C34.9001 837.539 37.7736 845.599 40.7721 853.51V853.51ZM1227.65 830.213C1230.32 822.228 1232.87 814.08 1235.21 805.997L1231.18 804.828C1228.85 812.855 1226.32 820.948 1223.67 828.879L1227.65 830.213ZM24.6966 805.32L28.7328 804.155C26.4152 796.14 24.2269 787.951 22.2272 779.81L18.15 780.811C20.1621 789.007 22.3647 797.254 24.6966 805.32V805.32ZM1241.79 781.494C1243.81 773.315 1245.68 764.99 1247.37 756.747L1243.25 755.907C1241.58 764.094 1239.72 772.366 1237.71 780.489L1241.79 781.494ZM12.6001 756.06L16.7185 755.223C15.0572 747.042 13.5395 738.701 12.2062 730.434L8.05938 731.102C9.40075 739.425 10.9285 747.822 12.6001 756.06V756.06ZM1251.94 731.793C1253.28 723.501 1254.48 715.051 1255.5 706.677L1251.33 706.173C1250.32 714.492 1249.13 722.884 1247.79 731.121L1251.94 731.793ZM4.52761 705.976L8.6991 705.475C7.70027 697.161 6.85751 688.725 6.19708 680.404L2.00891 680.736C2.67559 689.114 3.52275 697.606 4.52761 705.976V705.976ZM1258.04 681.44C1258.72 673.051 1259.24 664.531 1259.58 656.117L1255.38 655.947C1255.04 664.304 1254.53 672.768 1253.86 681.102L1258.04 681.44ZM0.499714 655.417L4.69582 655.251C4.36762 646.881 4.19968 638.404 4.19968 630.056L4.2016 628.664H0.00138903L-0.000799008 630.046C-0.000933441 638.458 0.167122 646.99 0.499441 655.417H0.499714ZM1255.91 630.752H1260.11L1260.11 630.046C1260.11 621.853 1259.95 613.555 1259.63 605.393L1255.44 605.555C1255.75 613.663 1255.91 621.906 1255.91 630.056L1255.91 630.752ZM4.75544 603.475C5.10212 595.135 5.62285 586.672 6.30785 578.322L2.11995 577.98C1.43291 586.385 0.907671 594.904 0.559064 603.301L4.75544 603.475ZM1253.97 580.399L1258.15 580.071C1257.49 571.66 1256.66 563.167 1255.66 554.825L1251.49 555.322C1252.48 563.608 1253.31 572.045 1253.97 580.399ZM8.8632 553.253C9.8764 544.97 11.0741 536.577 12.4278 528.31L8.28091 527.632C6.92119 535.955 5.71312 544.403 4.69582 552.745L8.8632 553.253ZM1248.01 530.366L1252.16 529.701C1250.83 521.384 1249.31 512.985 1247.64 504.738L1243.53 505.568C1245.18 513.761 1246.69 522.103 1248.01 530.366ZM16.9975 503.528C18.6834 495.32 20.5559 487.052 22.5639 478.952L18.4865 477.941C16.4642 486.096 14.5793 494.421 12.8832 502.683L16.9975 503.528ZM1238.04 480.974L1242.12 479.978C1240.13 471.803 1237.93 463.554 1235.6 455.458L1231.57 456.62C1233.88 464.661 1236.06 472.855 1238.04 480.974H1238.04ZM29.1206 454.622C31.4586 446.599 33.9936 438.509 36.6597 430.577L32.677 429.24C29.9943 437.225 27.4407 445.37 25.0883 453.446L29.1206 454.622ZM1224.11 432.551L1228.09 431.226C1225.43 423.229 1222.57 415.163 1219.58 407.255L1215.65 408.74C1218.62 416.596 1221.47 424.607 1224.11 432.551ZM45.1715 406.858C48.1557 399.045 51.3305 391.209 54.6079 383.567L50.7479 381.912C47.448 389.605 44.2504 397.493 41.2456 405.359L45.1715 406.858ZM1206.24 385.298L1210.11 383.653C1206.8 375.894 1203.3 368.092 1199.68 360.467L1195.89 362.266C1199.48 369.84 1202.96 377.59 1206.24 385.298V385.298ZM64.9817 360.668C68.577 353.139 72.375 345.579 76.2719 338.199L72.5596 336.237C68.6342 343.668 64.8091 351.278 61.1912 358.859L64.9817 360.668ZM1184.61 339.678L1188.33 337.727C1184.42 330.265 1180.29 322.777 1176.07 315.47L1172.44 317.57C1176.63 324.828 1180.72 332.267 1184.61 339.678L1184.61 339.678ZM88.4672 316.196C92.6675 308.966 97.0647 301.732 101.54 294.694L97.9958 292.44C93.4898 299.525 89.0638 306.808 84.8348 314.086L88.4672 316.196ZM1159.38 295.979L1162.93 293.733C1158.42 286.609 1153.71 279.481 1148.93 272.548L1145.47 274.934C1150.23 281.821 1154.9 288.901 1159.38 295.979V295.979ZM115.472 273.728C120.236 266.863 125.204 260 130.235 253.334L126.884 250.804C121.818 257.514 116.818 264.422 112.022 271.335L115.472 273.728ZM1130.73 254.47L1134.09 251.947C1129.02 245.21 1123.76 238.487 1118.44 231.962L1115.18 234.618C1120.47 241.098 1125.7 247.777 1130.73 254.47L1130.73 254.47ZM145.808 233.543C151.106 227.079 156.61 220.634 162.164 214.387L159.026 211.595C153.433 217.885 147.894 224.373 142.559 230.881L145.808 233.543ZM1098.85 215.409L1102 212.626C1096.42 206.326 1090.63 200.048 1084.8 193.966L1081.77 196.875C1087.56 202.915 1093.31 209.152 1098.85 215.409V215.409ZM179.277 195.894C185.09 189.864 191.093 183.877 197.123 178.099L194.216 175.066C188.148 180.882 182.103 186.909 176.254 192.98L179.277 195.894ZM1063.97 179.041L1066.88 176.013C1060.82 170.181 1054.55 164.39 1048.25 158.797L1045.47 161.937C1051.72 167.493 1057.95 173.248 1063.97 179.041L1063.97 179.041ZM215.665 161.028C221.941 155.479 228.408 149.989 234.883 144.711L232.229 141.455C225.711 146.769 219.201 152.295 212.884 157.882L215.665 161.028ZM1026.3 145.591L1028.96 142.342C1022.44 137.004 1015.74 131.734 1009.03 126.677L1006.5 130.03C1013.16 135.054 1019.83 140.29 1026.3 145.591L1026.3 145.591ZM254.746 129.174C261.447 124.145 268.336 119.189 275.217 114.443L272.834 110.985C265.906 115.762 258.971 120.751 252.224 125.814L254.746 129.174ZM986.095 115.274L988.488 111.823C981.564 107.024 974.461 102.31 967.375 97.8104L965.123 101.356C972.162 105.825 979.218 110.508 986.095 115.274V115.274ZM296.27 100.542C303.352 96.0691 310.618 91.6811 317.871 87.5002L315.77 83.8618C308.473 88.0704 301.157 92.4881 294.026 96.991L296.27 100.542ZM943.614 88.297L945.722 84.6627C938.459 80.4511 931.004 76.3245 923.565 72.4001L921.604 76.1143C928.995 80.0131 936.4 84.1119 943.614 88.2969V88.297ZM339.982 75.336C347.4 71.4494 355.001 67.6603 362.576 64.0742L360.779 60.2779C353.153 63.8875 345.499 67.7023 338.034 71.6155L339.982 75.336ZM899.13 64.835L900.938 61.0428C893.364 57.432 885.606 53.9229 877.879 50.6126L876.226 54.4736C883.901 57.7611 891.607 61.2467 899.13 64.8349V64.835ZM385.614 53.7342C393.334 50.4557 401.222 47.2942 409.061 44.3346L407.576 40.405C399.686 43.384 391.742 46.5681 383.973 49.8681L385.614 53.7342ZM852.929 45.0494L854.425 41.1239C846.566 38.1275 838.53 35.25 830.542 32.5704L829.207 36.5534C837.141 39.2143 845.122 42.0733 852.929 45.0493V45.0494ZM432.878 35.8929C440.816 33.2605 448.915 30.7553 456.953 28.4468L455.792 24.4106C447.701 26.7343 439.548 29.256 431.558 31.9058L432.878 35.8929ZM805.156 29.0242L806.329 24.992C798.252 22.6417 790.009 20.4246 781.831 18.4013L780.822 22.4786C788.945 24.4884 797.133 26.6911 805.156 29.0241V29.0242ZM481.309 21.9843C489.418 20.0062 497.695 18.1654 505.907 16.5134L505.078 12.395C496.811 14.0584 488.479 15.9124 480.314 17.9029L481.309 21.9843ZM756.244 16.9276L757.087 12.8133C748.852 11.1274 740.458 9.58513 732.136 8.22841L731.459 12.3734C739.727 13.7218 748.065 15.2539 756.244 16.9276V16.9276ZM530.705 12.0422C538.966 10.7254 547.363 9.55845 555.665 8.57604L555.171 4.40438C546.814 5.39396 538.359 6.56814 530.045 7.89515L530.705 12.0422ZM706.513 8.82318L707.022 4.65351C698.666 3.6363 690.175 2.77368 681.785 2.09289L681.444 6.27891C689.78 6.95679 698.214 7.81207 706.513 8.82318H706.513ZM580.743 6.11487C589.069 5.46574 597.534 4.97556 605.9 4.6587L605.74 0.46041C597.318 0.780361 588.799 1.27371 580.416 1.9268L580.743 6.11487ZM656.291 4.73969L656.463 0.543487C648.064 0.196875 639.531 0.0143171 631.101 0L631.095 4.20031C639.469 4.21467 647.946 4.39617 656.291 4.73969H656.291Z" fill="#001C26" stroke="#001C26" stroke-width="4" mask="url(#path-1-inside-1)"/>
<mask id="path-2-inside-2" fill="white">
<path d="M617.731 1181L617.732 1177.76C611.29 1177.76 604.75 1177.63 598.293 1177.37L598.163 1180.6C604.663 1180.87 611.246 1181 617.731 1181ZM637.293 1180.63C643.769 1180.37 650.341 1179.98 656.824 1179.47L656.57 1176.24C650.128 1176.75 643.6 1177.14 637.166 1177.39L637.293 1180.63ZM578.632 1179.43L578.889 1176.2C572.46 1175.69 565.953 1175.03 559.551 1174.26L559.161 1177.48C565.607 1178.26 572.158 1178.91 578.632 1179.43V1179.43ZM676.297 1177.54C682.757 1176.77 689.276 1175.86 695.676 1174.83L695.162 1171.63C688.806 1172.65 682.329 1173.56 675.912 1174.32L676.297 1177.54ZM539.787 1174.74L540.304 1171.54C533.95 1170.52 527.517 1169.34 521.183 1168.05L520.538 1171.23C526.913 1172.53 533.39 1173.71 539.787 1174.74H539.787ZM714.929 1171.34C721.305 1170.04 727.73 1168.61 734.026 1167.07L733.256 1163.92C727.001 1165.45 720.619 1166.88 714.287 1168.16L714.929 1171.34ZM501.444 1166.93L502.219 1163.79C495.946 1162.25 489.629 1160.55 483.443 1158.76L482.541 1161.87C488.77 1163.68 495.13 1165.38 501.444 1166.93V1166.93ZM752.936 1162.03C759.183 1160.22 765.471 1158.27 771.624 1156.22L770.601 1153.15C764.488 1155.18 758.243 1157.12 752.037 1158.91L752.936 1162.03ZM463.861 1156.05L464.887 1152.98C458.771 1150.93 452.612 1148.73 446.58 1146.44L445.428 1149.47C451.502 1151.78 457.703 1153.99 463.861 1156.05ZM790.112 1149.65C796.191 1147.34 802.313 1144.88 808.311 1142.33L807.041 1139.34C801.084 1141.88 795.002 1144.33 788.964 1146.61L790.112 1149.65ZM427.33 1142.17L428.602 1139.19C422.679 1136.66 416.732 1133.98 410.928 1131.22L409.535 1134.15C415.38 1136.93 421.367 1139.63 427.33 1142.17V1142.17ZM826.193 1134.28C832.078 1131.48 837.978 1128.53 843.729 1125.51L842.221 1122.64C836.509 1125.64 830.65 1128.57 824.804 1131.35L826.193 1134.28ZM392.071 1125.41L393.581 1122.54C387.874 1119.54 382.158 1116.38 376.593 1113.16L374.97 1115.97C380.573 1119.21 386.327 1122.38 392.071 1125.41H392.071ZM860.891 1116.04C866.537 1112.78 872.176 1109.37 877.653 1105.9L875.919 1103.16C870.48 1106.61 864.878 1110 859.269 1113.24L860.891 1116.04ZM358.255 1105.84L359.989 1103.1C354.558 1099.66 349.111 1096.06 343.8 1092.39L341.959 1095.05C347.305 1098.75 352.788 1102.38 358.255 1105.84H358.255ZM893.988 1095.09C899.345 1091.39 904.69 1087.53 909.872 1083.63L907.925 1081.04C902.776 1084.92 897.468 1088.75 892.147 1092.42L893.988 1095.09ZM326.102 1083.61L328.051 1081.02C322.915 1077.16 317.771 1073.13 312.764 1069.04L310.714 1071.55C315.754 1075.66 320.932 1079.72 326.102 1083.61V1083.61ZM925.281 1071.55C930.311 1067.44 935.327 1063.17 940.189 1058.86L938.041 1056.44C933.21 1060.72 928.228 1064.96 923.231 1069.04L925.281 1071.55ZM295.818 1058.87L297.966 1056.44C293.139 1052.17 288.333 1047.73 283.682 1043.27L281.439 1045.6C286.12 1050.1 290.958 1054.56 295.817 1058.87H295.818ZM954.576 1045.59C959.249 1041.1 963.906 1036.45 968.415 1031.76L966.08 1029.51C961.6 1034.17 956.974 1038.79 952.331 1043.25L954.576 1045.59ZM267.597 1031.77L269.932 1029.52C265.466 1024.88 261.029 1020.07 256.741 1015.24L254.318 1017.39C258.634 1022.26 263.101 1027.09 267.597 1031.77V1031.77ZM981.688 1017.39C986.008 1012.52 990.276 1007.51 994.374 1002.49L991.865 1000.44C987.795 1005.42 983.555 1010.4 979.265 1015.23L981.688 1017.39ZM241.622 1002.49L244.131 1000.44C240.037 995.436 235.996 990.288 232.12 985.141L229.532 987.09C233.433 992.271 237.502 997.453 241.622 1002.49V1002.49ZM1006.45 987.114C1010.35 981.93 1014.21 976.598 1017.9 971.265L1015.23 969.421C1011.57 974.719 1007.74 980.016 1003.86 985.165L1006.45 987.114ZM218.067 971.211L220.731 969.37C217.051 964.048 213.435 958.59 209.985 953.148L207.248 954.882C210.722 960.36 214.362 965.855 218.067 971.211V971.211ZM1028.7 954.973C1032.17 949.5 1035.58 943.879 1038.83 938.266L1036.03 936.642C1032.8 942.218 1029.41 947.8 1025.96 953.238L1028.7 954.973ZM197.089 938.126L199.893 936.503C196.649 930.898 193.484 925.163 190.483 919.46L187.616 920.969C190.636 926.71 193.824 932.483 197.089 938.126H197.089ZM1048.28 921.165C1051.3 915.434 1054.24 909.56 1057.03 903.706L1054.1 902.314C1051.33 908.128 1048.41 913.962 1045.41 919.656L1048.28 921.165ZM178.841 903.439L181.767 902.046C178.994 896.212 176.3 890.238 173.763 884.29L170.782 885.562C173.337 891.55 176.048 897.565 178.841 903.439V903.439ZM1065.07 885.918C1067.62 879.95 1070.08 873.863 1072.37 867.822L1069.35 866.671C1067.06 872.668 1064.62 878.716 1062.09 884.643L1065.07 885.918ZM163.451 867.365L166.481 866.217C164.183 860.156 161.981 853.978 159.939 847.857L156.866 848.882C158.921 855.046 161.138 861.263 163.451 867.365V867.365ZM1078.96 849.395C1081.02 843.236 1082.99 836.951 1084.8 830.716L1081.68 829.814C1079.89 836.006 1077.94 842.249 1075.89 848.366L1078.96 849.395ZM151.051 830.194L154.164 829.295C152.376 823.112 150.688 816.795 149.146 810.516L146.001 811.288C147.553 817.61 149.252 823.972 151.051 830.194V830.194ZM1089.87 811.815C1091.43 805.506 1092.87 799.085 1094.17 792.727L1091 792.078C1089.71 798.393 1088.27 804.774 1086.72 811.04L1089.87 811.815ZM141.72 792.197L144.897 791.551C143.615 785.24 142.445 778.806 141.416 772.429L138.217 772.945C139.252 779.365 140.431 785.841 141.72 792.197V792.197ZM1097.7 773.478C1098.73 767.082 1099.66 760.564 1100.44 754.104L1097.23 753.715C1096.45 760.132 1095.53 766.606 1094.5 772.959L1097.7 773.478ZM135.493 753.563L138.711 753.177C137.94 746.764 137.29 740.257 136.781 733.838L133.55 734.094C134.065 740.557 134.718 747.107 135.493 753.563V753.563ZM1102.41 734.637C1102.93 728.166 1103.33 721.594 1103.59 715.104L1100.35 714.973C1100.09 721.419 1099.7 727.948 1099.18 734.376L1102.41 734.637ZM132.386 714.564L135.623 714.436C135.37 707.979 135.24 701.441 135.24 695.001L135.242 693.928H132.002L132 694.994C132 701.483 132.13 708.064 132.386 714.564H132.386ZM1100.76 695.538H1104L1104 694.994C1104 688.674 1103.88 682.273 1103.63 675.977L1100.4 676.102C1100.64 682.357 1100.76 688.715 1100.76 695.001L1100.76 695.538ZM135.669 674.498C135.936 668.065 136.338 661.536 136.866 655.096L133.636 654.832C133.106 661.316 132.701 667.887 132.432 674.364L135.669 674.498ZM1099.26 656.698L1102.49 656.445C1101.98 649.957 1101.34 643.406 1100.57 636.971L1097.35 637.354C1098.11 643.746 1098.76 650.254 1099.26 656.698ZM138.837 635.759C139.619 629.369 140.543 622.895 141.587 616.518L138.388 615.995C137.339 622.415 136.408 628.932 135.623 635.366L138.837 635.759ZM1094.67 618.104L1097.87 617.591C1096.84 611.176 1095.67 604.697 1094.38 598.336L1091.21 598.977C1092.49 605.296 1093.65 611.731 1094.67 618.104ZM145.112 597.402C146.412 591.071 147.857 584.694 149.406 578.446L146.26 577.666C144.701 583.956 143.247 590.377 141.938 596.751L145.112 597.402ZM1086.98 580.006L1090.13 579.237C1088.59 572.931 1086.89 566.568 1085.1 560.324L1081.98 561.22C1083.77 567.422 1085.45 573.742 1086.98 580.006H1086.98ZM154.463 559.678C156.267 553.49 158.222 547.25 160.279 541.131L157.206 540.1C155.137 546.259 153.167 552.541 151.353 558.772L154.463 559.678ZM1076.23 542.654L1079.3 541.632C1077.25 535.463 1075.04 529.241 1072.74 523.141L1069.71 524.286C1072 530.346 1074.19 536.526 1076.23 542.654ZM166.844 522.835C169.146 516.808 171.595 510.764 174.123 504.869L171.146 503.593C168.6 509.527 166.134 515.611 163.816 521.678L166.844 522.835ZM1062.45 506.205L1065.43 504.936C1062.88 498.95 1060.18 492.932 1057.39 487.051L1054.46 488.438C1057.23 494.281 1059.92 500.259 1062.45 506.205V506.205ZM182.125 487.206C184.898 481.398 187.828 475.567 190.834 469.874L187.97 468.361C184.942 474.093 181.992 479.963 179.201 485.811L182.125 487.206ZM1045.76 471.015L1048.63 469.51C1045.61 463.754 1042.43 457.978 1039.18 452.342L1036.37 453.962C1039.6 459.56 1042.76 465.298 1045.76 471.015L1045.76 471.015ZM200.241 452.902C203.481 447.325 206.873 441.745 210.325 436.316L207.591 434.577C204.115 440.042 200.701 445.66 197.439 451.274L200.241 452.902ZM1026.3 437.307L1029.04 435.575C1025.56 430.08 1021.93 424.581 1018.24 419.233L1015.57 421.074C1019.24 426.386 1022.85 431.847 1026.3 437.307V437.307ZM221.071 420.144C224.746 414.848 228.578 409.554 232.459 404.413L229.874 402.46C225.966 407.637 222.109 412.965 218.411 418.297L221.071 420.144ZM1004.2 405.288L1006.79 403.342C1002.89 398.146 998.824 392.96 994.718 387.927L992.207 389.976C996.287 394.974 1000.32 400.126 1004.2 405.288L1004.2 405.288ZM244.471 389.146C248.558 384.16 252.804 379.189 257.088 374.37L254.667 372.217C250.353 377.068 246.08 382.073 241.965 387.093L244.471 389.146ZM979.612 375.159L982.037 373.012C977.736 368.152 973.274 363.309 968.774 358.618L966.436 360.862C970.905 365.521 975.338 370.332 979.612 375.158V375.159ZM270.288 360.106C274.772 355.454 279.402 350.836 284.053 346.379L281.812 344.039C277.13 348.526 272.468 353.175 267.956 357.857L270.288 360.106ZM952.702 347.105L954.949 344.77C950.274 340.272 945.44 335.804 940.583 331.49L938.432 333.912C943.257 338.198 948.058 342.637 952.702 347.105L952.702 347.105ZM298.357 333.211C303.198 328.931 308.186 324.696 313.18 320.624L311.133 318.113C306.106 322.212 301.084 326.475 296.211 330.784L298.357 333.211ZM923.648 321.303L925.701 318.797C920.674 314.68 915.501 310.615 910.326 306.714L908.375 309.3C913.516 313.175 918.655 317.214 923.648 321.303L923.648 321.303ZM328.502 308.64C333.671 304.761 338.985 300.938 344.292 297.277L342.454 294.609C337.11 298.295 331.761 302.143 326.556 306.048L328.502 308.64ZM892.636 297.918L894.482 295.256C889.141 291.555 883.662 287.918 878.196 284.447L876.459 287.183C881.888 290.63 887.331 294.242 892.636 297.918V297.918ZM360.532 286.555C365.995 283.104 371.6 279.719 377.194 276.494L375.574 273.688C369.945 276.934 364.302 280.342 358.801 283.815L360.532 286.555ZM859.868 277.109L861.494 274.306C855.892 271.057 850.141 267.874 844.403 264.847L842.89 267.712C848.591 270.719 854.303 273.881 859.868 277.109V277.109ZM394.25 267.111C399.972 264.113 405.835 261.191 411.677 258.424L410.292 255.496C404.41 258.28 398.505 261.223 392.747 264.242L394.25 267.111ZM825.555 259.011L826.949 256.086C821.107 253.301 815.123 250.594 809.162 248.041L807.887 251.019C813.807 253.555 819.752 256.243 825.555 259.011V259.011ZM429.448 250.449C435.403 247.92 441.488 245.481 447.534 243.198L446.389 240.167C440.303 242.465 434.175 244.921 428.183 247.466L429.448 250.449ZM789.917 243.749L791.071 240.721C785.009 238.41 778.81 236.191 772.649 234.124L771.619 237.196C777.739 239.248 783.895 241.454 789.917 243.749V243.749ZM465.906 236.686C472.029 234.656 478.276 232.723 484.476 230.943L483.581 227.829C477.34 229.622 471.051 231.567 464.887 233.611L465.906 236.686ZM753.067 231.388L753.972 228.278C747.741 226.465 741.383 224.755 735.074 223.194L734.296 226.339C740.563 227.889 746.878 229.589 753.067 231.388V231.388ZM503.264 225.958C509.519 224.432 515.903 223.012 522.238 221.738L521.598 218.561C515.221 219.844 508.794 221.274 502.496 222.81L503.264 225.958ZM715.338 222.057L715.988 218.884C709.636 217.583 703.161 216.394 696.742 215.347L696.22 218.544C702.597 219.585 709.029 220.766 715.338 222.057V222.057ZM541.366 218.289C547.738 217.273 554.215 216.373 560.619 215.615L560.238 212.397C553.791 213.161 547.27 214.066 540.857 215.09L541.366 218.289ZM676.978 215.806L677.37 212.59C670.925 211.805 664.375 211.14 657.903 210.614L657.64 213.843C664.07 214.366 670.576 215.026 676.978 215.806H676.978ZM579.963 213.717C586.386 213.216 592.915 212.838 599.368 212.594L599.245 209.355C592.749 209.602 586.177 209.982 579.711 210.486L579.963 213.717ZM638.238 212.656L638.371 209.419C631.892 209.152 625.31 209.011 618.807 209L618.803 212.24C625.262 212.251 631.801 212.391 638.238 212.656H638.238Z"/>
</mask>
<path d="M617.731 1181L617.732 1177.76C611.29 1177.76 604.75 1177.63 598.293 1177.37L598.163 1180.6C604.663 1180.87 611.246 1181 617.731 1181ZM637.293 1180.63C643.769 1180.37 650.341 1179.98 656.824 1179.47L656.57 1176.24C650.128 1176.75 643.6 1177.14 637.166 1177.39L637.293 1180.63ZM578.632 1179.43L578.889 1176.2C572.46 1175.69 565.953 1175.03 559.551 1174.26L559.161 1177.48C565.607 1178.26 572.158 1178.91 578.632 1179.43V1179.43ZM676.297 1177.54C682.757 1176.77 689.276 1175.86 695.676 1174.83L695.162 1171.63C688.806 1172.65 682.329 1173.56 675.912 1174.32L676.297 1177.54ZM539.787 1174.74L540.304 1171.54C533.95 1170.52 527.517 1169.34 521.183 1168.05L520.538 1171.23C526.913 1172.53 533.39 1173.71 539.787 1174.74H539.787ZM714.929 1171.34C721.305 1170.04 727.73 1168.61 734.026 1167.07L733.256 1163.92C727.001 1165.45 720.619 1166.88 714.287 1168.16L714.929 1171.34ZM501.444 1166.93L502.219 1163.79C495.946 1162.25 489.629 1160.55 483.443 1158.76L482.541 1161.87C488.77 1163.68 495.13 1165.38 501.444 1166.93V1166.93ZM752.936 1162.03C759.183 1160.22 765.471 1158.27 771.624 1156.22L770.601 1153.15C764.488 1155.18 758.243 1157.12 752.037 1158.91L752.936 1162.03ZM463.861 1156.05L464.887 1152.98C458.771 1150.93 452.612 1148.73 446.58 1146.44L445.428 1149.47C451.502 1151.78 457.703 1153.99 463.861 1156.05ZM790.112 1149.65C796.191 1147.34 802.313 1144.88 808.311 1142.33L807.041 1139.34C801.084 1141.88 795.002 1144.33 788.964 1146.61L790.112 1149.65ZM427.33 1142.17L428.602 1139.19C422.679 1136.66 416.732 1133.98 410.928 1131.22L409.535 1134.15C415.38 1136.93 421.367 1139.63 427.33 1142.17V1142.17ZM826.193 1134.28C832.078 1131.48 837.978 1128.53 843.729 1125.51L842.221 1122.64C836.509 1125.64 830.65 1128.57 824.804 1131.35L826.193 1134.28ZM392.071 1125.41L393.581 1122.54C387.874 1119.54 382.158 1116.38 376.593 1113.16L374.97 1115.97C380.573 1119.21 386.327 1122.38 392.071 1125.41H392.071ZM860.891 1116.04C866.537 1112.78 872.176 1109.37 877.653 1105.9L875.919 1103.16C870.48 1106.61 864.878 1110 859.269 1113.24L860.891 1116.04ZM358.255 1105.84L359.989 1103.1C354.558 1099.66 349.111 1096.06 343.8 1092.39L341.959 1095.05C347.305 1098.75 352.788 1102.38 358.255 1105.84H358.255ZM893.988 1095.09C899.345 1091.39 904.69 1087.53 909.872 1083.63L907.925 1081.04C902.776 1084.92 897.468 1088.75 892.147 1092.42L893.988 1095.09ZM326.102 1083.61L328.051 1081.02C322.915 1077.16 317.771 1073.13 312.764 1069.04L310.714 1071.55C315.754 1075.66 320.932 1079.72 326.102 1083.61V1083.61ZM925.281 1071.55C930.311 1067.44 935.327 1063.17 940.189 1058.86L938.041 1056.44C933.21 1060.72 928.228 1064.96 923.231 1069.04L925.281 1071.55ZM295.818 1058.87L297.966 1056.44C293.139 1052.17 288.333 1047.73 283.682 1043.27L281.439 1045.6C286.12 1050.1 290.958 1054.56 295.817 1058.87H295.818ZM954.576 1045.59C959.249 1041.1 963.906 1036.45 968.415 1031.76L966.08 1029.51C961.6 1034.17 956.974 1038.79 952.331 1043.25L954.576 1045.59ZM267.597 1031.77L269.932 1029.52C265.466 1024.88 261.029 1020.07 256.741 1015.24L254.318 1017.39C258.634 1022.26 263.101 1027.09 267.597 1031.77V1031.77ZM981.688 1017.39C986.008 1012.52 990.276 1007.51 994.374 1002.49L991.865 1000.44C987.795 1005.42 983.555 1010.4 979.265 1015.23L981.688 1017.39ZM241.622 1002.49L244.131 1000.44C240.037 995.436 235.996 990.288 232.12 985.141L229.532 987.09C233.433 992.271 237.502 997.453 241.622 1002.49V1002.49ZM1006.45 987.114C1010.35 981.93 1014.21 976.598 1017.9 971.265L1015.23 969.421C1011.57 974.719 1007.74 980.016 1003.86 985.165L1006.45 987.114ZM218.067 971.211L220.731 969.37C217.051 964.048 213.435 958.59 209.985 953.148L207.248 954.882C210.722 960.36 214.362 965.855 218.067 971.211V971.211ZM1028.7 954.973C1032.17 949.5 1035.58 943.879 1038.83 938.266L1036.03 936.642C1032.8 942.218 1029.41 947.8 1025.96 953.238L1028.7 954.973ZM197.089 938.126L199.893 936.503C196.649 930.898 193.484 925.163 190.483 919.46L187.616 920.969C190.636 926.71 193.824 932.483 197.089 938.126H197.089ZM1048.28 921.165C1051.3 915.434 1054.24 909.56 1057.03 903.706L1054.1 902.314C1051.33 908.128 1048.41 913.962 1045.41 919.656L1048.28 921.165ZM178.841 903.439L181.767 902.046C178.994 896.212 176.3 890.238 173.763 884.29L170.782 885.562C173.337 891.55 176.048 897.565 178.841 903.439V903.439ZM1065.07 885.918C1067.62 879.95 1070.08 873.863 1072.37 867.822L1069.35 866.671C1067.06 872.668 1064.62 878.716 1062.09 884.643L1065.07 885.918ZM163.451 867.365L166.481 866.217C164.183 860.156 161.981 853.978 159.939 847.857L156.866 848.882C158.921 855.046 161.138 861.263 163.451 867.365V867.365ZM1078.96 849.395C1081.02 843.236 1082.99 836.951 1084.8 830.716L1081.68 829.814C1079.89 836.006 1077.94 842.249 1075.89 848.366L1078.96 849.395ZM151.051 830.194L154.164 829.295C152.376 823.112 150.688 816.795 149.146 810.516L146.001 811.288C147.553 817.61 149.252 823.972 151.051 830.194V830.194ZM1089.87 811.815C1091.43 805.506 1092.87 799.085 1094.17 792.727L1091 792.078C1089.71 798.393 1088.27 804.774 1086.72 811.04L1089.87 811.815ZM141.72 792.197L144.897 791.551C143.615 785.24 142.445 778.806 141.416 772.429L138.217 772.945C139.252 779.365 140.431 785.841 141.72 792.197V792.197ZM1097.7 773.478C1098.73 767.082 1099.66 760.564 1100.44 754.104L1097.23 753.715C1096.45 760.132 1095.53 766.606 1094.5 772.959L1097.7 773.478ZM135.493 753.563L138.711 753.177C137.94 746.764 137.29 740.257 136.781 733.838L133.55 734.094C134.065 740.557 134.718 747.107 135.493 753.563V753.563ZM1102.41 734.637C1102.93 728.166 1103.33 721.594 1103.59 715.104L1100.35 714.973C1100.09 721.419 1099.7 727.948 1099.18 734.376L1102.41 734.637ZM132.386 714.564L135.623 714.436C135.37 707.979 135.24 701.441 135.24 695.001L135.242 693.928H132.002L132 694.994C132 701.483 132.13 708.064 132.386 714.564H132.386ZM1100.76 695.538H1104L1104 694.994C1104 688.674 1103.88 682.273 1103.63 675.977L1100.4 676.102C1100.64 682.357 1100.76 688.715 1100.76 695.001L1100.76 695.538ZM135.669 674.498C135.936 668.065 136.338 661.536 136.866 655.096L133.636 654.832C133.106 661.316 132.701 667.887 132.432 674.364L135.669 674.498ZM1099.26 656.698L1102.49 656.445C1101.98 649.957 1101.34 643.406 1100.57 636.971L1097.35 637.354C1098.11 643.746 1098.76 650.254 1099.26 656.698ZM138.837 635.759C139.619 629.369 140.543 622.895 141.587 616.518L138.388 615.995C137.339 622.415 136.408 628.932 135.623 635.366L138.837 635.759ZM1094.67 618.104L1097.87 617.591C1096.84 611.176 1095.67 604.697 1094.38 598.336L1091.21 598.977C1092.49 605.296 1093.65 611.731 1094.67 618.104ZM145.112 597.402C146.412 591.071 147.857 584.694 149.406 578.446L146.26 577.666C144.701 583.956 143.247 590.377 141.938 596.751L145.112 597.402ZM1086.98 580.006L1090.13 579.237C1088.59 572.931 1086.89 566.568 1085.1 560.324L1081.98 561.22C1083.77 567.422 1085.45 573.742 1086.98 580.006H1086.98ZM154.463 559.678C156.267 553.49 158.222 547.25 160.279 541.131L157.206 540.1C155.137 546.259 153.167 552.541 151.353 558.772L154.463 559.678ZM1076.23 542.654L1079.3 541.632C1077.25 535.463 1075.04 529.241 1072.74 523.141L1069.71 524.286C1072 530.346 1074.19 536.526 1076.23 542.654ZM166.844 522.835C169.146 516.808 171.595 510.764 174.123 504.869L171.146 503.593C168.6 509.527 166.134 515.611 163.816 521.678L166.844 522.835ZM1062.45 506.205L1065.43 504.936C1062.88 498.95 1060.18 492.932 1057.39 487.051L1054.46 488.438C1057.23 494.281 1059.92 500.259 1062.45 506.205V506.205ZM182.125 487.206C184.898 481.398 187.828 475.567 190.834 469.874L187.97 468.361C184.942 474.093 181.992 479.963 179.201 485.811L182.125 487.206ZM1045.76 471.015L1048.63 469.51C1045.61 463.754 1042.43 457.978 1039.18 452.342L1036.37 453.962C1039.6 459.56 1042.76 465.298 1045.76 471.015L1045.76 471.015ZM200.241 452.902C203.481 447.325 206.873 441.745 210.325 436.316L207.591 434.577C204.115 440.042 200.701 445.66 197.439 451.274L200.241 452.902ZM1026.3 437.307L1029.04 435.575C1025.56 430.08 1021.93 424.581 1018.24 419.233L1015.57 421.074C1019.24 426.386 1022.85 431.847 1026.3 437.307V437.307ZM221.071 420.144C224.746 414.848 228.578 409.554 232.459 404.413L229.874 402.46C225.966 407.637 222.109 412.965 218.411 418.297L221.071 420.144ZM1004.2 405.288L1006.79 403.342C1002.89 398.146 998.824 392.96 994.718 387.927L992.207 389.976C996.287 394.974 1000.32 400.126 1004.2 405.288L1004.2 405.288ZM244.471 389.146C248.558 384.16 252.804 379.189 257.088 374.37L254.667 372.217C250.353 377.068 246.08 382.073 241.965 387.093L244.471 389.146ZM979.612 375.159L982.037 373.012C977.736 368.152 973.274 363.309 968.774 358.618L966.436 360.862C970.905 365.521 975.338 370.332 979.612 375.158V375.159ZM270.288 360.106C274.772 355.454 279.402 350.836 284.053 346.379L281.812 344.039C277.13 348.526 272.468 353.175 267.956 357.857L270.288 360.106ZM952.702 347.105L954.949 344.77C950.274 340.272 945.44 335.804 940.583 331.49L938.432 333.912C943.257 338.198 948.058 342.637 952.702 347.105L952.702 347.105ZM298.357 333.211C303.198 328.931 308.186 324.696 313.18 320.624L311.133 318.113C306.106 322.212 301.084 326.475 296.211 330.784L298.357 333.211ZM923.648 321.303L925.701 318.797C920.674 314.68 915.501 310.615 910.326 306.714L908.375 309.3C913.516 313.175 918.655 317.214 923.648 321.303L923.648 321.303ZM328.502 308.64C333.671 304.761 338.985 300.938 344.292 297.277L342.454 294.609C337.11 298.295 331.761 302.143 326.556 306.048L328.502 308.64ZM892.636 297.918L894.482 295.256C889.141 291.555 883.662 287.918 878.196 284.447L876.459 287.183C881.888 290.63 887.331 294.242 892.636 297.918V297.918ZM360.532 286.555C365.995 283.104 371.6 279.719 377.194 276.494L375.574 273.688C369.945 276.934 364.302 280.342 358.801 283.815L360.532 286.555ZM859.868 277.109L861.494 274.306C855.892 271.057 850.141 267.874 844.403 264.847L842.89 267.712C848.591 270.719 854.303 273.881 859.868 277.109V277.109ZM394.25 267.111C399.972 264.113 405.835 261.191 411.677 258.424L410.292 255.496C404.41 258.28 398.505 261.223 392.747 264.242L394.25 267.111ZM825.555 259.011L826.949 256.086C821.107 253.301 815.123 250.594 809.162 248.041L807.887 251.019C813.807 253.555 819.752 256.243 825.555 259.011V259.011ZM429.448 250.449C435.403 247.92 441.488 245.481 447.534 243.198L446.389 240.167C440.303 242.465 434.175 244.921 428.183 247.466L429.448 250.449ZM789.917 243.749L791.071 240.721C785.009 238.41 778.81 236.191 772.649 234.124L771.619 237.196C777.739 239.248 783.895 241.454 789.917 243.749V243.749ZM465.906 236.686C472.029 234.656 478.276 232.723 484.476 230.943L483.581 227.829C477.34 229.622 471.051 231.567 464.887 233.611L465.906 236.686ZM753.067 231.388L753.972 228.278C747.741 226.465 741.383 224.755 735.074 223.194L734.296 226.339C740.563 227.889 746.878 229.589 753.067 231.388V231.388ZM503.264 225.958C509.519 224.432 515.903 223.012 522.238 221.738L521.598 218.561C515.221 219.844 508.794 221.274 502.496 222.81L503.264 225.958ZM715.338 222.057L715.988 218.884C709.636 217.583 703.161 216.394 696.742 215.347L696.22 218.544C702.597 219.585 709.029 220.766 715.338 222.057V222.057ZM541.366 218.289C547.738 217.273 554.215 216.373 560.619 215.615L560.238 212.397C553.791 213.161 547.27 214.066 540.857 215.09L541.366 218.289ZM676.978 215.806L677.37 212.59C670.925 211.805 664.375 211.14 657.903 210.614L657.64 213.843C664.07 214.366 670.576 215.026 676.978 215.806H676.978ZM579.963 213.717C586.386 213.216 592.915 212.838 599.368 212.594L599.245 209.355C592.749 209.602 586.177 209.982 579.711 210.486L579.963 213.717ZM638.238 212.656L638.371 209.419C631.892 209.152 625.31 209.011 618.807 209L618.803 212.24C625.262 212.251 631.801 212.391 638.238 212.656H638.238Z" fill="#CCCCCC" stroke="#FF6E40" stroke-width="4" mask="url(#path-2-inside-2)"/>
</svg>
