<svg width="51" height="50" viewBox="0 0 51 50" fill="none" xmlns="http://www.w3.org/2000/svg">
<path d="M0 14.3145V48.8513H11.7846V14.3145H0ZM7.35724 20.8643H4.45932V17.9664H7.35724V20.8643Z" fill="#FF6E40"/>
<path d="M48.8499 29.5974C48.8499 28.3725 48.4272 27.245 47.7216 26.3508C49.0983 25.4029 50.003 23.8166 50.003 22.0224C50.003 19.1262 47.6468 16.77 44.7506 16.77H27.9192C27.665 16.77 27.4385 16.618 27.342 16.3829C27.2443 16.1447 27.305 15.8665 27.4931 15.6907L34.3359 9.29104C35.3978 8.29792 35.9959 6.95625 36.02 5.51301C36.044 4.07777 35.4975 2.72389 34.4805 1.69795C32.4361 -0.468474 29.0109 -0.577268 26.8319 1.46064L14.7148 12.8209V46.4888L20.1672 48.5334C22.7622 49.5065 25.4832 50 28.2547 50H41.2913C44.1875 50 46.5437 47.6437 46.5437 44.7476C46.5437 43.5229 46.1225 42.3949 45.4172 41.5007C46.7931 40.5527 47.6968 38.9661 47.6968 37.1726C47.6968 35.9477 47.2741 34.8203 46.5685 33.9259C47.9452 32.9778 48.8499 31.3915 48.8499 29.5974Z" fill="white"/>
</svg>
