<svg width="154" height="153" viewBox="0 0 154 153" fill="none" xmlns="http://www.w3.org/2000/svg">
<path d="M141.154 49.2475H134.838V45.186L138.778 40.846C140.824 38.593 141.951 35.6765 141.951 32.6332V22.3408C141.951 15.1441 136.095 9.28906 128.899 9.28906H122.895C115.698 9.28906 109.843 15.1443 109.843 22.3408V32.6332C109.843 35.6765 110.97 38.5933 113.015 40.846L116.957 45.1866V49.2475H110.641C104.505 49.2475 99.3624 53.5728 98.0956 59.3344C97.4508 59.2441 96.7933 59.1943 96.1242 59.1943H88.7261V54.2262L93.239 49.2565C95.4952 46.7716 96.738 43.5545 96.738 40.1979V28.6054C96.738 20.6566 90.2713 14.1904 82.3227 14.1904C81.077 14.1904 80.0677 15.1997 80.0677 16.4454C80.0677 17.6911 81.077 18.7004 82.3227 18.7004C87.7845 18.7004 92.228 23.1436 92.228 28.6054V40.1976C92.228 42.4309 91.4012 44.5711 89.9004 46.2243L85.2533 51.3422C84.6298 51.7433 84.2168 52.4432 84.2168 53.24V61.4496C84.2168 62.6953 85.226 63.7046 86.4717 63.7046H96.1248C101.459 63.7046 105.799 68.0444 105.799 73.3788V87.5286H52.0851V73.3788C52.0851 69.2198 54.7235 65.666 58.4138 64.3014C58.5872 64.2651 58.7525 64.2073 58.9086 64.1335C59.8101 63.8552 60.7675 63.7043 61.7589 63.7043H71.4119C72.6574 63.7043 73.6669 62.695 73.6669 61.4493V53.2397C73.6669 52.4432 73.2538 51.743 72.6304 51.3419L67.9833 46.224C66.4822 44.5708 65.6551 42.4303 65.6551 40.1973V28.6054C65.6551 23.1439 70.0983 18.7004 75.5604 18.7004C76.8058 18.7004 77.8154 17.6911 77.8154 16.4454C77.8154 15.1997 76.8058 14.1904 75.5604 14.1904C67.6115 14.1904 61.1451 20.6569 61.1451 28.6054V40.1976C61.1451 43.5539 62.3879 46.771 64.6441 49.2562L69.1564 54.2256V59.1941H61.7583C61.1281 59.1941 60.5088 59.2395 59.9003 59.3197C58.6282 53.5655 53.4898 49.2475 47.3589 49.2475H41.043V45.186L44.9838 40.846C47.0296 38.593 48.156 35.6765 48.156 32.6332V22.3408C48.156 15.1441 42.3008 9.28906 35.104 9.28906H29.101C21.9042 9.28906 16.0492 15.1443 16.0492 22.3408V32.6332C16.0492 35.6765 17.1757 38.5933 19.2215 40.846L23.1625 45.1863V49.2475H16.8467C9.763 49.2475 4 55.0104 4 62.0942V76.6594C4 77.9051 5.00957 78.9144 6.25498 78.9144H41.3404C42.5858 78.9144 43.5954 77.9051 43.5954 76.6594C43.5954 75.4137 42.5858 74.4044 41.3404 74.4044H8.50997V62.0942C8.50997 57.4975 12.2497 53.7574 16.8467 53.7574H25.4175C26.6629 53.7574 27.6725 52.7481 27.6725 51.5024V44.2134C27.6725 43.4291 27.272 42.7383 26.6644 42.3343L22.5602 37.8143C21.2697 36.3931 20.5589 34.5533 20.5589 32.6335V22.3408C20.5589 17.6308 24.3907 13.799 29.1007 13.799H35.1043C39.8143 13.799 43.6464 17.6308 43.6464 22.3408V32.6332C43.6464 34.553 42.9356 36.3931 41.6451 37.814L37.5406 42.3343C36.9333 42.7383 36.5331 43.4291 36.5331 44.2131V51.5021C36.5331 52.7478 37.5426 53.7571 38.7881 53.7571H47.3589C51.4531 53.7571 54.865 56.7246 55.5626 60.6214C50.8379 62.9253 47.5748 67.7769 47.5748 73.3779V89.7827C47.5748 91.0284 48.5844 92.0377 49.8298 92.0377H108.053C109.299 92.0377 110.308 91.0284 110.308 89.7827V73.3779C110.308 67.82 107.094 63.0012 102.427 60.6762C103.102 56.7527 106.527 53.7571 110.641 53.7571H119.212C120.457 53.7571 121.467 52.7478 121.467 51.5021V44.2131C121.467 43.4285 121.066 42.7377 120.458 42.3337L116.354 37.814C115.064 36.3931 114.353 34.553 114.353 32.6332V22.3408C114.353 17.6308 118.185 13.799 122.895 13.799H128.899C133.609 13.799 137.441 17.6308 137.441 22.3408V32.6332C137.441 34.553 136.73 36.3931 135.44 37.814L131.335 42.3343C130.728 42.7383 130.327 43.4291 130.327 44.2131V51.5021C130.327 52.7478 131.337 53.7571 132.582 53.7571H141.153C145.75 53.7571 149.49 57.4969 149.49 62.0939V74.4041H117.047C115.802 74.4041 114.792 75.4134 114.792 76.6591C114.792 77.9048 115.802 78.9141 117.047 78.9141H151.745C152.991 78.9141 154 77.9048 154 76.6591V62.0939C154 55.0105 148.237 49.2475 141.154 49.2475Z" fill="#C4C4C4"/>
<path d="M101.678 120.618C101.418 119.815 100.731 119.226 99.8985 119.089L87.5803 117.067L81.8507 105.976C81.4637 105.227 80.6908 104.756 79.8473 104.756C79.0039 104.756 78.231 105.226 77.844 105.976L72.1144 117.067L59.7962 119.089C58.9639 119.226 58.2775 119.815 58.0167 120.618C57.756 121.42 57.9649 122.3 58.5578 122.9L67.3346 131.776L65.4511 144.116C65.324 144.95 65.6723 145.785 66.3549 146.28C66.7475 146.566 67.2127 146.711 67.6806 146.711C68.0257 146.711 68.3726 146.632 68.6925 146.471L79.8468 140.867L91.001 146.471C91.7548 146.85 92.6568 146.777 93.3386 146.28C94.0212 145.785 94.3695 144.95 94.2424 144.116L92.3586 131.776L101.135 122.9C101.73 122.3 101.938 121.42 101.678 120.618ZM88.3563 129.41C87.8551 129.918 87.6233 130.632 87.7306 131.336L89.1266 140.481L80.8601 136.328C80.2229 136.008 79.4723 136.008 78.8354 136.328L70.569 140.481L71.9647 131.336C72.0722 130.631 71.8402 129.917 71.3389 129.41L64.8338 122.832L73.9628 121.334C74.6662 121.218 75.2738 120.777 75.6008 120.143L79.847 111.924L84.0931 120.143C84.4203 120.777 85.0276 121.218 85.731 121.334L94.86 122.832L88.3563 129.41Z" fill="#C4C4C4"/>
<path d="M151.041 104.035C150.78 103.233 150.094 102.644 149.262 102.507L136.944 100.485L131.214 89.394C130.827 88.6449 130.054 88.1738 129.211 88.1738C128.367 88.1738 127.595 88.6443 127.208 89.394L121.478 100.485L109.16 102.507C108.327 102.644 107.641 103.233 107.38 104.035C107.119 104.838 107.328 105.718 107.921 106.318L116.698 115.194L114.814 127.534C114.687 128.368 115.036 129.203 115.718 129.699C116.401 130.194 117.303 130.269 118.056 129.889L129.21 124.285L140.364 129.889C140.684 130.05 141.031 130.13 141.376 130.13C141.844 130.13 142.31 129.984 142.702 129.699C143.385 129.203 143.733 128.368 143.606 127.534L141.722 115.194L150.499 106.318C151.093 105.718 151.302 104.838 151.041 104.035ZM137.72 112.829C137.218 113.335 136.987 114.05 137.094 114.754L138.49 123.899L130.223 119.746C129.905 119.586 129.558 119.506 129.211 119.506C128.864 119.506 128.517 119.586 128.198 119.746L119.932 123.899L121.328 114.754C121.435 114.049 121.204 113.335 120.702 112.829L114.197 106.251L123.326 104.752C124.03 104.637 124.637 104.195 124.964 103.562L129.21 95.3428L133.457 103.562C133.784 104.195 134.391 104.637 135.095 104.752L144.223 106.251L137.72 112.829Z" fill="#C4C4C4"/>
<path d="M52.3147 104.036C52.0542 103.233 51.3675 102.644 50.5352 102.507L38.217 100.485L32.4874 89.394C32.1001 88.6449 31.3275 88.1738 30.4838 88.1738C29.64 88.1738 28.8675 88.6443 28.4801 89.394L22.7511 100.485L10.4329 102.507C9.60062 102.644 8.91419 103.233 8.65345 104.036C8.3927 104.838 8.60159 105.719 9.19456 106.318L17.9716 115.194L16.0881 127.535C15.961 128.368 16.3093 129.204 16.9919 129.699C17.6743 130.195 18.576 130.269 19.3295 129.89L30.4838 124.285L41.6377 129.89C41.9576 130.051 42.3045 130.13 42.6496 130.13C43.1175 130.13 43.583 129.985 43.9753 129.699C44.6579 129.204 45.0063 128.368 44.8791 127.535L42.9956 115.194L51.7724 106.318C52.3662 105.718 52.5754 104.838 52.3147 104.036ZM38.9928 112.829C38.4915 113.335 38.2595 114.05 38.367 114.754L39.7627 123.899L31.4966 119.746C31.1781 119.586 30.8312 119.506 30.4841 119.506C30.1369 119.506 29.79 119.586 29.4716 119.746L21.2051 123.899L22.6011 114.754C22.7087 114.049 22.4766 113.335 21.9753 112.829L15.4714 106.251L24.6004 104.752C25.3038 104.637 25.9114 104.195 26.2386 103.562L30.4846 95.3428L34.7306 103.562C35.0579 104.195 35.6655 104.637 36.3689 104.752L45.4979 106.251L38.9928 112.829Z" fill="#C4C4C4"/>
<path d="M137.154 46.2475H130.838V42.186L134.778 37.846C136.824 35.593 137.951 32.6765 137.951 29.6332V19.3408C137.951 12.1441 132.095 6.28906 124.899 6.28906H118.895C111.698 6.28906 105.843 12.1443 105.843 19.3408V29.6332C105.843 32.6765 106.97 35.5933 109.015 37.846L112.957 42.1866V46.2475H106.641C100.505 46.2475 95.3624 50.5728 94.0956 56.3344C93.4508 56.2441 92.7933 56.1943 92.1242 56.1943H84.7261V51.2262L89.239 46.2565C91.4952 43.7716 92.738 40.5545 92.738 37.1979V25.6054C92.738 17.6566 86.2713 11.1904 78.3227 11.1904C77.077 11.1904 76.0677 12.1997 76.0677 13.4454C76.0677 14.6911 77.077 15.7004 78.3227 15.7004C83.7845 15.7004 88.228 20.1436 88.228 25.6054V37.1976C88.228 39.4309 87.4012 41.5711 85.9004 43.2243L81.2533 48.3422C80.6298 48.7433 80.2168 49.4432 80.2168 50.24V58.4496C80.2168 59.6953 81.226 60.7046 82.4717 60.7046H92.1248C97.4589 60.7046 101.799 65.0444 101.799 70.3788V84.5286H48.0851V70.3788C48.0851 66.2198 50.7235 62.666 54.4138 61.3014C54.5872 61.2651 54.7525 61.2073 54.9086 61.1335C55.8101 60.8552 56.7675 60.7043 57.7589 60.7043H67.4119C68.6574 60.7043 69.6669 59.695 69.6669 58.4493V50.2397C69.6669 49.4432 69.2538 48.743 68.6304 48.3419L63.9833 43.224C62.4822 41.5708 61.6551 39.4303 61.6551 37.1973V25.6054C61.6551 20.1439 66.0983 15.7004 71.5604 15.7004C72.8058 15.7004 73.8154 14.6911 73.8154 13.4454C73.8154 12.1997 72.8058 11.1904 71.5604 11.1904C63.6115 11.1904 57.1451 17.6569 57.1451 25.6054V37.1976C57.1451 40.5539 58.3879 43.771 60.6441 46.2562L65.1564 51.2256V56.1941H57.7583C57.1281 56.1941 56.5088 56.2395 55.9003 56.3197C54.6282 50.5655 49.4898 46.2475 43.3589 46.2475H37.043V42.186L40.9838 37.846C43.0296 35.593 44.156 32.6765 44.156 29.6332V19.3408C44.156 12.1441 38.3008 6.28906 31.104 6.28906H25.101C17.9042 6.28906 12.0492 12.1443 12.0492 19.3408V29.6332C12.0492 32.6765 13.1757 35.5933 15.2215 37.846L19.1625 42.1863V46.2475H12.8467C5.763 46.2475 0 52.0104 0 59.0942V73.6594C0 74.9051 1.00957 75.9144 2.25498 75.9144H37.3404C38.5858 75.9144 39.5954 74.9051 39.5954 73.6594C39.5954 72.4137 38.5858 71.4044 37.3404 71.4044H4.50997V59.0942C4.50997 54.4975 8.24972 50.7574 12.8467 50.7574H21.4175C22.6629 50.7574 23.6725 49.7481 23.6725 48.5024V41.2134C23.6725 40.4291 23.272 39.7383 22.6644 39.3343L18.5602 34.8143C17.2697 33.3931 16.5589 31.5533 16.5589 29.6335V19.3408C16.5589 14.6308 20.3907 10.799 25.1007 10.799H31.1043C35.8143 10.799 39.6464 14.6308 39.6464 19.3408V29.6332C39.6464 31.553 38.9356 33.3931 37.6451 34.814L33.5406 39.3343C32.9333 39.7383 32.5331 40.4291 32.5331 41.2131V48.5021C32.5331 49.7478 33.5426 50.7571 34.7881 50.7571H43.3589C47.4531 50.7571 50.865 53.7246 51.5626 57.6214C46.8379 59.9253 43.5748 64.7769 43.5748 70.3779V86.7827C43.5748 88.0284 44.5844 89.0377 45.8298 89.0377H104.053C105.299 89.0377 106.308 88.0284 106.308 86.7827V70.3779C106.308 64.82 103.094 60.0012 98.4271 57.6762C99.1024 53.7527 102.527 50.7571 106.641 50.7571H115.212C116.457 50.7571 117.467 49.7478 117.467 48.5021V41.2131C117.467 40.4285 117.066 39.7377 116.458 39.3337L112.354 34.814C111.064 33.3931 110.353 31.553 110.353 29.6332V19.3408C110.353 14.6308 114.185 10.799 118.895 10.799H124.899C129.609 10.799 133.441 14.6308 133.441 19.3408V29.6332C133.441 31.553 132.73 33.3931 131.44 34.814L127.335 39.3343C126.728 39.7383 126.327 40.4291 126.327 41.2131V48.5021C126.327 49.7478 127.337 50.7571 128.582 50.7571H137.153C141.75 50.7571 145.49 54.4969 145.49 59.0939V71.4041H113.047C111.802 71.4041 110.792 72.4134 110.792 73.6591C110.792 74.9048 111.802 75.9141 113.047 75.9141H147.745C148.991 75.9141 150 74.9048 150 73.6591V59.0939C150 52.0105 144.237 46.2475 137.154 46.2475Z" fill="#FF6E40"/>
<path d="M97.6777 117.618C97.4175 116.815 96.7311 116.226 95.8985 116.089L83.5803 114.067L77.8507 102.976C77.4637 102.227 76.6908 101.756 75.8473 101.756C75.0039 101.756 74.231 102.226 73.844 102.976L68.1144 114.067L55.7962 116.089C54.9639 116.226 54.2775 116.815 54.0167 117.618C53.756 118.42 53.9649 119.3 54.5578 119.9L63.3346 128.776L61.4511 141.116C61.324 141.95 61.6723 142.785 62.3549 143.28C62.7475 143.566 63.2127 143.711 63.6806 143.711C64.0257 143.711 64.3726 143.632 64.6925 143.471L75.8468 137.867L87.001 143.471C87.7548 143.85 88.6568 143.777 89.3386 143.28C90.0212 142.785 90.3695 141.95 90.2424 141.116L88.3586 128.776L97.1354 119.9C97.7298 119.3 97.9384 118.42 97.6777 117.618ZM84.3563 126.41C83.8551 126.918 83.6233 127.632 83.7306 128.336L85.1266 137.481L76.8601 133.328C76.2229 133.008 75.4723 133.008 74.8354 133.328L66.569 137.481L67.9647 128.336C68.0722 127.631 67.8402 126.917 67.3389 126.41L60.8338 119.832L69.9628 118.334C70.6662 118.218 71.2738 117.777 71.6008 117.143L75.847 108.924L80.0931 117.143C80.4203 117.777 81.0276 118.218 81.731 118.334L90.86 119.832L84.3563 126.41Z" fill="#FF6E40"/>
<path d="M147.041 101.035C146.78 100.233 146.094 99.6436 145.262 99.5068L132.944 97.4847L127.214 86.394C126.827 85.6449 126.054 85.1738 125.211 85.1738C124.367 85.1738 123.595 85.6443 123.208 86.394L117.478 97.4847L105.16 99.5068C104.327 99.6436 103.641 100.233 103.38 101.035C103.119 101.838 103.328 102.718 103.921 103.318L112.698 112.194L110.814 124.534C110.687 125.368 111.036 126.203 111.718 126.699C112.401 127.194 113.303 127.269 114.056 126.889L125.21 121.285L136.364 126.889C136.684 127.05 137.031 127.13 137.376 127.13C137.844 127.13 138.31 126.984 138.702 126.699C139.385 126.203 139.733 125.368 139.606 124.534L137.722 112.194L146.499 103.318C147.093 102.718 147.302 101.838 147.041 101.035ZM133.72 109.829C133.218 110.335 132.987 111.05 133.094 111.754L134.49 120.899L126.223 116.746C125.905 116.586 125.558 116.506 125.211 116.506C124.864 116.506 124.517 116.586 124.198 116.746L115.932 120.899L117.328 111.754C117.435 111.049 117.204 110.335 116.702 109.829L110.197 103.251L119.326 101.752C120.03 101.637 120.637 101.195 120.964 100.562L125.21 92.3428L129.457 100.562C129.784 101.195 130.391 101.637 131.095 101.752L140.223 103.251L133.72 109.829Z" fill="#FF6E40"/>
<path d="M48.3147 101.036C48.0542 100.233 47.3675 99.6436 46.5352 99.5068L34.217 97.4847L28.4874 86.394C28.1001 85.6449 27.3275 85.1738 26.4838 85.1738C25.64 85.1738 24.8675 85.6443 24.4801 86.394L18.7511 97.485L6.43294 99.5071C5.60062 99.6439 4.91419 100.233 4.65345 101.036C4.3927 101.838 4.60159 102.719 5.19456 103.318L13.9716 112.194L12.0881 124.535C11.961 125.368 12.3093 126.204 12.9919 126.699C13.6743 127.195 14.576 127.269 15.3295 126.89L26.4838 121.285L37.6377 126.89C37.9576 127.051 38.3045 127.13 38.6496 127.13C39.1175 127.13 39.583 126.985 39.9753 126.699C40.6579 126.204 41.0063 125.368 40.8791 124.535L38.9956 112.194L47.7724 103.318C48.3662 102.718 48.5754 101.838 48.3147 101.036ZM34.9928 109.829C34.4915 110.335 34.2595 111.05 34.367 111.754L35.7627 120.899L27.4966 116.746C27.1781 116.586 26.8312 116.506 26.4841 116.506C26.1369 116.506 25.79 116.586 25.4716 116.746L17.2051 120.899L18.6011 111.754C18.7087 111.049 18.4766 110.335 17.9753 109.829L11.4714 103.251L20.6004 101.752C21.3038 101.637 21.9114 101.195 22.2386 100.562L26.4846 92.3428L30.7306 100.562C31.0579 101.195 31.6655 101.637 32.3689 101.752L41.4979 103.251L34.9928 109.829Z" fill="#FF6E40"/>
</svg>
