<svg width="276" height="278" viewBox="0 0 276 278" fill="none" xmlns="http://www.w3.org/2000/svg">
<path d="M34.2441 1.40892C42.338 -1.47798 51.5337 0.108963 59.8437 5.82592C62.196 7.44425 71.6203 16.0368 80.787 24.9226C101.551 45.0484 103.046 47.5696 103.046 62.4646C103.046 74.8815 101.203 79.2369 90.2138 92.7839C81.3351 103.732 79.943 107.009 81.5839 113.106C83.7959 121.321 97.3487 137.684 121.679 161.516C145.255 184.609 161.622 196.965 168.636 196.965C174.499 196.965 176.826 195.641 186.09 187.038C190.844 182.623 197.252 177.783 200.378 176.248C205.303 173.83 207.226 173.465 215.046 173.465C228.188 173.465 230.493 174.857 251.392 195.408C269.851 213.56 273.358 218.212 275.082 226.846C277.605 239.48 273.28 249.045 259.953 260.297C251.803 267.179 242.275 271.978 230.546 275.111C217.52 278.591 197.897 278.379 183.2 274.599C147.323 265.373 110.582 241.191 70.8651 200.661C32.9972 162.018 11.4699 127.497 2.45988 90.9646C-0.794125 77.7706 -0.824625 55.3333 2.39738 43.5183C7.98739 23.0184 20.6681 6.25092 34.2441 1.40892ZM42.5966 19.9792C39.7307 19.9673 38.3356 20.8298 34.3437 25.0818C28.4397 31.3708 23.0037 42.1577 21.0497 51.4646C11.6108 96.4236 51.1699 163.126 119.918 218.173C147.177 239.999 171.294 252.295 194.931 256.417C206.143 258.372 211.689 258.365 221.274 256.385C240.613 252.39 256.557 241.712 256.542 232.764C256.536 229.02 253.417 224.921 240.159 211.237C225.152 195.748 221.112 192.708 215.644 192.783C210.238 192.858 207.468 194.513 197.15 203.84C186.181 213.756 181.471 216.126 171.546 216.724C161.983 217.3 155.496 215.128 144.243 207.582C133.954 200.681 126.783 194.438 108.665 176.613C90.357 158.601 75.5681 142.266 70.0341 133.944C56.9302 114.239 57.9648 100.584 74.0068 81.5261C81.2665 72.9014 82.9358 70.1785 84.0048 65.2146C85.4058 58.7096 84.15 56.8701 66.039 38.9011C56.475 29.4111 48.0636 21.2751 47.3476 20.8201C46.6313 20.3661 44.4933 19.9882 42.5966 19.9792Z" fill="#012439"/>
</svg>
