<svg width="280" height="182" viewBox="0 0 280 182" fill="none" xmlns="http://www.w3.org/2000/svg">
<path d="M139.281 0.0122028C270.475 -0.0117972 261.935 -0.397149 269.889 5.90185C271.931 7.51987 274.929 11.2376 276.551 14.1655L279.5 19.4897V162.49L277.3 166.603C274.376 172.068 266.165 179.324 261.235 180.801C258.264 181.691 227.501 181.984 138.884 181.968C25.9421 181.947 20.3126 181.861 16.4346 180.1C10.5756 177.439 5.23555 172.389 2.43555 166.863L0 162.056L0.0214844 90.7729C0.0424844 23.6569 0.151719 19.2557 1.88672 15.4897C4.29977 10.2508 10.315 4.20618 15.4189 1.8872C19.3189 0.116306 24.8208 0.0332025 139.281 0.0122028ZM259.25 25.0679C258.837 25.1099 253.325 28.5001 247 32.6011C207.662 58.1037 163.755 85.5491 155.794 89.6138C148.755 93.2078 137.603 94.0159 129.98 91.4839C124.993 89.8267 71.2129 58.0149 36.5 36.187L20.5 26.1265L20.2422 92.2729C19.9882 157.635 20.0097 158.444 22.0195 160.455C24.0395 162.475 24.9105 162.492 138.277 162.755C218.516 162.941 253.274 162.698 255.119 161.937C256.56 161.342 258.248 159.739 258.869 158.375C259.672 156.611 260 136.957 260 90.4429C260 54.458 259.663 25.048 259.25 25.0679ZM53.4004 23.0288C56.0364 24.7008 75.8117 36.716 97.3467 49.729C130.734 69.9049 137.09 73.3969 140.503 73.4399C143.927 73.4828 147.39 71.6982 164.416 61.1177C175.366 54.3137 192.689 43.3228 202.912 36.6948C213.135 30.0658 223.3 23.6006 225.5 22.3286L229.5 20.0142L139.054 20.0015L48.6074 19.9897L53.4004 23.0288Z" fill="#012439"/>
</svg>
