<svg width="285" height="286" viewBox="0 0 285 286" fill="none" xmlns="http://www.w3.org/2000/svg">
<path d="M119.86 1.04838C129.909 -0.75961 159.57 -0.119541 169.86 2.12845C198.7 8.42746 222.871 21.5664 243.385 42.0913C267.809 66.5273 279.916 92.6868 283.987 129.828C288.276 168.946 273.357 211.368 244.889 241.001C223.392 263.378 200.931 276.039 170.741 282.799C156.276 286.037 129.219 286.044 114.569 282.812C86.2807 276.571 64.9358 265.338 45.1468 246.278C17.0068 219.174 2.08884 187.102 0.18784 149.623C-1.0941 124.345 4.20404 99.0245 15.515 76.3716C35.1011 37.1468 73.5739 9.37535 119.86 1.04838ZM150.86 28.5845C150.86 37.4103 150.744 37.893 147.937 40.6997C145.773 42.8637 144.065 43.6226 141.36 43.6226C138.655 43.6226 136.947 42.8637 134.783 40.6997C131.982 37.8988 131.86 37.3986 131.86 28.6997V19.6226L129.11 19.7066C127.598 19.7536 122.76 20.608 118.36 21.606C75.1688 31.404 41.6588 60.1458 27.4007 99.6226C24.1857 108.524 20.9112 122.66 20.8812 127.77L20.8597 131.418L29.4417 131.77C37.6806 132.109 38.1408 132.254 40.9417 135.389C44.9294 139.852 44.9276 144.709 40.9369 148.7C38.1609 151.476 37.5826 151.623 29.4369 151.623H20.8597L20.8607 154.373C20.8637 159.054 23.5802 172.853 25.8382 179.649C27.0202 183.21 30.3659 191.073 33.2708 197.123C47.5028 226.764 73.285 249.072 105.971 260.028C113.713 262.623 130.379 265.767 131.335 264.814C131.623 264.526 131.86 260.279 131.86 255.378C131.86 246.865 131.99 246.338 134.783 243.545C138.772 239.556 143.63 239.554 148.093 243.54C151.287 246.392 151.367 246.666 151.704 255.996L152.049 265.535L154.704 265.115C156.164 264.884 160.361 264.222 164.029 263.644C178.252 261.402 195.56 254.315 209.743 244.926C219.579 238.415 234.256 224.186 241.004 214.623C251.771 199.362 260.303 179.032 262.909 162.428C264.224 154.046 263.813 151.319 261.377 152.253C260.521 152.582 256.934 152.543 253.404 152.165C248.41 151.63 246.418 150.909 244.423 148.914C240.899 145.39 240.847 139.008 244.312 135.269C246.596 132.805 247.353 132.623 255.312 132.623C265.309 132.623 264.844 133.528 262.312 119.008C258.35 96.2895 247.491 74.7532 231.429 57.7603C225.433 51.4173 213.513 42.2605 204.077 36.7495C190.994 29.1086 170.042 21.7886 156.359 20.0796L150.86 19.3931V28.5845ZM136.564 59.2193C141.195 56.7083 144.671 57.2351 148.459 61.023L151.86 64.4234V135.882L167.86 152.154C182.469 167.011 183.86 168.734 183.86 171.977C183.86 173.931 183.348 176.653 182.721 178.028C181.241 181.276 175.528 184.005 172.025 183.136C168.997 182.385 135.102 148.062 133.155 143.775C131.656 140.476 131.346 67.1057 132.814 63.2437C133.339 61.8637 135.026 60.0532 136.564 59.2193Z" fill="#012439"/>
</svg>
