<svg width="158" height="291" viewBox="0 0 158 291" fill="none" xmlns="http://www.w3.org/2000/svg">
<path d="M109.001 0.623761C113.126 0.189789 123.701 -0.0817974 132.501 0.0221989C156.772 0.3102 157.344 0.831628 157.821 23.1355C158.198 40.7354 157.26 44.8794 152.103 48.3484C148.939 50.4774 147.664 50.6361 133.603 50.6511C116.26 50.6701 113.245 51.6714 107.39 59.3484C102.937 65.1864 102.001 70.8873 102.001 92.1843V110.635L124.751 110.639C145.243 110.642 147.805 110.829 150.58 112.52C156.224 115.962 156.469 118.126 153.698 140.057C151.09 160.691 150.048 163.906 145.384 165.68C144.002 166.205 133.675 166.635 122.436 166.635H102.001V283.836L98.6006 287.235L95.2002 290.635H75.0508C58.7168 290.635 54.3271 290.338 51.8721 289.069C45.9835 286.023 46.001 286.212 46.001 223.668V166.635H6.80078L3.40039 163.235L0 159.836V117.435L3.40039 114.035L6.80078 110.635H46.001V90.3591C46.001 68.1323 47.0637 56.6295 50.0547 46.5085C58.2897 18.6325 77.105 3.98676 109.001 0.623761Z" fill="#012439"/>
</svg>
