<svg width="53" height="53" viewBox="0 0 53 53" fill="none" xmlns="http://www.w3.org/2000/svg">
<path d="M45.2363 0H7.76367C3.48314 0 0 3.48314 0 7.76367V45.2363C0 49.5169 3.48314 53 7.76367 53H45.2363C49.5169 53 53 49.5169 53 45.2363V7.76367C53 3.48314 49.5169 0 45.2363 0ZM18.7363 42.0273H12.5254V20.2891H18.7363V42.0273ZM18.7363 17.1836H12.5254V10.9727H18.7363V17.1836ZM40.4746 42.0273H34.2637V29.6055C34.2637 27.8934 32.8703 26.5 31.1582 26.5C29.4462 26.5 28.0527 27.8934 28.0527 29.6055V42.0273H21.8418V20.2891H28.0527V21.4597C29.6799 20.9538 30.7369 20.2891 32.7109 20.2891C36.9231 20.2935 40.4746 24.0722 40.4746 28.538V42.0273Z" fill="#FF6E40"/>
</svg>
